<svg version="1.1" id="Layer_1" xmlns="http://www.w3.org/2000/svg" xmlns:xlink="http://www.w3.org/1999/xlink" x="0px" y="0px"
	 width="100%" viewBox="0 0 1024 1024" enable-background="new 0 0 1024 1024" xml:space="preserve">
<path fill="#000000" opacity="1.000000" stroke="none" 
	d="
M577.000000,1025.000000 
	C384.666656,1025.000000 192.833328,1025.000000 1.000000,1025.000000 
	C1.000000,683.666687 1.000000,342.333344 1.000000,1.000000 
	C342.333344,1.000000 683.666687,1.000000 1025.000000,1.000000 
	C1025.000000,342.333344 1025.000000,683.666687 1025.000000,1025.000000 
	C875.833313,1025.000000 726.666687,1025.000000 577.000000,1025.000000 
M762.994019,783.982544 
	C762.994019,783.982544 762.985107,784.032166 763.704346,784.042114 
	C764.774963,783.700623 765.845581,783.359131 767.311401,782.505737 
	C767.213562,774.107727 766.944885,765.705383 767.161255,757.315552 
	C767.204773,755.627686 769.089600,753.987366 770.125366,752.325134 
	C771.079956,753.984009 772.790100,755.612549 772.858337,757.307068 
	C773.152710,764.621582 773.143860,771.962036 772.868896,779.278931 
	C772.755737,782.289429 773.000366,784.054016 776.589050,784.035889 
	C779.820557,784.019531 782.105835,783.618652 782.041077,779.535400 
	C781.898376,770.545532 782.107422,761.550232 781.969971,752.560181 
	C781.875977,746.413330 778.175415,743.519958 772.168335,744.435120 
	C770.711304,744.657104 769.085876,745.010681 767.755859,744.599121 
	C763.585510,743.308777 761.092346,745.298462 758.495605,749.229065 
	C758.382141,759.736511 758.171814,770.245178 758.296814,780.749756 
	C758.310059,781.868347 760.284790,782.963684 761.411865,784.048645 
	C761.411865,784.048645 761.445740,783.992310 761.846069,784.310181 
	C762.242737,784.210266 762.639343,784.110352 762.994019,783.982544 
M596.583679,217.985565 
	C596.775208,217.669144 596.966736,217.352722 597.034912,217.034363 
	C597.034912,217.034363 597.034180,217.157654 597.757507,217.039215 
	C610.979553,208.422043 624.396912,208.758469 637.959412,216.064667 
	C637.959412,216.064667 637.862000,216.075455 638.161987,216.675949 
	C640.399048,218.845032 642.636169,221.014114 644.885742,223.084229 
	C644.885742,223.084229 644.786377,223.075119 644.922607,223.669540 
	C645.285400,224.131882 645.648254,224.594223 646.150696,225.767639 
	C647.825745,231.807739 649.500793,237.847839 651.024902,244.835480 
	C651.074036,262.229370 651.123169,279.623260 651.007874,297.817200 
	C650.071960,306.633575 646.407166,314.236389 640.323975,321.042664 
	C640.068420,321.203461 639.937500,321.434784 639.271240,322.001099 
	C634.436401,324.290100 629.788513,327.243225 624.711731,328.672546 
	C620.070251,329.979309 614.964661,329.637573 609.122437,329.903076 
	C601.110046,329.920227 593.097656,329.937347 584.589172,329.236023 
	C556.500061,329.236023 528.410889,329.236023 499.992401,329.236023 
	C499.992401,326.102234 500.041321,323.796722 499.985077,321.493774 
	C499.209076,289.718018 502.171722,257.828644 497.007507,226.184998 
	C494.485931,210.734070 488.427216,196.694885 478.264862,184.979691 
	C459.638397,163.507080 435.053223,154.828629 407.193024,153.992889 
	C391.764008,153.530045 377.008575,156.285553 362.642334,161.938370 
	C339.842529,170.909592 324.694519,187.174194 316.011292,209.777740 
	C310.781158,223.392410 309.117798,237.664444 309.053345,252.111481 
	C308.973877,269.925568 307.804047,287.847870 312.065735,305.399139 
	C316.877106,325.214233 325.635040,342.461609 344.365784,352.834930 
	C347.160522,354.382690 350.088867,355.689209 352.994537,357.126678 
	C349.297546,359.300232 345.779388,361.026794 342.632690,363.273621 
	C321.069458,378.670624 311.237335,400.264923 310.087799,426.187164 
	C309.682068,435.336334 310.018494,444.518494 310.017731,453.685577 
	C310.016846,464.466705 309.919800,475.249176 310.063965,486.028381 
	C310.125305,490.614197 310.334900,495.254120 311.100769,499.763519 
	C313.086121,511.453064 316.091125,522.906921 321.921967,533.336060 
	C333.817474,554.612488 352.444275,567.340393 375.515442,573.511353 
	C388.114166,576.881165 400.990509,578.462036 414.333496,577.254395 
	C427.643738,576.049683 440.347870,573.805176 452.597687,568.248169 
	C467.858032,561.325439 479.794006,551.060608 487.923096,536.385132 
	C496.783997,520.388489 499.745880,502.932709 499.916351,485.002075 
	C500.212616,453.843597 499.997833,422.680237 499.997284,391.518921 
	C499.997253,389.757446 499.997284,387.995972 499.997284,386.352661 
	C509.054565,386.352661 517.447571,386.352661 526.012146,386.352661 
	C526.012146,393.722748 525.951355,400.713318 526.022644,407.702515 
	C526.331421,437.956268 526.244507,468.223785 527.234070,498.455780 
	C527.609802,509.935059 531.060120,521.237915 536.300659,531.622925 
	C545.144836,549.149292 558.712341,561.666199 576.856506,569.503357 
	C595.789673,577.681274 615.492676,578.426819 635.561951,576.981323 
	C637.888245,576.813782 640.358887,577.191162 642.525146,576.533569 
	C649.064392,574.548523 655.568359,572.388367 661.937134,569.913147 
	C674.905334,564.872925 686.607361,557.753601 695.512451,546.876587 
	C713.308777,525.139648 715.898865,499.076508 715.938232,472.431061 
	C715.950562,464.092133 715.395081,455.748657 714.972595,447.413666 
	C714.376587,435.654541 714.708801,423.726471 712.778381,412.182617 
	C708.916321,389.087402 696.821716,371.183746 675.763550,359.931885 
	C674.725891,359.377441 673.938538,358.354431 673.034668,357.549591 
	C673.982544,356.559967 674.748230,355.134247 675.907227,354.649994 
	C684.864502,350.907440 692.016174,345.087982 698.116577,337.499329 
	C708.876648,324.114227 713.610535,308.505188 714.793823,291.918121 
	C715.774780,278.166595 714.972412,264.293549 715.138916,250.476471 
	C715.286865,238.197601 714.038940,226.255539 710.277832,214.404480 
	C703.498352,193.042740 690.674927,176.815079 670.890259,166.574829 
	C649.951538,155.737259 627.617615,151.869339 604.058472,154.938065 
	C582.285950,157.774094 563.356384,165.626343 548.133911,182.179886 
	C533.403809,198.197952 527.217468,217.525116 526.271240,238.302383 
	C525.135315,263.246338 526.005127,288.281616 526.006470,313.277344 
	C526.006592,315.056458 526.006470,316.835541 526.006470,318.872955 
	C545.644592,318.872955 564.768311,318.877228 583.891907,318.834839 
	C584.196960,318.834167 584.500732,318.261932 584.970398,317.038513 
	C584.966980,300.340210 584.963562,283.641907 585.220337,266.166718 
	C585.307861,264.364655 585.485779,262.561707 585.468445,260.760681 
	C585.342346,247.672043 584.747131,234.504288 592.785461,222.738266 
	C592.785461,222.738266 592.872803,222.425690 593.353699,222.056549 
	C594.283569,220.737549 595.213379,219.418533 596.062988,218.072357 
	C596.062988,218.072357 596.037842,218.153336 596.583679,217.985565 
M387.331543,751.576050 
	C389.213837,749.493164 392.421021,748.036194 390.687286,743.846863 
	C384.486420,743.846863 378.194611,743.846863 371.241211,743.846863 
	C372.427582,746.642578 372.963257,750.522400 374.473969,750.948914 
	C378.235504,752.011047 377.992340,754.345093 377.998901,756.977966 
	C378.020630,765.695374 378.007111,774.412964 378.007111,783.368835 
	C380.791321,783.368835 383.380951,783.368835 386.383270,782.564270 
	C386.572083,772.424927 386.760895,762.285645 387.331543,751.576050 
M273.515442,751.698364 
	C274.141022,751.497864 274.767853,751.123901 275.391998,751.128418 
	C277.541260,751.143921 279.890961,751.751465 279.962646,748.300598 
	C280.024261,745.334106 278.536987,743.971436 275.757843,743.943176 
	C269.841339,743.883057 263.923828,743.924805 257.444733,743.924805 
	C258.169525,748.224304 256.869720,752.624634 263.001617,752.940857 
	C262.998260,761.562744 263.086456,770.186035 262.947296,778.805725 
	C262.890259,782.338440 263.495270,784.332275 267.824646,784.137634 
	C271.596558,783.968018 273.145752,782.969299 273.043854,778.990051 
	C272.814789,770.042358 272.961578,761.085022 273.515442,751.698364 
M799.398132,744.674988 
	C799.275513,756.730652 799.095520,768.786499 799.132324,780.841675 
	C799.135437,781.876343 800.583130,783.800049 801.349609,783.794861 
	C806.555298,783.759949 811.758362,783.317749 817.678650,782.894958 
	C825.149475,781.110657 820.767395,775.410217 821.316711,770.851624 
	C818.805603,771.455261 816.802429,772.692322 814.717285,773.770630 
	C813.356506,774.474304 811.876465,774.947510 810.449829,775.523865 
	C809.967285,774.205811 809.137817,772.907104 809.063049,771.566284 
	C808.762390,766.171875 809.930237,765.261536 816.516296,765.349182 
	C817.499817,762.074280 816.446045,760.138855 812.884460,760.046570 
	C810.194641,759.976929 808.719055,758.765259 809.082825,756.075745 
	C809.285889,754.574280 810.111084,753.156921 810.656006,751.701721 
	C812.121582,752.780640 813.599243,753.843872 815.040833,754.953979 
	C815.278198,755.136841 815.323975,755.757019 815.513733,755.783875 
	C817.353760,756.044128 819.205566,756.220825 821.054016,756.421326 
	C821.011230,755.113159 820.990112,753.803772 820.917480,752.497253 
	C820.874390,751.721863 820.453796,750.831787 820.709106,750.196899 
	C822.714417,745.211548 819.344055,744.275208 815.831604,744.091003 
	C810.545959,743.813843 805.234131,744.036743 799.398132,744.674988 
M449.098236,777.636597 
	C450.207825,782.651855 453.983948,784.126465 458.415833,784.161438 
	C460.265717,784.176086 462.267578,782.323730 463.949280,782.642944 
	C467.452850,783.308044 470.168915,781.872864 470.711639,779.131409 
	C471.689789,774.190491 471.503143,769.016052 471.734009,763.936035 
	C471.751282,763.556091 471.193939,762.795776 470.943604,762.812439 
	C468.341339,762.985352 465.506348,762.759033 463.265594,763.792175 
	C462.327026,764.224854 462.668518,767.403015 462.400299,769.329041 
	C462.123840,771.314636 461.813690,773.295471 461.518250,775.278381 
	C460.305328,774.995422 458.379639,775.070557 458.021606,774.358032 
	C457.166321,772.655762 456.879242,770.598816 456.689880,768.653320 
	C456.542114,767.135071 457.075073,765.555847 456.969025,764.027039 
	C456.799652,761.585510 455.836914,759.086304 456.186066,756.757874 
	C456.456512,754.954346 458.220062,753.374695 459.319855,751.695557 
	C460.571777,752.678711 461.692383,753.967407 463.105804,754.574829 
	C465.332611,755.531738 467.749481,756.401062 470.101746,756.444336 
	C470.641632,756.454285 472.215454,752.529358 471.613770,751.164856 
	C470.453461,748.533813 467.352478,744.168701 466.331635,744.496338 
	C460.688446,746.307556 453.096863,741.278687 449.233307,749.044861 
	C448.956818,749.600647 449.067627,750.349182 448.368713,751.572083 
	C448.573608,760.019470 448.778534,768.466797 449.098236,777.636597 
M519.101929,777.652832 
	C521.612366,783.602844 525.276428,785.179443 533.953735,783.870667 
	C538.910889,783.122925 541.542969,779.916199 542.080566,775.143372 
	C542.219666,773.907959 541.187439,771.503296 540.458740,771.406799 
	C538.459656,771.142029 536.221497,771.508362 534.296570,772.217896 
	C532.670654,772.817200 531.350586,774.246277 529.895081,775.308044 
	C529.270935,773.748779 527.913025,772.020020 528.223389,770.676697 
	C528.551575,769.256409 530.324768,767.393555 531.719177,767.145996 
	C535.438660,766.485718 536.574463,764.844482 535.367004,761.122986 
	C534.643494,761.190552 533.833557,761.528076 533.441162,761.258301 
	C531.582947,759.980774 529.362732,758.832458 528.247253,757.033203 
	C527.656677,756.080688 529.057800,753.893433 529.559753,752.263611 
	C531.114746,753.378662 532.546875,754.771057 534.259644,755.530273 
	C535.946289,756.277893 537.915405,756.638123 539.764587,756.652344 
	C540.559143,756.658508 541.845154,755.496765 542.085815,754.635864 
	C543.677063,748.944885 539.158264,743.902832 533.397461,744.603943 
	C531.450562,744.840820 529.420776,744.833313 527.477112,744.574707 
	C522.477905,743.909790 520.213135,745.542419 518.361267,751.550720 
	C518.569702,760.010437 518.778076,768.470154 519.101929,777.652832 
M570.625244,747.070862 
	C570.758728,747.464233 570.892273,747.857605 571.102600,748.832031 
	C571.136047,749.024414 571.169556,749.216858 571.231201,749.503784 
	C571.231201,749.503784 571.197754,749.596497 571.096252,750.129578 
	C571.070374,750.308594 571.044495,750.487671 570.480286,750.971252 
	C570.659424,751.427551 570.838562,751.883911 571.073303,752.880920 
	C571.099854,753.060120 571.126465,753.239319 571.215759,754.271362 
	C571.202637,760.015686 571.189514,765.760010 571.089539,772.119812 
	C571.068359,772.325928 571.047241,772.531982 570.628052,773.059387 
	C570.760559,773.459717 570.893005,773.860046 571.156494,774.902954 
	C571.207947,775.115417 571.259338,775.327820 571.377441,775.546326 
	C571.377441,775.546326 571.387146,775.612549 570.613220,775.729614 
	C569.061768,775.113037 567.510376,774.496460 565.918335,772.965393 
	C565.910461,766.831299 565.970581,760.695984 565.868103,754.563477 
	C565.810303,751.101990 565.484741,747.645020 564.355469,744.116699 
	C561.896790,744.084961 559.438171,744.053223 556.376526,744.606812 
	C556.250183,752.343567 556.028503,760.080566 556.049316,767.816956 
	C556.056580,770.529846 556.659729,773.241211 557.024597,776.705994 
	C558.631104,782.644836 563.354248,785.608093 569.881287,784.772217 
	C576.854492,783.879211 579.869812,780.850830 579.977112,774.310303 
	C580.117920,765.731995 579.747070,757.126953 580.323669,748.582520 
	C580.587769,744.669800 578.915833,743.870728 575.981995,743.664246 
	C574.345581,743.549072 572.678711,743.867432 570.399353,743.987549 
	C570.070190,744.186951 569.741089,744.386292 569.411987,744.585693 
	C569.950073,744.788391 570.488098,744.991028 571.008789,745.716553 
	C571.014343,746.065186 571.019897,746.413879 570.625244,747.070862 
M407.214844,783.470276 
	C408.023315,783.642029 408.824982,783.914429 409.641357,783.969910 
	C417.070007,784.474609 417.076111,784.455994 417.079559,776.900269 
	C417.083344,768.589355 417.092499,760.278381 417.889099,752.002441 
	C421.642822,752.029663 422.038330,754.551147 422.010437,757.465576 
	C421.936188,765.216064 422.037537,772.971191 421.794281,780.715820 
	C421.684692,784.204529 423.898560,784.035767 426.039917,783.933899 
	C428.195190,783.831360 431.118561,784.517395 431.113312,780.833984 
	C431.099243,771.019409 431.124084,761.203003 430.938477,751.391113 
	C430.867950,747.662842 428.719299,744.671997 425.050964,744.357971 
	C419.166412,743.854248 413.207184,744.222961 406.457855,744.222961 
	C406.457855,757.476807 406.457855,770.235962 407.214844,783.470276 
M231.324692,768.546814 
	C231.879654,772.101440 232.738220,775.641846 232.906311,779.214661 
	C233.083069,782.971558 234.899628,783.992065 238.294968,784.043274 
	C241.757721,784.095398 242.611206,782.470459 242.203888,779.418091 
	C242.030594,778.119568 242.004562,776.759216 242.180435,775.463440 
	C242.991348,769.489136 239.910141,763.844849 242.236404,757.390137 
	C244.666351,750.647644 240.549103,744.515015 234.862274,743.942322 
	C229.554260,743.407715 224.150085,743.828003 219.062958,743.828003 
	C219.062958,757.215515 219.062958,770.153870 219.489578,783.611938 
	C222.136719,783.754883 224.783859,783.897766 228.025833,784.072815 
	C228.025833,778.422791 228.025833,773.665100 228.005402,768.684998 
	C228.005402,768.684998 227.947617,768.469177 228.636505,768.183899 
	C229.372375,768.102783 230.108231,768.021729 231.324692,768.546814 
M739.855896,749.101807 
	C737.854919,745.441162 735.301025,742.969116 730.663269,744.568420 
	C729.971497,744.807007 729.029114,744.738037 728.331177,744.472961 
	C723.018250,742.454773 717.392456,745.540405 717.129150,751.164917 
	C716.766052,758.922424 717.101746,766.710083 716.901062,774.478699 
	C716.751404,780.272705 720.498474,784.103394 728.355164,784.829529 
	C733.868347,785.339050 738.178223,782.530701 740.619751,776.470642 
	C740.747375,771.081238 741.028442,765.689575 740.947998,760.303284 
	C740.895447,756.787598 740.318176,753.279724 739.855896,749.101807 
M499.018738,612.620728 
	C499.018738,623.690308 499.018738,634.759888 499.018738,645.965393 
	C506.293213,645.965393 512.785522,646.114929 519.267456,645.919678 
	C524.793213,645.753296 529.975098,643.817993 531.688354,638.245972 
	C533.150940,633.489319 532.406372,628.435425 528.350586,626.320679 
	C529.243896,622.694946 531.407532,619.025208 530.435913,616.624146 
	C529.078247,613.268982 525.763672,609.082397 522.608093,608.403137 
	C515.155823,606.799011 507.302734,607.056763 499.283264,606.540405 
	C499.168640,608.753662 499.093628,610.201416 499.018738,612.620728 
M208.029022,609.779236 
	C208.029022,621.673340 208.029022,633.567444 208.029022,645.949768 
	C214.614624,645.949768 221.065781,646.007690 227.515350,645.931335 
	C232.619568,645.870911 237.525314,644.917725 239.903076,639.721069 
	C242.393753,634.277527 241.185364,629.442749 236.232803,625.837646 
	C242.854416,618.026062 238.622955,609.806152 233.042252,608.836487 
	C225.164154,607.467651 217.012894,607.658630 208.973862,607.279846 
	C208.692078,607.266541 208.361389,608.290771 208.029022,609.779236 
M553.914734,644.968262 
	C556.493286,645.374390 559.058167,645.945190 561.652588,646.159241 
	C575.835022,647.328857 585.692139,636.277527 582.892090,622.720215 
	C580.514954,611.210266 573.722229,606.406921 561.774353,606.645447 
	C548.924927,606.902100 540.573608,617.260132 542.622620,630.127258 
	C543.699280,636.888000 548.049988,641.015503 553.914734,644.968262 
M784.027649,619.483276 
	C786.387939,618.207153 788.748169,616.931030 791.246155,615.580383 
	C786.800171,608.208801 780.352722,606.572815 772.803040,607.001160 
	C759.954651,607.730103 751.276306,620.728088 756.023193,633.592041 
	C759.824219,643.892822 771.808411,649.305054 782.191650,645.786621 
	C786.265869,644.406067 791.263977,642.835876 791.731262,637.152588 
	C792.043762,633.351379 792.003174,629.507385 791.857422,625.692566 
	C791.824036,624.818115 790.734314,623.267700 790.088440,623.245300 
	C784.469666,623.050354 778.841187,623.132812 773.405823,623.132812 
	C773.405823,626.424072 773.405823,629.149780 773.405823,632.103882 
	C776.436462,632.103882 779.077393,632.103882 783.337830,632.103882 
	C781.363220,634.347473 780.457825,636.113098 779.020386,636.875183 
	C774.179565,639.441345 768.866943,637.802917 766.236938,631.792419 
	C764.851685,628.626465 765.133972,623.858765 766.544800,620.638672 
	C767.536316,618.375610 771.679871,616.370728 774.455261,616.317993 
	C777.419189,616.261597 780.429199,618.634277 784.027649,619.483276 
M464.037628,614.568237 
	C455.507172,604.308472 443.968842,607.684143 433.297241,607.050842 
	C433.297241,621.376282 433.297241,634.994446 433.297241,647.758240 
	C435.260284,647.145691 437.128967,646.237915 439.071564,646.033813 
	C441.867493,645.740112 444.736816,646.171509 447.539825,645.913330 
	C453.357361,645.377625 458.935089,644.347229 463.181061,639.550049 
	C470.157898,631.667603 469.012390,623.525452 464.037628,614.568237 
M339.508301,639.011658 
	C343.985657,645.819397 350.548126,646.530457 358.015472,646.098938 
	C368.377319,645.500061 375.416077,637.075439 375.897583,627.771179 
	C376.518799,615.766052 367.440216,606.199280 353.675507,606.891357 
	C344.703644,607.342468 339.377075,612.151733 336.283813,619.662354 
	C333.607208,626.161316 334.031647,632.780701 339.508301,639.011658 
M634.008423,633.204285 
	C639.116211,618.707031 627.510132,605.172729 611.154663,607.130432 
	C601.978210,608.228943 595.663147,613.997437 594.159912,624.604126 
	C592.859375,633.780640 598.068970,641.804382 605.661743,644.593445 
	C616.798645,648.684387 627.619019,646.386047 634.008423,633.204285 
M670.897278,645.956116 
	C673.763000,645.956116 676.628723,645.956116 679.837341,645.956116 
	C678.013611,637.495117 675.977234,630.439758 668.732483,626.255920 
	C673.122803,620.366455 678.135254,615.113953 677.817078,606.998108 
	C675.673828,606.998108 673.865173,607.005371 672.056641,606.996460 
	C669.119812,606.981995 666.987793,606.710754 666.661011,611.293701 
	C666.230835,617.325378 660.815063,621.794556 656.373779,621.694641 
	C655.975403,618.651611 654.548706,615.278870 655.396484,612.635437 
	C657.073975,607.404663 654.763794,606.814880 650.706604,606.995483 
	C649.266663,607.059570 647.821594,607.005737 646.204346,607.005737 
	C646.204346,620.196594 646.204346,632.927673 646.204346,645.626343 
	C647.442810,645.878479 648.483337,646.090393 649.938782,646.386719 
	C648.754272,646.923767 648.051819,647.242249 647.349365,647.560791 
	C647.396851,647.817993 647.444336,648.075195 647.491821,648.332397 
	C649.925720,648.332397 652.359558,648.332397 655.513672,648.332397 
	C654.290222,647.480408 653.493958,646.925903 652.624695,646.320557 
	C654.025452,645.944519 655.225830,645.622253 656.209534,645.358215 
	C656.209534,640.718201 656.209534,636.474121 656.209534,630.889160 
	C659.417725,632.455322 662.656616,633.067993 664.222168,635.021606 
	C666.741150,638.164795 668.155273,642.193420 670.897278,645.956116 
M261.604431,645.959656 
	C266.769989,645.959778 271.953125,645.694092 277.096191,646.034302 
	C282.302917,646.378723 280.427917,642.419128 280.872803,640.160461 
	C281.440582,637.277649 279.474396,636.854614 276.944244,636.958618 
	C272.026520,637.160706 267.094604,637.017761 261.566803,637.017761 
	C264.043152,626.763977 272.315399,631.561584 277.557678,629.544250 
	C278.533997,622.025146 278.514435,622.002075 271.062103,621.999451 
	C268.115387,621.998413 265.168701,621.999268 261.948761,621.999268 
	C262.059326,619.654053 262.140625,617.928833 262.247833,615.654846 
	C268.580750,615.654846 274.472137,615.654846 280.325714,615.654846 
	C280.325714,612.648987 280.325714,610.225037 280.325714,607.049744 
	C271.505676,607.049744 262.763550,607.007629 254.023911,607.135681 
	C253.376114,607.145142 252.181259,608.391846 252.197144,609.039917 
	C252.327591,614.364624 252.822021,619.680786 252.938232,625.005310 
	C253.083145,631.645569 252.973038,638.291321 252.973038,645.959778 
	C255.208420,645.959778 257.926880,645.959778 261.604431,645.959656 
M412.143982,645.930542 
	C415.046783,645.930542 417.949554,645.930542 419.852844,645.930542 
	C420.157990,641.079407 420.771606,636.881165 420.598602,632.715515 
	C420.364197,627.071899 420.654510,621.022156 418.703003,615.917603 
	C415.118134,606.540710 405.797577,605.662476 397.057098,607.581055 
	C389.534088,609.232422 386.024445,614.509155 386.002197,622.217468 
	C385.984955,628.202698 385.917633,634.188171 385.956787,640.173035 
	C385.968994,642.038269 385.991241,645.432068 386.461090,645.513428 
	C389.162262,645.980896 392.130402,646.112610 394.716339,645.358337 
	C395.573883,645.108154 395.852478,641.902283 395.902374,640.034546 
	C396.058289,634.193604 396.095612,628.343567 395.954254,622.502441 
	C395.836243,617.624817 398.877930,616.320068 402.830322,616.020874 
	C406.926056,615.710693 409.426239,617.737976 409.970581,621.789734 
	C410.468628,625.496704 410.539246,629.261230 411.043671,632.967041 
	C411.621521,637.212891 409.352722,641.505737 412.143982,645.930542 
M713.039856,613.811157 
	C708.451721,624.263306 712.214111,635.080322 710.775818,645.619873 
	C714.721191,645.619873 717.786072,645.619873 719.812622,645.619873 
	C720.219727,637.217834 720.560425,629.195251 721.018188,621.179382 
	C721.230957,617.452637 723.953857,616.615540 727.057312,616.313599 
	C730.292725,615.998840 733.673035,616.142334 734.346313,619.963806 
	C735.118164,624.344604 735.843323,629.036072 735.078369,633.323059 
	C733.415833,642.639587 735.572937,646.264954 743.890686,645.841614 
	C744.161011,645.827881 744.416748,645.526062 744.980530,645.166260 
	C744.980530,637.373474 745.390015,629.369141 744.790649,621.441101 
	C744.529724,617.989563 742.946655,614.030762 740.663452,611.455261 
	C734.281555,604.256470 721.115540,605.340820 713.039856,613.811157 
M358.760590,771.151855 
	C357.203369,766.572388 356.915161,762.268677 358.424194,757.307861 
	C360.979309,748.908264 356.464966,743.774353 347.805939,744.038025 
	C343.868286,744.157837 339.940582,744.604675 335.576355,744.935974 
	C335.409454,745.988831 335.042938,747.249451 335.036072,748.512024 
	C334.985962,757.693481 335.005981,766.875244 335.009949,776.056946 
	C335.010590,777.554138 335.015747,779.052063 335.062988,780.548279 
	C335.182007,784.319092 337.887177,784.196655 340.419525,783.849182 
	C343.369415,783.444397 344.148071,781.509338 343.413696,778.740173 
	C342.871063,776.694092 341.846527,774.480408 342.223114,772.576050 
	C342.544739,770.949585 344.757904,768.345642 345.774017,768.502869 
	C347.617310,768.788086 349.928436,770.483276 350.674774,772.189148 
	C351.434753,773.926147 350.670715,776.404602 350.345581,778.523376 
	C349.913727,781.337402 350.146637,783.580078 353.641083,783.925537 
	C356.915497,784.249146 358.766479,782.806946 358.897217,779.490967 
	C358.995331,777.001099 358.897034,774.503479 358.760590,771.151855 
M653.500610,783.825317 
	C655.689453,783.437622 657.878296,783.049866 660.192322,782.639954 
	C656.777283,775.090881 657.270569,767.961426 659.423767,761.184265 
	C662.432495,751.714600 658.990845,743.962769 650.590271,743.471802 
	C646.342407,743.223511 642.068054,743.428406 637.105286,743.428406 
	C637.105286,756.269226 636.949646,768.710022 637.199768,781.142761 
	C637.275146,784.892029 640.699524,784.118958 643.023438,783.767090 
	C645.970703,783.320862 646.036377,781.417297 645.039490,778.900696 
	C644.331116,777.112488 644.149719,775.054443 644.052673,773.101013 
	C643.937866,770.786804 643.718811,768.100037 647.269165,768.123779 
	C650.490479,768.145325 650.633057,770.218201 650.798096,772.884888 
	C651.022278,776.506836 652.043823,780.079346 653.500610,783.825317 
M315.089111,617.484253 
	C312.988922,620.959717 310.888733,624.435181 307.931000,629.329712 
	C304.885498,623.373474 301.920593,618.557007 299.894928,613.373535 
	C297.137756,606.318176 296.823334,605.866699 288.980713,607.764343 
	C289.059845,615.892273 291.905518,623.220703 297.032043,629.239136 
	C301.068298,633.977539 304.106476,638.556458 303.173859,644.992493 
	C303.141907,645.213196 303.534882,645.495361 303.738800,645.737183 
	C307.028259,645.737183 310.317719,645.737183 314.072876,645.737183 
	C312.585541,639.566467 314.496796,634.595398 318.363007,630.061829 
	C320.232117,627.870117 321.778625,625.292236 322.976898,622.663757 
	C325.100006,618.006592 326.845795,613.177368 329.067749,607.624817 
	C325.357819,607.430420 321.923370,607.250427 318.501678,607.071106 
	C317.515472,610.417725 316.561188,613.656006 315.089111,617.484253 
M181.602081,744.709961 
	C180.068680,747.481018 177.457626,750.160339 177.212189,753.041138 
	C176.579361,760.468994 176.883453,767.988037 177.023666,775.466675 
	C177.130753,781.178955 181.490997,784.063110 187.059479,782.497192 
	C188.289886,782.151184 189.691971,782.135010 190.973099,782.297546 
	C197.541336,783.130493 201.005432,780.341614 200.731308,773.657349 
	C200.667770,772.108093 198.787216,769.936096 197.237106,769.317261 
	C195.190521,768.500122 192.710312,768.613281 191.882111,771.954895 
	C191.539413,773.337708 189.748367,774.361511 188.616058,775.548584 
	C187.093384,774.021729 184.550842,772.668335 184.255646,770.932739 
	C183.596298,767.056274 183.451874,762.860046 184.266022,759.043213 
	C184.853241,756.290100 187.166840,751.965820 188.987274,751.820984 
	C192.720245,751.523865 191.320450,755.880798 192.167389,758.329346 
	C192.669708,759.781494 194.637817,761.871277 195.693878,761.733643 
	C197.526810,761.494751 200.507141,759.874390 200.622818,758.614380 
	C200.931351,755.253662 200.485703,751.587708 199.318848,748.419006 
	C198.654831,746.615906 196.124893,744.631531 194.195679,744.345764 
	C190.332916,743.773499 186.305542,744.312317 181.602081,744.709961 
M688.986633,638.342224 
	C689.374573,641.560669 689.762512,644.779114 690.035400,647.042908 
	C693.460693,646.403503 696.043457,645.921387 698.719666,645.421814 
	C698.719666,632.747925 698.719666,620.059692 698.719666,607.013123 
	C697.490173,607.013123 696.530151,607.022583 695.570374,607.011597 
	C688.978271,606.935791 688.995361,606.934448 689.001587,613.501160 
	C689.009094,621.460266 688.984009,629.419312 688.986633,638.342224 
M691.687134,759.529968 
	C691.687134,754.156067 691.687134,748.782166 691.687134,743.774963 
	C691.002014,749.209351 690.265808,755.049683 689.547363,760.748291 
	C689.517761,760.757996 690.400574,760.467651 691.687134,759.529968 
z"/>
<path fill="#4F70FE" opacity="1.000000" stroke="none" 
	d="
M639.931274,321.736694 
	C639.937500,321.434784 640.068420,321.203461 640.884277,320.940002 
	C642.754700,319.654938 644.665161,318.720032 645.272095,317.247742 
	C648.027649,310.563904 650.415649,303.728546 652.948608,296.482483 
	C652.968018,279.437866 653.267212,262.851135 652.853394,246.282227 
	C652.657471,238.437943 651.644043,230.457870 645.886536,223.872589 
	C645.394409,223.474182 645.090393,223.274643 644.786377,223.075104 
	C644.786377,223.075119 644.885742,223.084229 644.886597,222.759689 
	C644.279358,218.400070 641.495911,216.768005 637.862000,216.075455 
	C637.862000,216.075455 637.959412,216.064667 637.806885,215.800018 
	C633.099365,213.445450 628.712219,210.196335 623.954407,209.507629 
	C614.134521,208.086151 604.366333,208.881287 597.034180,217.157654 
	C597.034180,217.157654 597.034912,217.034363 596.878906,217.189224 
	C596.494568,217.613831 596.266235,217.883575 596.037842,218.153336 
	C596.037842,218.153336 596.062988,218.072357 595.766357,218.155060 
	C594.604065,219.633743 593.738464,221.029724 592.872803,222.425690 
	C592.872803,222.425690 592.785461,222.738266 592.306274,222.800858 
	C590.816772,224.072556 589.423828,225.128403 588.867004,226.519058 
	C587.104614,230.920456 585.654785,235.447037 584.067444,240.398300 
	C584.036133,264.781555 584.004333,288.691742 584.041260,312.601807 
	C584.044067,314.387085 584.539001,316.171600 584.805115,317.956421 
	C584.500732,318.261932 584.196960,318.834167 583.891907,318.834839 
	C564.768311,318.877228 545.644592,318.872955 526.006470,318.872955 
	C526.006470,316.835541 526.006592,315.056458 526.006470,313.277344 
	C526.005127,288.281616 525.135315,263.246338 526.271240,238.302383 
	C527.217468,217.525116 533.403809,198.197952 548.133911,182.179886 
	C563.356384,165.626343 582.285950,157.774094 604.058472,154.938065 
	C627.617615,151.869339 649.951538,155.737259 670.890259,166.574829 
	C690.674927,176.815079 703.498352,193.042740 710.277832,214.404480 
	C714.038940,226.255539 715.286865,238.197601 715.138916,250.476471 
	C714.972412,264.293549 715.774780,278.166595 714.793823,291.918121 
	C713.610535,308.505188 708.876648,324.114227 698.116577,337.499329 
	C692.016174,345.087982 684.864502,350.907440 675.907227,354.649994 
	C674.748230,355.134247 673.982544,356.559967 673.034668,357.549591 
	C673.938538,358.354431 674.725891,359.377441 675.763550,359.931885 
	C696.821716,371.183746 708.916321,389.087402 712.778381,412.182617 
	C714.708801,423.726471 714.376587,435.654541 714.972595,447.413666 
	C715.395081,455.748657 715.950562,464.092133 715.938232,472.431061 
	C715.898865,499.076508 713.308777,525.139648 695.512451,546.876587 
	C686.607361,557.753601 674.905334,564.872925 661.937134,569.913147 
	C655.568359,572.388367 649.064392,574.548523 642.525146,576.533569 
	C640.358887,577.191162 637.888245,576.813782 635.561951,576.981323 
	C615.492676,578.426819 595.789673,577.681274 576.856506,569.503357 
	C558.712341,561.666199 545.144836,549.149292 536.300659,531.622925 
	C531.060120,521.237915 527.609802,509.935059 527.234070,498.455780 
	C526.244507,468.223785 526.331421,437.956268 526.022644,407.702515 
	C525.951355,400.713318 526.012146,393.722748 526.012146,386.352661 
	C517.447571,386.352661 509.054565,386.352661 499.997284,386.352661 
	C499.997284,387.995972 499.997253,389.757446 499.997284,391.518921 
	C499.997833,422.680237 500.212616,453.843597 499.916351,485.002075 
	C499.745880,502.932709 496.783997,520.388489 487.923096,536.385132 
	C479.794006,551.060608 467.858032,561.325439 452.597687,568.248169 
	C440.347870,573.805176 427.643738,576.049683 414.333496,577.254395 
	C400.990509,578.462036 388.114166,576.881165 375.515442,573.511353 
	C352.444275,567.340393 333.817474,554.612488 321.921967,533.336060 
	C316.091125,522.906921 313.086121,511.453064 311.100769,499.763519 
	C310.334900,495.254120 310.125305,490.614197 310.063965,486.028381 
	C309.919800,475.249176 310.016846,464.466705 310.017731,453.685577 
	C310.018494,444.518494 309.682068,435.336334 310.087799,426.187164 
	C311.237335,400.264923 321.069458,378.670624 342.632690,363.273621 
	C345.779388,361.026794 349.297546,359.300232 352.994537,357.126678 
	C350.088867,355.689209 347.160522,354.382690 344.365784,352.834930 
	C325.635040,342.461609 316.877106,325.214233 312.065735,305.399139 
	C307.804047,287.847870 308.973877,269.925568 309.053345,252.111481 
	C309.117798,237.664444 310.781158,223.392410 316.011292,209.777740 
	C324.694519,187.174194 339.842529,170.909592 362.642334,161.938370 
	C377.008575,156.285553 391.764008,153.530045 407.193024,153.992889 
	C435.053223,154.828629 459.638397,163.507080 478.264862,184.979691 
	C488.427216,196.694885 494.485931,210.734070 497.007507,226.184998 
	C502.171722,257.828644 499.209076,289.718018 499.985077,321.493774 
	C500.041321,323.796722 499.992401,326.102234 499.992401,329.236023 
	C528.410889,329.236023 556.500061,329.236023 585.164856,329.835693 
	C597.497253,330.620239 609.253906,330.805115 621.404419,330.964203 
	C624.194092,330.374390 626.858032,330.292480 628.928101,329.142059 
	C632.778503,327.002289 636.282837,324.239899 639.931274,321.736694 
M382.046265,509.965576 
	C382.046265,509.965576 382.076965,509.849152 382.243011,510.473175 
	C382.886536,510.970093 383.530029,511.467010 384.589264,512.064514 
	C384.874268,512.200378 385.030579,512.425598 385.212402,513.428162 
	C386.104431,514.375916 386.872528,515.494812 387.907898,516.244507 
	C396.595734,522.535583 406.555969,521.829285 416.184509,520.244873 
	C419.737885,519.660156 425.001892,518.869385 426.267578,513.195923 
	C426.267578,513.195923 426.576569,513.167603 426.915558,513.095947 
	C427.140717,512.983826 427.260071,512.802307 427.322205,512.321899 
	C427.322205,512.321899 427.553040,512.279541 428.243774,512.444092 
	C433.210205,510.012573 437.577393,502.857574 437.065613,497.455994 
	C437.413605,496.632843 437.761566,495.809692 438.653168,494.504913 
	C439.421692,490.492004 440.853790,486.480225 440.860596,482.466034 
	C440.992950,404.412354 441.000366,326.358337 440.863525,248.304672 
	C440.854614,243.221359 440.160095,237.906433 438.525940,233.129837 
	C437.129761,229.048859 433.923706,225.587082 431.240112,221.725906 
	C431.240112,221.725906 431.153412,221.433365 431.191956,220.772675 
	C429.405579,219.233154 427.619171,217.693634 425.966064,216.019745 
	C425.966064,216.019745 425.854858,216.172699 425.683136,215.503677 
	C424.000183,214.254684 422.481873,212.612671 420.605103,211.826279 
	C413.344391,208.783966 405.813660,208.122681 397.689911,210.308395 
	C397.417450,210.488586 397.191223,210.714951 397.000824,210.997604 
	C397.000824,210.997604 396.989227,211.006134 396.338623,211.025360 
	C395.553406,211.340424 394.768188,211.655487 393.318237,212.095657 
	C392.287964,212.860657 391.257721,213.625656 390.213379,214.292282 
	C390.213379,214.292282 390.311859,214.305511 389.612213,214.282806 
	C388.683960,215.043961 387.755737,215.805130 386.736450,216.792480 
	C386.736450,216.792480 386.493439,216.812317 385.816833,216.772675 
	C383.938995,218.929932 382.061188,221.087189 380.170715,223.130371 
	C380.170715,223.130371 380.285431,223.134109 379.617157,223.383194 
	C373.703522,229.778442 372.347137,237.902328 372.122070,245.985779 
	C371.677399,261.958466 371.899597,277.953156 372.070068,293.936310 
	C372.099060,296.656982 373.243622,299.365753 374.002350,302.433014 
	C374.002350,302.433014 374.029694,302.808075 374.020325,303.629608 
	C375.018768,308.422943 375.282715,313.596008 380.766876,316.296631 
	C380.766876,316.296631 380.804596,316.561096 380.608765,317.251282 
	C381.495361,318.149597 382.381958,319.047943 383.669830,320.043671 
	C383.931824,320.196167 384.068024,320.423889 384.222107,321.364868 
	C384.857452,321.889069 385.492828,322.413269 386.036530,322.944489 
	C386.036530,322.944489 386.034576,322.852600 386.349365,323.475555 
	C388.527802,324.918915 390.527924,327.044220 392.920227,327.669739 
	C398.655334,329.169312 404.548492,330.684082 410.424957,330.897888 
	C423.937042,331.389496 423.953674,331.076355 423.967468,344.800140 
	C423.976837,354.111603 424.022552,363.423492 423.955536,372.734467 
	C423.864227,385.424896 425.520996,383.997986 412.890503,383.932312 
	C405.078613,383.891663 397.640320,385.066925 390.884979,389.128265 
	C389.648926,389.871399 388.870453,391.375671 387.765381,392.787567 
	C387.765381,392.787567 387.484711,392.827667 386.813080,392.775940 
	C385.478455,394.349152 384.143860,395.922363 382.754150,397.737213 
	C382.754150,397.737213 382.514862,397.801727 381.842468,397.787781 
	C380.468689,399.373108 378.390656,400.748535 377.844666,402.580566 
	C375.636719,409.989166 372.557678,417.484253 372.252625,425.046326 
	C371.468414,444.485992 371.659760,463.987305 372.181854,483.444641 
	C372.351624,489.770508 374.623505,496.069397 376.231232,502.303955 
	C376.578552,503.650879 378.205902,504.667725 379.160522,505.850281 
	C379.160522,505.850281 379.182709,505.768982 379.167969,506.480682 
	C379.857300,507.273041 380.546631,508.065399 381.089539,508.894897 
	C381.089539,508.894897 381.062653,508.746277 381.365051,509.216278 
	C381.631256,509.474854 381.897491,509.733429 382.046265,509.965576 
M643.727966,398.667358 
	C643.302246,398.355591 642.876465,398.043823 642.256531,397.707062 
	C642.256531,397.707062 642.238647,397.511993 642.305359,396.905701 
	C641.878357,396.246826 641.451355,395.587982 640.725830,394.389496 
	C640.003296,394.175903 639.280823,393.962311 638.339233,393.708740 
	C638.339233,393.708740 638.275513,393.495422 638.155945,392.972015 
	C637.722534,392.682190 637.289062,392.392334 636.928711,392.076447 
	C636.928711,392.076447 636.904114,392.150085 636.678772,391.515259 
	C635.735535,391.053009 634.792358,390.590759 633.938232,390.101257 
	C633.938232,390.101257 633.962769,390.191193 633.525330,389.754761 
	C632.950073,389.559998 632.374817,389.365234 631.876831,389.160645 
	C631.876831,389.160645 631.881836,389.238373 631.535461,388.613251 
	C626.578796,387.092072 621.695068,384.652069 616.649414,384.251129 
	C607.623962,383.533966 598.498840,383.947418 589.420166,384.126648 
	C587.617004,384.162262 585.835022,385.269226 584.013672,386.842926 
	C584.028198,420.912079 584.042725,454.981262 584.151978,489.554779 
	C584.364075,490.017242 584.576172,490.479736 584.901245,491.780640 
	C586.949219,496.469421 588.997192,501.158234 591.643677,506.178528 
	C594.790283,509.366638 597.936890,512.554810 601.257385,516.433960 
	C602.133545,517.128967 602.913635,518.034058 603.901123,518.485718 
	C612.109985,522.240295 620.717590,522.122742 629.040588,519.628052 
	C633.007019,518.439209 636.328369,515.097778 640.057434,512.330444 
	C640.226135,512.078430 640.462158,511.948944 641.226624,511.607239 
	C641.464600,511.313080 641.702576,511.018890 642.021973,510.337616 
	C642.153198,510.074860 642.365540,509.937469 643.374634,509.783386 
	C644.497742,507.766479 645.620911,505.749573 646.876465,503.885742 
	C646.876465,503.885742 646.714355,503.764618 647.410767,503.646362 
	C648.203369,502.487823 649.331848,501.432709 649.726318,500.151581 
	C650.960327,496.143341 651.917297,492.049805 652.989441,487.054260 
	C652.987000,466.038696 652.984558,445.023163 652.998291,423.135498 
	C651.533813,416.956879 650.185364,410.746246 648.499451,404.628662 
	C648.190613,403.508026 646.509583,402.765533 645.203247,401.726074 
	C645.203247,401.726074 645.165833,401.442322 645.229004,400.837952 
	C644.733154,400.256775 644.237366,399.675568 643.863586,399.097656 
	C643.863586,399.097656 643.856262,399.219482 643.727966,398.667358 
z"/>
<path fill="#516FFC" opacity="1.000000" stroke="none" 
	d="
M499.018677,612.135010 
	C499.093628,610.201416 499.168640,608.753662 499.283264,606.540405 
	C507.302734,607.056763 515.155823,606.799011 522.608093,608.403137 
	C525.763672,609.082397 529.078247,613.268982 530.435913,616.624146 
	C531.407532,619.025208 529.243896,622.694946 528.350586,626.320679 
	C532.406372,628.435425 533.150940,633.489319 531.688354,638.245972 
	C529.975098,643.817993 524.793213,645.753296 519.267456,645.919678 
	C512.785522,646.114929 506.293213,645.965393 499.018738,645.965393 
	C499.018738,634.759888 499.018738,623.690308 499.018677,612.135010 
M516.910461,637.970459 
	C517.339355,637.744202 517.774902,637.310608 518.196167,637.324158 
	C521.948547,637.444519 522.261658,634.614807 521.627991,632.342529 
	C521.315857,631.223267 518.732971,630.333923 517.067688,630.089417 
	C514.524658,629.716003 511.886292,629.991516 509.307007,629.991516 
	C509.307007,632.980530 509.307007,635.375488 509.307007,638.006104 
	C511.760376,638.006104 513.900513,638.006104 516.910461,637.970459 
M510.987183,616.964294 
	C507.322479,617.597473 509.504089,619.991638 509.021912,622.141052 
	C513.427917,621.187073 518.187195,624.172424 521.121338,618.853210 
	C518.479797,615.113464 515.010864,615.174927 510.987183,616.964294 
z"/>
<path fill="#506EFB" opacity="1.000000" stroke="none" 
	d="
M208.041260,609.305359 
	C208.361389,608.290771 208.692078,607.266541 208.973862,607.279846 
	C217.012894,607.658630 225.164154,607.467651 233.042252,608.836487 
	C238.622955,609.806152 242.854416,618.026062 236.232803,625.837646 
	C241.185364,629.442749 242.393753,634.277527 239.903076,639.721069 
	C237.525314,644.917725 232.619568,645.870911 227.515350,645.931335 
	C221.065781,646.007690 214.614624,645.949768 208.029022,645.949768 
	C208.029022,633.567444 208.029022,621.673340 208.041260,609.305359 
M221.544907,638.021606 
	C223.957718,637.681519 226.413391,637.510132 228.761047,636.913635 
	C229.630615,636.692749 230.932968,635.365967 230.833954,634.731384 
	C230.632126,633.437805 229.796951,631.395630 228.897949,631.206665 
	C225.225937,630.434814 221.431519,630.245239 217.507324,629.822388 
	C217.733383,632.662109 217.609039,634.475342 218.117630,636.089172 
	C218.378403,636.916626 219.770172,637.387634 221.544907,638.021606 
M217.829971,621.912720 
	C220.316772,621.948059 222.859741,622.308411 225.268478,621.892090 
	C226.627914,621.657104 227.766434,620.143860 229.004440,619.206421 
	C227.898788,618.195862 226.903717,616.516785 225.664795,616.311829 
	C222.974228,615.866821 220.159119,616.174622 217.137024,616.174622 
	C217.137024,618.065613 217.137024,619.686157 217.829971,621.912720 
z"/>
<path fill="#516FFC" opacity="1.000000" stroke="none" 
	d="
M553.546875,644.837158 
	C548.049988,641.015503 543.699280,636.888000 542.622620,630.127258 
	C540.573608,617.260132 548.924927,606.902100 561.774353,606.645447 
	C573.722229,606.406921 580.514954,611.210266 582.892090,622.720215 
	C585.692139,636.277527 575.835022,647.328857 561.652588,646.159241 
	C559.058167,645.945190 556.493286,645.374390 553.546875,644.837158 
M569.469421,635.032471 
	C573.252869,630.943604 574.198975,624.332520 571.602905,620.124756 
	C569.590881,616.863647 564.038513,614.823364 559.606995,616.182739 
	C554.415405,617.775208 552.811646,621.654480 552.881348,626.955383 
	C552.930969,630.727417 553.789368,633.939941 556.825073,635.867859 
	C560.711121,638.335571 564.977051,639.032043 569.469421,635.032471 
z"/>
<path fill="#506EFB" opacity="1.000000" stroke="none" 
	d="
M783.723389,619.714966 
	C780.429199,618.634277 777.419189,616.261597 774.455261,616.317993 
	C771.679871,616.370728 767.536316,618.375610 766.544800,620.638672 
	C765.133972,623.858765 764.851685,628.626465 766.236938,631.792419 
	C768.866943,637.802917 774.179565,639.441345 779.020386,636.875183 
	C780.457825,636.113098 781.363220,634.347473 783.337830,632.103882 
	C779.077393,632.103882 776.436462,632.103882 773.405823,632.103882 
	C773.405823,629.149780 773.405823,626.424072 773.405823,623.132812 
	C778.841187,623.132812 784.469666,623.050354 790.088440,623.245300 
	C790.734314,623.267700 791.824036,624.818115 791.857422,625.692566 
	C792.003174,629.507385 792.043762,633.351379 791.731262,637.152588 
	C791.263977,642.835876 786.265869,644.406067 782.191650,645.786621 
	C771.808411,649.305054 759.824219,643.892822 756.023193,633.592041 
	C751.276306,620.728088 759.954651,607.730103 772.803040,607.001160 
	C780.352722,606.572815 786.800171,608.208801 791.246155,615.580383 
	C788.748169,616.931030 786.387939,618.207153 783.723389,619.714966 
z"/>
<path fill="#516FFC" opacity="1.000000" stroke="none" 
	d="
M464.306305,614.833130 
	C469.012390,623.525452 470.157898,631.667603 463.181061,639.550049 
	C458.935089,644.347229 453.357361,645.377625 447.539825,645.913330 
	C444.736816,646.171509 441.867493,645.740112 439.071564,646.033813 
	C437.128967,646.237915 435.260284,647.145691 433.297241,647.758240 
	C433.297241,634.994446 433.297241,621.376282 433.297241,607.050842 
	C443.968842,607.684143 455.507172,604.308472 464.306305,614.833130 
M453.542664,635.222656 
	C457.762817,631.823730 459.116302,626.922302 457.098602,622.345520 
	C454.644623,616.779053 451.324585,615.350891 443.231506,616.482422 
	C443.231506,623.182800 443.231506,629.907043 443.231506,637.544312 
	C446.713379,636.898071 449.815643,636.322205 453.542664,635.222656 
z"/>
<path fill="#516FFC" opacity="1.000000" stroke="none" 
	d="
M339.245361,638.738342 
	C334.031647,632.780701 333.607208,626.161316 336.283813,619.662354 
	C339.377075,612.151733 344.703644,607.342468 353.675507,606.891357 
	C367.440216,606.199280 376.518799,615.766052 375.897583,627.771179 
	C375.416077,637.075439 368.377319,645.500061 358.015472,646.098938 
	C350.548126,646.530457 343.985657,645.819397 339.245361,638.738342 
M344.997101,627.302795 
	C346.341125,634.356201 350.016296,638.079285 355.551086,637.994324 
	C360.891479,637.912292 366.049133,632.216492 366.010040,626.444153 
	C365.972839,620.951965 361.128906,616.041687 355.709167,616.002319 
	C348.653534,615.951111 345.163177,619.357239 344.997101,627.302795 
z"/>
<path fill="#516FFC" opacity="1.000000" stroke="none" 
	d="
M633.991272,633.614624 
	C627.619019,646.386047 616.798645,648.684387 605.661743,644.593445 
	C598.068970,641.804382 592.859375,633.780640 594.159912,624.604126 
	C595.663147,613.997437 601.978210,608.228943 611.154663,607.130432 
	C627.510132,605.172729 639.116211,618.707031 633.991272,633.614624 
M624.027527,623.551941 
	C623.913696,619.562073 621.579468,617.156677 618.041870,616.132202 
	C612.915466,614.647583 607.060791,617.095764 605.449280,621.025024 
	C603.188538,626.537109 604.902588,634.485352 609.401062,636.687439 
	C613.346436,638.618591 617.824402,638.252563 621.095764,635.211304 
	C624.062805,632.453003 626.533447,628.917847 624.027527,623.551941 
z"/>
<path fill="#516FFC" opacity="1.000000" stroke="none" 
	d="
M670.466797,645.902039 
	C668.155273,642.193420 666.741150,638.164795 664.222168,635.021606 
	C662.656616,633.067993 659.417725,632.455322 656.209534,630.889160 
	C656.209534,636.474121 656.209534,640.718201 656.209534,645.358215 
	C655.225830,645.622253 654.025452,645.944519 652.624695,646.320557 
	C653.493958,646.925903 654.290222,647.480408 655.513672,648.332397 
	C652.359558,648.332397 649.925720,648.332397 647.491821,648.332397 
	C647.444336,648.075195 647.396851,647.817993 647.349365,647.560791 
	C648.051819,647.242249 648.754272,646.923767 649.938782,646.386719 
	C648.483337,646.090393 647.442810,645.878479 646.204346,645.626343 
	C646.204346,632.927673 646.204346,620.196594 646.204346,607.005737 
	C647.821594,607.005737 649.266663,607.059570 650.706604,606.995483 
	C654.763794,606.814880 657.073975,607.404663 655.396484,612.635437 
	C654.548706,615.278870 655.975403,618.651611 656.379944,621.693665 
	C660.815063,621.794556 666.230835,617.325378 666.661011,611.293701 
	C666.987793,606.710754 669.119812,606.981995 672.056641,606.996460 
	C673.865173,607.005371 675.673828,606.998108 677.817078,606.998108 
	C678.135254,615.113953 673.122803,620.366455 668.732483,626.255920 
	C675.977234,630.439758 678.013611,637.495117 679.837341,645.956116 
	C676.628723,645.956116 673.763000,645.956116 670.466797,645.902039 
z"/>
<path fill="#0A0A0B" opacity="1.000000" stroke="none" 
	d="
M739.992554,777.051514 
	C738.178223,782.530701 733.868347,785.339050 728.355164,784.829529 
	C720.498474,784.103394 716.751404,780.272705 716.901062,774.478699 
	C717.101746,766.710083 716.766052,758.922424 717.129150,751.164917 
	C717.392456,745.540405 723.018250,742.454773 728.331177,744.472961 
	C729.029114,744.738037 729.971497,744.807007 730.663269,744.568420 
	C735.301025,742.969116 737.854919,745.441162 739.916504,749.925964 
	C739.982178,759.517273 739.987366,768.284363 739.992554,777.051514 
z"/>
<path fill="#506EFB" opacity="1.000000" stroke="none" 
	d="
M261.124878,645.959717 
	C257.926880,645.959778 255.208420,645.959778 252.973038,645.959778 
	C252.973038,638.291321 253.083145,631.645569 252.938232,625.005310 
	C252.822021,619.680786 252.327591,614.364624 252.197144,609.039917 
	C252.181259,608.391846 253.376114,607.145142 254.023911,607.135681 
	C262.763550,607.007629 271.505676,607.049744 280.325714,607.049744 
	C280.325714,610.225037 280.325714,612.648987 280.325714,615.654846 
	C274.472137,615.654846 268.580750,615.654846 262.247833,615.654846 
	C262.140625,617.928833 262.059326,619.654053 261.948761,621.999268 
	C265.168701,621.999268 268.115387,621.998413 271.062103,621.999451 
	C278.514435,622.002075 278.533997,622.025146 277.557617,629.544128 
	C272.315399,631.561584 264.043152,626.763977 261.566803,637.017761 
	C267.094604,637.017761 272.026520,637.160706 276.944244,636.958618 
	C279.474396,636.854614 281.440582,637.277649 280.872803,640.160461 
	C280.427917,642.419128 282.302917,646.378723 277.096191,646.034302 
	C271.953125,645.694092 266.769989,645.959778 261.124878,645.959717 
z"/>
<path fill="#516FFC" opacity="1.000000" stroke="none" 
	d="
M411.747070,645.813660 
	C409.352722,641.505737 411.621521,637.212891 411.043671,632.967041 
	C410.539246,629.261230 410.468628,625.496704 409.970581,621.789734 
	C409.426239,617.737976 406.926056,615.710693 402.830322,616.020874 
	C398.877930,616.320068 395.836243,617.624817 395.954254,622.502441 
	C396.095612,628.343567 396.058289,634.193604 395.902374,640.034546 
	C395.852478,641.902283 395.573883,645.108154 394.716339,645.358337 
	C392.130402,646.112610 389.162262,645.980896 386.461090,645.513428 
	C385.991241,645.432068 385.968994,642.038269 385.956787,640.173035 
	C385.917633,634.188171 385.984955,628.202698 386.002197,622.217468 
	C386.024445,614.509155 389.534088,609.232422 397.057098,607.581055 
	C405.797577,605.662476 415.118134,606.540710 418.703003,615.917603 
	C420.654510,621.022156 420.364197,627.071899 420.598602,632.715515 
	C420.771606,636.881165 420.157990,641.079407 419.852844,645.930542 
	C417.949554,645.930542 415.046783,645.930542 411.747070,645.813660 
z"/>
<path fill="#516FFC" opacity="1.000000" stroke="none" 
	d="
M713.210815,613.470154 
	C721.115540,605.340820 734.281555,604.256470 740.663452,611.455261 
	C742.946655,614.030762 744.529724,617.989563 744.790649,621.441101 
	C745.390015,629.369141 744.980530,637.373474 744.980530,645.166260 
	C744.416748,645.526062 744.161011,645.827881 743.890686,645.841614 
	C735.572937,646.264954 733.415833,642.639587 735.078369,633.323059 
	C735.843323,629.036072 735.118164,624.344604 734.346313,619.963806 
	C733.673035,616.142334 730.292725,615.998840 727.057312,616.313599 
	C723.953857,616.615540 721.230957,617.452637 721.018188,621.179382 
	C720.560425,629.195251 720.219727,637.217834 719.812622,645.619873 
	C717.786072,645.619873 714.721191,645.619873 710.775818,645.619873 
	C712.214111,635.080322 708.451721,624.263306 713.210815,613.470154 
z"/>
<path fill="#0A0A0B" opacity="1.000000" stroke="none" 
	d="
M219.062958,783.092224 
	C219.062958,770.153870 219.062958,757.215515 219.062958,743.828003 
	C224.150085,743.828003 229.554260,743.407715 234.862274,743.942322 
	C240.549103,744.515015 244.666351,750.647644 242.236404,757.390137 
	C239.910141,763.844849 242.991348,769.489136 242.180435,775.463440 
	C242.004562,776.759216 242.030594,778.119568 242.203888,779.418091 
	C242.611206,782.470459 241.757721,784.095398 238.294968,784.043274 
	C234.899628,783.992065 233.083069,782.971558 232.906311,779.214661 
	C232.738220,775.641846 231.879654,772.101440 230.864471,768.039062 
	C229.585373,767.843933 228.766495,768.156555 227.947632,768.469238 
	C227.947617,768.469177 228.005402,768.684998 227.757019,769.130615 
	C227.356155,772.856689 227.528015,776.201294 226.898972,779.387756 
	C226.629974,780.750305 224.875015,782.157593 223.456314,782.852112 
	C222.243332,783.445862 220.546036,783.050232 219.062958,783.092224 
z"/>
<path fill="#0A0A0B" opacity="1.000000" stroke="none" 
	d="
M358.823395,771.580566 
	C358.897034,774.503479 358.995331,777.001099 358.897217,779.490967 
	C358.766479,782.806946 356.915497,784.249146 353.641083,783.925537 
	C350.146637,783.580078 349.913727,781.337402 350.345581,778.523376 
	C350.670715,776.404602 351.434753,773.926147 350.674774,772.189148 
	C349.928436,770.483276 347.617310,768.788086 345.774017,768.502869 
	C344.757904,768.345642 342.544739,770.949585 342.223114,772.576050 
	C341.846527,774.480408 342.871063,776.694092 343.413696,778.740173 
	C344.148071,781.509338 343.369415,783.444397 340.419525,783.849182 
	C337.887177,784.196655 335.182007,784.319092 335.062988,780.548279 
	C335.015747,779.052063 335.010590,777.554138 335.009949,776.056946 
	C335.005981,766.875244 334.985962,757.693481 335.036072,748.512024 
	C335.042938,747.249451 335.409454,745.988831 335.576355,744.935974 
	C339.940582,744.604675 343.868286,744.157837 347.805939,744.038025 
	C356.464966,743.774353 360.979309,748.908264 358.424194,757.307861 
	C356.915161,762.268677 357.203369,766.572388 358.823395,771.580566 
z"/>
<path fill="#0A0A0B" opacity="1.000000" stroke="none" 
	d="
M653.111938,783.749207 
	C652.043823,780.079346 651.022278,776.506836 650.798096,772.884888 
	C650.633057,770.218201 650.490479,768.145325 647.269165,768.123779 
	C643.718811,768.100037 643.937866,770.786804 644.052673,773.101013 
	C644.149719,775.054443 644.331116,777.112488 645.039490,778.900696 
	C646.036377,781.417297 645.970703,783.320862 643.023438,783.767090 
	C640.699524,784.118958 637.275146,784.892029 637.199768,781.142761 
	C636.949646,768.710022 637.105286,756.269226 637.105286,743.428406 
	C642.068054,743.428406 646.342407,743.223511 650.590271,743.471802 
	C658.990845,743.962769 662.432495,751.714600 659.423767,761.184265 
	C657.270569,767.961426 656.777283,775.090881 660.192322,782.639954 
	C657.878296,783.049866 655.689453,783.437622 653.111938,783.749207 
z"/>
<path fill="#0A0A0B" opacity="1.000000" stroke="none" 
	d="
M406.457855,782.995056 
	C406.457855,770.235962 406.457855,757.476807 406.457855,744.222961 
	C413.207184,744.222961 419.166412,743.854248 425.050964,744.357971 
	C428.719299,744.671997 430.867950,747.662842 430.938477,751.391113 
	C431.124084,761.203003 431.099243,771.019409 431.113312,780.833984 
	C431.118561,784.517395 428.195190,783.831360 426.039917,783.933899 
	C423.898560,784.035767 421.684692,784.204529 421.794281,780.715820 
	C422.037537,772.971191 421.936188,765.216064 422.010437,757.465576 
	C422.038330,754.551147 421.642822,752.029663 417.178711,752.272644 
	C416.300110,759.495300 416.088348,766.447083 415.973511,773.400452 
	C415.787109,784.687561 417.145111,782.677368 406.457855,782.995056 
z"/>
<path fill="#0A0A0B" opacity="1.000000" stroke="none" 
	d="
M571.310791,775.540283 
	C571.259338,775.327820 571.207947,775.115417 571.126221,774.200806 
	C571.072632,773.245117 571.049316,772.991577 571.026062,772.738098 
	C571.047241,772.531982 571.068359,772.325928 571.261047,771.486694 
	C571.339355,765.041931 571.246155,759.230225 571.153015,753.418579 
	C571.126465,753.239319 571.099854,753.060120 571.109070,752.191406 
	C571.102844,751.223511 571.060791,750.945068 571.018677,750.666687 
	C571.044495,750.487671 571.070374,750.308594 571.152222,749.841614 
	C571.208252,749.553650 571.203125,749.409363 571.203125,749.409363 
	C571.169556,749.216858 571.136047,749.024414 571.097534,748.169067 
	C571.070129,747.258179 571.047791,747.010315 571.025513,746.762512 
	C571.019897,746.413879 571.014343,746.065186 571.036865,745.153992 
	C571.051758,744.391052 571.038635,744.190735 571.025574,743.990356 
	C572.678711,743.867432 574.345581,743.549072 575.981995,743.664246 
	C578.915833,743.870728 580.587769,744.669800 580.323669,748.582520 
	C579.747070,757.126953 580.117920,765.731995 579.977112,774.310303 
	C579.869812,780.850830 576.854492,783.879211 569.881287,784.772217 
	C563.354248,785.608093 558.631104,782.644836 557.004028,775.864990 
	C556.982117,764.689758 556.980835,754.355652 556.979492,744.021484 
	C559.438171,744.053223 561.896790,744.084961 564.777832,744.602356 
	C565.453064,754.685303 565.705994,764.282654 565.958923,773.879944 
	C567.510376,774.496460 569.061768,775.113037 570.969727,775.688110 
	C571.326233,775.646545 571.310791,775.540283 571.310791,775.540283 
z"/>
<path fill="#516FFC" opacity="1.000000" stroke="none" 
	d="
M315.348022,617.189331 
	C316.561188,613.656006 317.515472,610.417725 318.501678,607.071106 
	C321.923370,607.250427 325.357819,607.430420 329.067749,607.624817 
	C326.845795,613.177368 325.100006,618.006592 322.976898,622.663757 
	C321.778625,625.292236 320.232117,627.870117 318.363007,630.061829 
	C314.496796,634.595398 312.585541,639.566467 314.072876,645.737183 
	C310.317719,645.737183 307.028259,645.737183 303.734283,645.743042 
	C303.534882,645.495361 303.141907,645.213196 303.173859,644.992493 
	C304.106476,638.556458 301.068298,633.977539 297.032043,629.239136 
	C291.905518,623.220703 289.059845,615.892273 288.980713,607.764343 
	C296.823334,605.866699 297.137756,606.318176 299.894928,613.373535 
	C301.920593,618.557007 304.885498,623.373474 307.931000,629.329712 
	C310.888733,624.435181 312.988922,620.959717 315.348022,617.189331 
z"/>
<path fill="#0A0A0B" opacity="1.000000" stroke="none" 
	d="
M761.445740,783.992310 
	C761.445740,783.992310 761.411865,784.048645 761.107910,783.735962 
	C760.161621,781.688843 758.988525,779.961609 758.964783,778.218750 
	C758.829834,768.303650 758.969116,758.384766 759.015137,748.467163 
	C761.092346,745.298462 763.585510,743.308777 767.755859,744.599121 
	C769.085876,745.010681 770.711304,744.657104 772.168335,744.435120 
	C778.175415,743.519958 781.875977,746.413330 781.969971,752.560181 
	C782.107422,761.550232 781.898376,770.545532 782.041077,779.535400 
	C782.105835,783.618652 779.820557,784.019531 776.589050,784.035889 
	C773.000366,784.054016 772.755737,782.289429 772.868896,779.278931 
	C773.143860,771.962036 773.152710,764.621582 772.858337,757.307068 
	C772.790100,755.612549 771.079956,753.984009 770.125366,752.325195 
	C769.089600,753.987366 767.204773,755.627686 767.161255,757.315552 
	C766.944885,765.705383 767.213562,774.107727 766.755249,782.760132 
	C765.127747,783.353760 764.056458,783.692932 762.985107,784.032166 
	C762.985107,784.032166 762.994019,783.982544 762.618164,783.928284 
	C761.976807,783.913452 761.711304,783.952881 761.445740,783.992310 
z"/>
<path fill="#0A0A0B" opacity="1.000000" stroke="none" 
	d="
M519.000000,750.995300 
	C520.213135,745.542419 522.477905,743.909790 527.477112,744.574707 
	C529.420776,744.833313 531.450562,744.840820 533.397461,744.603943 
	C539.158264,743.902832 543.677063,748.944885 542.085815,754.635864 
	C541.845154,755.496765 540.559143,756.658508 539.764587,756.652344 
	C537.915405,756.638123 535.946289,756.277893 534.259644,755.530273 
	C532.546875,754.771057 531.114746,753.378662 529.559753,752.263611 
	C529.057800,753.893433 527.656677,756.080688 528.247253,757.033203 
	C529.362732,758.832458 531.582947,759.980774 533.441162,761.258301 
	C533.833557,761.528076 534.643494,761.190552 535.367004,761.122986 
	C536.574463,764.844482 535.438660,766.485718 531.719177,767.145996 
	C530.324768,767.393555 528.551575,769.256409 528.223389,770.676697 
	C527.913025,772.020020 529.270935,773.748779 529.895081,775.308044 
	C531.350586,774.246277 532.670654,772.817200 534.296570,772.217896 
	C536.221497,771.508362 538.459656,771.142029 540.458740,771.406799 
	C541.187439,771.503296 542.219666,773.907959 542.080566,775.143372 
	C541.542969,779.916199 538.910889,783.122925 533.953735,783.870667 
	C525.276428,785.179443 521.612366,783.602844 519.034058,776.829041 
	C518.977417,767.668579 518.988708,759.331970 519.000000,750.995300 
z"/>
<path fill="#0A0A0B" opacity="1.000000" stroke="none" 
	d="
M448.998352,751.008057 
	C449.067627,750.349182 448.956818,749.600647 449.233307,749.044861 
	C453.096863,741.278687 460.688446,746.307556 466.331635,744.496338 
	C467.352478,744.168701 470.453461,748.533813 471.613770,751.164856 
	C472.215454,752.529358 470.641632,756.454285 470.101746,756.444336 
	C467.749481,756.401062 465.332611,755.531738 463.105804,754.574829 
	C461.692383,753.967407 460.571777,752.678711 459.319855,751.695557 
	C458.220062,753.374695 456.456512,754.954346 456.186066,756.757874 
	C455.836914,759.086304 456.799652,761.585510 456.969025,764.027039 
	C457.075073,765.555847 456.542114,767.135071 456.689880,768.653320 
	C456.879242,770.598816 457.166321,772.655762 458.021606,774.358032 
	C458.379639,775.070557 460.305328,774.995422 461.518250,775.278381 
	C461.813690,773.295471 462.123840,771.314636 462.400299,769.329041 
	C462.668518,767.403015 462.327026,764.224854 463.265594,763.792175 
	C465.506348,762.759033 468.341339,762.985352 470.943604,762.812439 
	C471.193939,762.795776 471.751282,763.556091 471.734009,763.936035 
	C471.503143,769.016052 471.689789,774.190491 470.711639,779.131409 
	C470.168915,781.872864 467.452850,783.308044 463.949280,782.642944 
	C462.267578,782.323730 460.265717,784.176086 458.415833,784.161438 
	C453.983948,784.126465 450.207825,782.651855 449.040619,776.814819 
	C448.988129,767.664673 448.993225,759.336365 448.998352,751.008057 
z"/>
<path fill="#0A0A0B" opacity="1.000000" stroke="none" 
	d="
M799.933411,744.047058 
	C805.234131,744.036743 810.545959,743.813843 815.831604,744.091003 
	C819.344055,744.275208 822.714417,745.211548 820.709106,750.196899 
	C820.453796,750.831787 820.874390,751.721863 820.917480,752.497253 
	C820.990112,753.803772 821.011230,755.113159 821.054016,756.421326 
	C819.205566,756.220825 817.353760,756.044128 815.513733,755.783875 
	C815.323975,755.757019 815.278198,755.136841 815.040833,754.953979 
	C813.599243,753.843872 812.121582,752.780640 810.656006,751.701721 
	C810.111084,753.156921 809.285889,754.574280 809.082825,756.075745 
	C808.719055,758.765259 810.194641,759.976929 812.884460,760.046570 
	C816.446045,760.138855 817.499817,762.074280 816.516296,765.349182 
	C809.930237,765.261536 808.762390,766.171875 809.063049,771.566284 
	C809.137817,772.907104 809.967285,774.205811 810.449829,775.523926 
	C811.876465,774.947510 813.356506,774.474304 814.717285,773.770630 
	C816.802429,772.692322 818.805603,771.455261 821.316711,770.851624 
	C820.767395,775.410217 825.149475,781.110657 816.856079,782.959351 
	C812.382629,783.006531 808.720825,782.805298 805.083923,783.022583 
	C801.239563,783.252197 799.816528,781.869629 799.888794,777.899536 
	C800.093994,766.618896 799.943726,755.331665 799.933411,744.047058 
z"/>
<path fill="#0A0A0B" opacity="1.000000" stroke="none" 
	d="
M181.974106,744.551147 
	C186.305542,744.312317 190.332916,743.773499 194.195679,744.345764 
	C196.124893,744.631531 198.654831,746.615906 199.318848,748.419006 
	C200.485703,751.587708 200.931351,755.253662 200.622818,758.614380 
	C200.507141,759.874390 197.526810,761.494751 195.693878,761.733643 
	C194.637817,761.871277 192.669708,759.781494 192.167389,758.329346 
	C191.320450,755.880798 192.720245,751.523865 188.987274,751.820984 
	C187.166840,751.965820 184.853241,756.290100 184.266022,759.043213 
	C183.451874,762.860046 183.596298,767.056274 184.255646,770.932739 
	C184.550842,772.668335 187.093384,774.021729 188.616043,775.548584 
	C189.748367,774.361511 191.539413,773.337708 191.882111,771.954895 
	C192.710312,768.613281 195.190521,768.500122 197.237106,769.317261 
	C198.787216,769.936096 200.667770,772.108093 200.731308,773.657349 
	C201.005432,780.341614 197.541336,783.130493 190.973099,782.297546 
	C189.691971,782.135010 188.289886,782.151184 187.059479,782.497192 
	C181.490997,784.063110 177.130753,781.178955 177.023666,775.466675 
	C176.883453,767.988037 176.579361,760.468994 177.212189,753.041138 
	C177.457626,750.160339 180.068680,747.481018 181.974106,744.551147 
z"/>
<path fill="#0A0A0B" opacity="1.000000" stroke="none" 
	d="
M262.938019,752.005798 
	C256.869720,752.624634 258.169525,748.224304 257.444733,743.924805 
	C263.923828,743.924805 269.841339,743.883057 275.757843,743.943176 
	C278.536987,743.971436 280.024261,745.334106 279.962646,748.300598 
	C279.890961,751.751465 277.541260,751.143921 275.391998,751.128418 
	C274.767853,751.123901 274.141022,751.497864 272.999512,752.239868 
	C272.335114,759.925598 272.506470,767.097717 271.888550,774.201111 
	C271.622894,777.254700 275.057587,782.820312 268.157959,782.883728 
	C260.980408,782.949768 264.420349,777.169495 264.101440,773.963257 
	C263.559906,768.518677 264.016724,762.980835 263.882477,757.486328 
	C263.837677,755.652893 263.267853,753.832275 262.938019,752.005798 
z"/>
<path fill="#0A0A0B" opacity="1.000000" stroke="none" 
	d="
M385.970581,783.368835 
	C383.380951,783.368835 380.791321,783.368835 378.007111,783.368835 
	C378.007111,774.412964 378.020630,765.695374 377.998901,756.977966 
	C377.992340,754.345093 378.235504,752.011047 374.473969,750.948914 
	C372.963257,750.522400 372.427582,746.642578 371.241211,743.846863 
	C378.194611,743.846863 384.486420,743.846863 390.687286,743.846863 
	C392.421021,748.036194 389.213837,749.493164 386.899353,752.181396 
	C386.301666,762.980774 386.136108,773.174805 385.970581,783.368835 
z"/>
<path fill="#516FFC" opacity="1.000000" stroke="none" 
	d="
M688.979858,637.860352 
	C688.984009,629.419312 689.009094,621.460266 689.001587,613.501160 
	C688.995361,606.934448 688.978271,606.935791 695.570374,607.011597 
	C696.530151,607.022583 697.490173,607.013123 698.719666,607.013123 
	C698.719666,620.059692 698.719666,632.747925 698.719666,645.421814 
	C696.043457,645.921387 693.460693,646.403503 690.035400,647.042908 
	C689.762512,644.779114 689.374573,641.560669 688.979858,637.860352 
z"/>
<path fill="#6A99F5" opacity="1.000000" stroke="none" 
	d="
M646.074646,224.071472 
	C651.644043,230.457870 652.657471,238.437943 652.853394,246.282227 
	C653.267212,262.851135 652.968018,279.437866 652.726013,296.489319 
	C652.490723,296.961334 652.044312,296.949341 652.054443,296.483948 
	C652.065918,280.415833 652.095825,264.812988 652.029419,249.210526 
	C652.021851,247.435150 651.473511,245.662064 651.175903,243.887939 
	C649.500793,237.847839 647.825745,231.807739 646.107483,225.166321 
	C646.064270,224.565002 646.074646,224.071472 646.074646,224.071472 
z"/>
<path fill="#6A99F5" opacity="1.000000" stroke="none" 
	d="
M584.887756,317.497498 
	C584.539001,316.171600 584.044067,314.387085 584.041260,312.601807 
	C584.004333,288.691742 584.036133,264.781555 584.270020,240.762024 
	C584.646240,249.416290 584.803223,258.179932 584.960144,266.943604 
	C584.963562,283.641907 584.966980,300.340210 584.887756,317.497498 
z"/>
<path fill="#5A7FF1" opacity="1.000000" stroke="none" 
	d="
M597.395874,217.098434 
	C604.366333,208.881287 614.134521,208.086151 623.954407,209.507629 
	C628.712219,210.196335 633.099365,213.445450 637.811401,215.848816 
	C624.396912,208.758469 610.979553,208.422043 597.395874,217.098434 
z"/>
<path fill="#3B3C41" opacity="1.000000" stroke="none" 
	d="
M262.969818,752.473328 
	C263.267853,753.832275 263.837677,755.652893 263.882477,757.486328 
	C264.016724,762.980835 263.559906,768.518677 264.101440,773.963257 
	C264.420349,777.169495 260.980408,782.949768 268.157959,782.883728 
	C275.057587,782.820312 271.622894,777.254700 271.888550,774.201111 
	C272.506470,767.097717 272.335114,759.925598 272.719482,752.456543 
	C272.961578,761.085022 272.814789,770.042358 273.043854,778.990051 
	C273.145752,782.969299 271.596558,783.968018 267.824646,784.137634 
	C263.495270,784.332275 262.890259,782.338440 262.947296,778.805725 
	C263.086456,770.186035 262.998260,761.562744 262.969818,752.473328 
z"/>
<path fill="#5572E0" opacity="1.000000" stroke="none" 
	d="
M585.090210,266.555176 
	C584.803223,258.179932 584.646240,249.416290 584.286621,240.288910 
	C585.654785,235.447037 587.104614,230.920456 588.867004,226.519058 
	C589.423828,225.128403 590.816772,224.072556 592.159607,222.870346 
	C584.747131,234.504288 585.342346,247.672043 585.468445,260.760681 
	C585.485779,262.561707 585.307861,264.364655 585.090210,266.555176 
z"/>
<path fill="#3B3C41" opacity="1.000000" stroke="none" 
	d="
M799.665771,744.361023 
	C799.943726,755.331665 800.093994,766.618896 799.888794,777.899536 
	C799.816528,781.869629 801.239563,783.252197 805.083923,783.022583 
	C808.720825,782.805298 812.382629,783.006531 816.497864,783.015381 
	C811.758362,783.317749 806.555298,783.759949 801.349609,783.794861 
	C800.583130,783.800049 799.135437,781.876343 799.132324,780.841675 
	C799.095520,768.786499 799.275513,756.730652 799.665771,744.361023 
z"/>
<path fill="#5572E0" opacity="1.000000" stroke="none" 
	d="
M651.100403,244.361694 
	C651.473511,245.662064 652.021851,247.435150 652.029419,249.210526 
	C652.095825,264.812988 652.065918,280.415833 651.836426,296.503784 
	C651.608276,296.988953 651.172302,297.017151 651.172302,297.017151 
	C651.123169,279.623260 651.074036,262.229370 651.100403,244.361694 
z"/>
<path fill="#5A7FF1" opacity="1.000000" stroke="none" 
	d="
M651.090088,297.417175 
	C651.172302,297.017151 651.608276,296.988953 651.826294,296.969147 
	C652.044312,296.949341 652.490723,296.961334 652.713318,296.954529 
	C650.415649,303.728546 648.027649,310.563904 645.272095,317.247742 
	C644.665161,318.720032 642.754700,319.654938 641.084473,320.889587 
	C646.407166,314.236389 650.071960,306.633575 651.090088,297.417175 
z"/>
<path fill="#5A7FF1" opacity="1.000000" stroke="none" 
	d="
M639.601257,321.868896 
	C636.282837,324.239899 632.778503,327.002289 628.928101,329.142059 
	C626.858032,330.292480 624.194092,330.374390 621.055786,330.763123 
	C616.896790,330.399292 613.480225,330.210815 610.063599,330.022308 
	C614.964661,329.637573 620.070251,329.979309 624.711731,328.672546 
	C629.788513,327.243225 634.436401,324.290100 639.601257,321.868896 
z"/>
<path fill="#3B3C41" opacity="1.000000" stroke="none" 
	d="
M406.836365,783.232666 
	C417.145111,782.677368 415.787109,784.687561 415.973511,773.400452 
	C416.088348,766.447083 416.300110,759.495300 416.783813,752.255127 
	C417.092499,760.278381 417.083344,768.589355 417.079559,776.900269 
	C417.076111,784.455994 417.070007,784.474609 409.641357,783.969910 
	C408.824982,783.914429 408.023315,783.642029 406.836365,783.232666 
z"/>
<path fill="#3B3C41" opacity="1.000000" stroke="none" 
	d="
M758.755371,748.848145 
	C758.969116,758.384766 758.829834,768.303650 758.964783,778.218750 
	C758.988525,779.961609 760.161621,781.688843 761.076782,783.746460 
	C760.284790,782.963684 758.310059,781.868347 758.296814,780.749756 
	C758.171814,770.245178 758.382141,759.736511 758.755371,748.848145 
z"/>
<path fill="#6A99F5" opacity="1.000000" stroke="none" 
	d="
M609.593018,329.962708 
	C613.480225,330.210815 616.896790,330.399292 620.661987,330.788879 
	C609.253906,330.805115 597.497253,330.620239 585.412903,330.194946 
	C593.097656,329.937347 601.110046,329.920227 609.593018,329.962708 
z"/>
<path fill="#3B3C41" opacity="1.000000" stroke="none" 
	d="
M556.677979,744.314148 
	C556.980835,754.355652 556.982117,764.689758 556.987122,775.488586 
	C556.659729,773.241211 556.056580,770.529846 556.049316,767.816956 
	C556.028503,760.080566 556.250183,752.343567 556.677979,744.314148 
z"/>
<path fill="#3B3C41" opacity="1.000000" stroke="none" 
	d="
M565.938599,773.422668 
	C565.705994,764.282654 565.453064,754.685303 565.239990,744.636963 
	C565.484741,747.645020 565.810303,751.101990 565.868103,754.563477 
	C565.970581,760.695984 565.910461,766.831299 565.938599,773.422668 
z"/>
<path fill="#3B3C41" opacity="1.000000" stroke="none" 
	d="
M386.176910,782.966553 
	C386.136108,773.174805 386.301666,762.980774 386.708435,752.466553 
	C386.760895,762.285645 386.572083,772.424927 386.176910,782.966553 
z"/>
<path fill="#3B3C41" opacity="1.000000" stroke="none" 
	d="
M740.306152,776.761108 
	C739.987366,768.284363 739.982178,759.517273 739.976501,750.259277 
	C740.318176,753.279724 740.895447,756.787598 740.947998,760.303284 
	C741.028442,765.689575 740.747375,771.081238 740.306152,776.761108 
z"/>
<path fill="#3B3C41" opacity="1.000000" stroke="none" 
	d="
M518.680603,751.273010 
	C518.988708,759.331970 518.977417,767.668579 518.976318,776.467529 
	C518.778076,768.470154 518.569702,760.010437 518.680603,751.273010 
z"/>
<path fill="#3B3C41" opacity="1.000000" stroke="none" 
	d="
M691.485229,759.853638 
	C690.400574,760.467651 689.517761,760.757996 689.547363,760.748291 
	C690.265808,755.049683 691.002014,749.209351 691.687134,743.774963 
	C691.687134,748.782166 691.687134,754.156067 691.485229,759.853638 
z"/>
<path fill="#3B3C41" opacity="1.000000" stroke="none" 
	d="
M448.683533,751.290039 
	C448.993225,759.336365 448.988129,767.664673 448.983215,776.453613 
	C448.778534,768.466797 448.573608,760.019470 448.683533,751.290039 
z"/>
<path fill="#3B3C41" opacity="1.000000" stroke="none" 
	d="
M219.276276,783.352051 
	C220.546036,783.050232 222.243332,783.445862 223.456314,782.852112 
	C224.875015,782.157593 226.629974,780.750305 226.898972,779.387756 
	C227.528015,776.201294 227.356155,772.856689 227.767227,769.241821 
	C228.025833,773.665100 228.025833,778.422791 228.025833,784.072815 
	C224.783859,783.897766 222.136719,783.754883 219.276276,783.352051 
z"/>
<path fill="#3B3C41" opacity="1.000000" stroke="none" 
	d="
M571.184387,753.844971 
	C571.246155,759.230225 571.339355,765.041931 571.304443,771.178955 
	C571.189514,765.760010 571.202637,760.015686 571.184387,753.844971 
z"/>
<path fill="#5A7FF1" opacity="1.000000" stroke="none" 
	d="
M638.011963,216.375702 
	C641.495911,216.768005 644.279358,218.400070 644.880371,222.809174 
	C642.636169,221.014114 640.399048,218.845032 638.011963,216.375702 
z"/>
<path fill="#5572E0" opacity="1.000000" stroke="none" 
	d="
M593.113281,222.241119 
	C593.738464,221.029724 594.604065,219.633743 595.806458,218.168640 
	C595.213379,219.418533 594.283569,220.737549 593.113281,222.241119 
z"/>
<path fill="#3B3C41" opacity="1.000000" stroke="none" 
	d="
M763.344727,784.037109 
	C764.056458,783.692932 765.127747,783.353760 766.557617,783.016113 
	C765.845581,783.359131 764.774963,783.700623 763.344727,784.037109 
z"/>
<path fill="#3B3C41" opacity="1.000000" stroke="none" 
	d="
M228.292068,768.326538 
	C228.766495,768.156555 229.585373,767.843933 230.624176,767.735962 
	C230.108231,768.021729 229.372375,768.102783 228.292068,768.326538 
z"/>
<path fill="#5A7FF1" opacity="1.000000" stroke="none" 
	d="
M645.886536,223.872589 
	C646.074646,224.071472 646.064270,224.565002 646.037659,224.810791 
	C645.648254,224.594223 645.285400,224.131882 644.854492,223.372314 
	C645.090393,223.274643 645.394409,223.474182 645.886536,223.872589 
z"/>
<path fill="#3B3C41" opacity="1.000000" stroke="none" 
	d="
M570.712463,743.988953 
	C571.038635,744.190735 571.051758,744.391052 571.045532,744.892578 
	C570.488098,744.991028 569.950073,744.788391 569.411987,744.585693 
	C569.741089,744.386292 570.070190,744.186951 570.712463,743.988953 
z"/>
<path fill="#3B3C41" opacity="1.000000" stroke="none" 
	d="
M570.827026,772.898743 
	C571.049316,772.991577 571.072632,773.245117 571.060669,773.879517 
	C570.893005,773.860046 570.760559,773.459717 570.827026,772.898743 
z"/>
<path fill="#3B3C41" opacity="1.000000" stroke="none" 
	d="
M571.344116,775.543335 
	C571.310791,775.540283 571.326233,775.646545 571.356689,775.629517 
	C571.387146,775.612549 571.377441,775.546326 571.344116,775.543335 
z"/>
<path fill="#3B3C41" opacity="1.000000" stroke="none" 
	d="
M761.645874,784.151245 
	C761.711304,783.952881 761.976807,783.913452 762.639160,783.942261 
	C762.639343,784.110352 762.242737,784.210266 761.645874,784.151245 
z"/>
<path fill="#3B3C41" opacity="1.000000" stroke="none" 
	d="
M570.749512,750.818970 
	C571.060791,750.945068 571.102844,751.223511 571.081299,751.921021 
	C570.838562,751.883911 570.659424,751.427551 570.749512,750.818970 
z"/>
<path fill="#3B3C41" opacity="1.000000" stroke="none" 
	d="
M571.217163,749.456543 
	C571.203125,749.409363 571.208252,749.553650 571.203003,749.575073 
	C571.197754,749.596497 571.231201,749.503784 571.217163,749.456543 
z"/>
<path fill="#3B3C41" opacity="1.000000" stroke="none" 
	d="
M570.825378,746.916687 
	C571.047791,747.010315 571.070129,747.258179 571.059082,747.878540 
	C570.892273,747.857605 570.758728,747.464233 570.825378,746.916687 
z"/>
<path fill="#5572E0" opacity="1.000000" stroke="none" 
	d="
M596.310791,218.069458 
	C596.266235,217.883575 596.494568,217.613831 596.940552,217.190186 
	C596.966736,217.352722 596.775208,217.669144 596.310791,218.069458 
z"/>
<path fill="#000000" opacity="1.000000" stroke="none" 
	d="
M384.078461,320.726807 
	C384.068024,320.423889 383.931824,320.196167 383.346405,319.715027 
	C382.283539,318.444611 381.544067,317.502869 380.804596,316.561096 
	C380.804596,316.561096 380.766876,316.296631 380.470581,315.960510 
	C378.126068,311.352295 376.077881,307.080170 374.029694,302.808075 
	C374.029694,302.808075 374.002350,302.433014 374.037415,301.787292 
	C374.023987,284.525482 374.168427,267.905792 373.854797,251.294708 
	C373.665894,241.291016 375.355316,231.885880 380.285431,223.134109 
	C380.285431,223.134109 380.170715,223.130371 380.463196,223.017303 
	C382.668274,220.873611 384.580872,218.842957 386.493439,216.812317 
	C386.493439,216.812317 386.736450,216.792480 387.039001,216.527496 
	C388.331635,215.610184 389.321747,214.957855 390.311859,214.305511 
	C390.311859,214.305511 390.213379,214.292282 390.552246,214.252197 
	C391.924774,213.724426 392.958466,213.236740 394.241852,212.756500 
	C394.813141,212.627304 395.048950,212.401215 395.502625,212.090698 
	C396.199432,212.005035 396.592621,211.914368 397.403717,211.801178 
	C407.744598,209.552292 417.139221,210.696487 425.854858,216.172699 
	C425.854858,216.172699 425.966064,216.019745 426.054260,216.369522 
	C427.812775,218.290649 429.483093,219.862000 431.153412,221.433350 
	C431.153412,221.433365 431.240112,221.725906 431.548340,222.068512 
	C436.796936,229.802887 439.079956,237.986191 439.047180,246.833191 
	C438.740723,329.550964 438.423553,412.268738 438.109528,494.986511 
	C437.761566,495.809692 437.413605,496.632843 436.815430,498.064148 
	C433.561188,503.208069 430.557129,507.743805 427.553040,512.279541 
	C427.553040,512.279541 427.322205,512.321899 427.153687,512.499207 
	C426.796082,512.796082 426.659882,512.959778 426.576569,513.167603 
	C426.576569,513.167603 426.267578,513.195923 425.923126,513.514832 
	C411.823334,522.676575 398.333527,521.681824 385.058197,512.740112 
	C385.030579,512.425598 384.874268,512.200378 384.256348,511.734924 
	C383.307953,510.886597 382.692474,510.367859 382.076965,509.849152 
	C382.076965,509.849152 382.046265,509.965576 382.021606,509.692596 
	C381.685547,509.195160 381.374084,508.970734 381.062653,508.746277 
	C381.062653,508.746277 381.089539,508.894897 381.085449,508.566498 
	C380.448456,507.415039 379.815582,506.592010 379.182709,505.768982 
	C379.182709,505.768982 379.160522,505.850281 379.127258,505.481384 
	C377.385345,497.943237 374.466705,490.818207 374.202576,483.596130 
	C373.504272,464.505157 374.093994,445.370697 373.895111,426.256409 
	C373.786163,415.783997 376.412415,406.308899 382.514862,397.801727 
	C382.514862,397.801727 382.754150,397.737213 383.008850,397.418030 
	C384.670563,395.675110 386.077637,394.251373 387.484711,392.827667 
	C387.484711,392.827667 387.765381,392.787567 388.106873,392.488831 
	C399.559448,384.653534 412.292084,385.556610 424.740784,385.847504 
	C424.740784,366.850372 424.740784,348.493652 424.740784,329.932434 
	C411.202850,330.005157 397.916901,330.127228 386.034576,322.852600 
	C386.034576,322.852600 386.036530,322.944489 385.994629,322.636169 
	C385.328003,321.794189 384.703217,321.260498 384.078461,320.726807 
z"/>
<path fill="#000102" opacity="1.000000" stroke="none" 
	d="
M601.083496,515.742920 
	C597.936890,512.554810 594.790283,509.366638 591.261475,505.666260 
	C589.225525,500.453064 587.571777,495.752106 585.971863,490.581726 
	C586.025696,455.466980 586.025696,420.821686 586.025696,385.640228 
	C601.430786,386.514709 616.950684,383.477966 631.881836,389.238373 
	C631.881836,389.238373 631.876831,389.160645 632.007812,389.433838 
	C632.746826,389.868439 633.354797,390.029816 633.962769,390.191193 
	C633.962769,390.191193 633.938232,390.101257 634.047546,390.389160 
	C635.072632,391.168091 635.988342,391.659088 636.904114,392.150085 
	C636.904114,392.150085 636.928711,392.076447 636.990845,392.327393 
	C637.460449,392.884033 637.867981,393.189728 638.275513,393.495422 
	C638.275513,393.495422 638.339233,393.708740 638.616760,393.951782 
	C639.593689,394.796844 640.293091,395.398865 641.075195,396.237671 
	C641.518127,396.820282 641.878418,397.166138 642.238647,397.511993 
	C642.238647,397.511993 642.256531,397.707062 642.497070,397.940063 
	C643.110474,398.521851 643.483398,398.870667 643.856262,399.219482 
	C643.856262,399.219482 643.863586,399.097656 643.874512,399.368317 
	C644.312256,400.240082 644.739075,400.841187 645.165833,401.442322 
	C645.165833,401.442322 645.203247,401.726074 645.502197,402.080811 
	C649.497070,409.631531 651.213013,417.209564 651.135132,425.361542 
	C650.963623,443.306763 650.971313,461.257599 651.232544,479.201416 
	C651.357117,487.759705 650.580078,496.008759 646.714355,503.764618 
	C646.714355,503.764618 646.876465,503.885742 646.545654,504.014343 
	C645.029541,506.070465 643.844238,507.997955 642.658997,509.925446 
	C642.365540,509.937469 642.153198,510.074860 641.716797,510.659637 
	C641.196228,511.301788 640.980835,511.621918 640.765381,511.942017 
	C640.462158,511.948944 640.226135,512.078430 639.657837,512.646606 
	C627.095825,521.613220 614.313232,521.748291 601.083496,515.742920 
z"/>
<path fill="#5572E0" opacity="1.000000" stroke="none" 
	d="
M438.381348,494.745728 
	C438.423553,412.268738 438.740723,329.550964 439.047180,246.833191 
	C439.079956,237.986191 436.796936,229.802887 431.687378,222.131256 
	C433.923706,225.587082 437.129761,229.048859 438.525940,233.129837 
	C440.160095,237.906433 440.854614,243.221359 440.863525,248.304672 
	C441.000366,326.358337 440.992950,404.412354 440.860596,482.466034 
	C440.853790,486.480225 439.421692,490.492004 438.381348,494.745728 
z"/>
<path fill="#5A7FF1" opacity="1.000000" stroke="none" 
	d="
M382.178650,397.794739 
	C376.412415,406.308899 373.786163,415.783997 373.895111,426.256409 
	C374.093994,445.370697 373.504272,464.505157 374.202576,483.596130 
	C374.466705,490.818207 377.385345,497.943237 379.168823,505.474548 
	C378.205902,504.667725 376.578552,503.650879 376.231232,502.303955 
	C374.623505,496.069397 372.351624,489.770508 372.181854,483.444641 
	C371.659760,463.987305 371.468414,444.485992 372.252625,425.046326 
	C372.557678,417.484253 375.636719,409.989166 377.844666,402.580566 
	C378.390656,400.748535 380.468689,399.373108 382.178650,397.794739 
z"/>
<path fill="#5572E0" opacity="1.000000" stroke="none" 
	d="
M631.708618,388.925812 
	C616.950684,383.477966 601.430786,386.514709 586.025696,385.640228 
	C586.025696,420.821686 586.025696,455.466980 585.690796,490.540131 
	C585.166626,490.959381 584.977417,490.950775 584.788269,490.942200 
	C584.576172,490.479736 584.364075,490.017242 584.321533,488.947418 
	C584.621277,487.526642 584.865295,486.713257 584.865417,485.899811 
	C584.870239,454.174835 584.864380,422.449860 584.804565,390.724976 
	C584.801575,389.110229 584.308350,387.496399 584.043335,385.882141 
	C585.835022,385.269226 587.617004,384.162262 589.420166,384.126648 
	C598.498840,383.947418 607.623962,383.533966 616.649414,384.251129 
	C621.695068,384.652069 626.578796,387.092072 631.708618,388.925812 
z"/>
<path fill="#5A7FF1" opacity="1.000000" stroke="none" 
	d="
M386.191956,323.164062 
	C397.916901,330.127228 411.202850,330.005157 424.740784,329.932434 
	C424.740784,348.493652 424.740784,366.850372 424.740784,385.847504 
	C412.292084,385.556610 399.559448,384.653534 388.164612,392.359344 
	C388.870453,391.375671 389.648926,389.871399 390.884979,389.128265 
	C397.640320,385.066925 405.078613,383.891663 412.890503,383.932312 
	C425.520996,383.997986 423.864227,385.424896 423.955536,372.734467 
	C424.022552,363.423492 423.976837,354.111603 423.967468,344.800140 
	C423.953674,331.076355 423.937042,331.389496 410.424957,330.897888 
	C404.548492,330.684082 398.655334,329.169312 392.920227,327.669739 
	C390.527924,327.044220 388.527802,324.918915 386.191956,323.164062 
z"/>
<path fill="#5A7FF1" opacity="1.000000" stroke="none" 
	d="
M379.951294,223.258652 
	C375.355316,231.885880 373.665894,241.291016 373.854797,251.294708 
	C374.168427,267.905792 374.023987,284.525482 373.972656,301.610779 
	C373.243622,299.365753 372.099060,296.656982 372.070068,293.936310 
	C371.899597,277.953156 371.677399,261.958466 372.122070,245.985779 
	C372.347137,237.902328 373.703522,229.778442 379.951294,223.258652 
z"/>
<path fill="#5A7FF1" opacity="1.000000" stroke="none" 
	d="
M647.062561,503.705505 
	C650.580078,496.008759 651.357117,487.759705 651.232544,479.201416 
	C650.971313,461.257599 650.963623,443.306763 651.135132,425.361542 
	C651.213013,417.209564 649.497070,409.631531 645.631531,402.142029 
	C646.509583,402.765533 648.190613,403.508026 648.499451,404.628662 
	C650.185364,410.746246 651.533813,416.956879 652.785217,423.926697 
	C652.416016,425.530731 652.124390,426.343384 652.123535,427.156342 
	C652.104614,446.155731 652.100586,465.155182 652.160522,484.154419 
	C652.164612,485.433594 652.695679,486.711090 652.981689,487.989349 
	C651.917297,492.049805 650.960327,496.143341 649.726318,500.151581 
	C649.331848,501.432709 648.203369,502.487823 647.062561,503.705505 
z"/>
<path fill="#6A99F5" opacity="1.000000" stroke="none" 
	d="
M584.028503,386.362549 
	C584.308350,387.496399 584.801575,389.110229 584.804565,390.724976 
	C584.864380,422.449860 584.870239,454.174835 584.865417,485.899811 
	C584.865295,486.713257 584.621277,487.526642 584.274170,488.695251 
	C584.042725,454.981262 584.028198,420.912079 584.028503,386.362549 
z"/>
<path fill="#5A7FF1" opacity="1.000000" stroke="none" 
	d="
M385.135315,513.084106 
	C398.333527,521.681824 411.823334,522.676575 425.854797,513.654053 
	C425.001892,518.869385 419.737885,519.660156 416.184509,520.244873 
	C406.555969,521.829285 396.595734,522.535583 387.907898,516.244507 
	C386.872528,515.494812 386.104431,514.375916 385.135315,513.084106 
z"/>
<path fill="#5A7FF1" opacity="1.000000" stroke="none" 
	d="
M601.170410,516.088440 
	C614.313232,521.748291 627.095825,521.613220 639.600098,512.847046 
	C636.328369,515.097778 633.007019,518.439209 629.040588,519.628052 
	C620.717590,522.122742 612.109985,522.240295 603.901123,518.485718 
	C602.913635,518.034058 602.133545,517.128967 601.170410,516.088440 
z"/>
<path fill="#6A99F5" opacity="1.000000" stroke="none" 
	d="
M652.985535,487.521790 
	C652.695679,486.711090 652.164612,485.433594 652.160522,484.154419 
	C652.100586,465.155182 652.104614,446.155731 652.123535,427.156342 
	C652.124390,426.343384 652.416016,425.530731 652.777100,424.362762 
	C652.984558,445.023163 652.987000,466.038696 652.985535,487.521790 
z"/>
<path fill="#5572E0" opacity="1.000000" stroke="none" 
	d="
M425.768982,215.838196 
	C417.139221,210.696487 407.744598,209.552292 397.404846,211.596786 
	C396.988068,211.414902 396.989227,211.006134 396.989227,211.006134 
	C396.989227,211.006134 397.000824,210.997604 397.208099,210.865753 
	C397.677277,210.549225 397.913330,210.335953 398.123566,210.094086 
	C405.813660,208.122681 413.344391,208.783966 420.605103,211.826279 
	C422.481873,212.612671 424.000183,214.254684 425.768982,215.838196 
z"/>
<path fill="#5A7FF1" opacity="1.000000" stroke="none" 
	d="
M427.898438,512.361816 
	C430.557129,507.743805 433.561188,503.208069 436.767914,498.409454 
	C437.577393,502.857574 433.210205,510.012573 427.898438,512.361816 
z"/>
<path fill="#6A99F5" opacity="1.000000" stroke="none" 
	d="
M584.844727,491.361420 
	C584.977417,490.950775 585.166626,490.959381 585.636963,491.009583 
	C587.571777,495.752106 589.225525,500.453064 590.962219,505.500519 
	C588.997192,501.158234 586.949219,496.469421 584.844727,491.361420 
z"/>
<path fill="#5A7FF1" opacity="1.000000" stroke="none" 
	d="
M374.025024,303.218842 
	C376.077881,307.080170 378.126068,311.352295 380.346252,315.911621 
	C375.282715,313.596008 375.018768,308.422943 374.025024,303.218842 
z"/>
<path fill="#5A7FF1" opacity="1.000000" stroke="none" 
	d="
M386.155151,216.792496 
	C384.580872,218.842957 382.668274,220.873611 380.469543,223.074341 
	C382.061188,221.087189 383.938995,218.929932 386.155151,216.792496 
z"/>
<path fill="#5A7FF1" opacity="1.000000" stroke="none" 
	d="
M643.016846,509.854431 
	C643.844238,507.997955 645.029541,506.070465 646.479492,503.937836 
	C645.620911,505.749573 644.497742,507.766479 643.016846,509.854431 
z"/>
<path fill="#5572E0" opacity="1.000000" stroke="none" 
	d="
M431.172668,221.103012 
	C429.483093,219.862000 427.812775,218.290649 425.987610,216.436707 
	C427.619171,217.693634 429.405579,219.233154 431.172668,221.103012 
z"/>
<path fill="#5A7FF1" opacity="1.000000" stroke="none" 
	d="
M387.148895,392.801819 
	C386.077637,394.251373 384.670563,395.675110 383.036377,397.297211 
	C384.143860,395.922363 385.478455,394.349152 387.148895,392.801819 
z"/>
<path fill="#5A7FF1" opacity="1.000000" stroke="none" 
	d="
M380.706665,316.906189 
	C381.544067,317.502869 382.283539,318.444611 383.145752,319.666321 
	C382.381958,319.047943 381.495361,318.149597 380.706665,316.906189 
z"/>
<path fill="#5A7FF1" opacity="1.000000" stroke="none" 
	d="
M393.992157,212.749069 
	C392.958466,213.236740 391.924774,213.724426 390.559265,214.301361 
	C391.257721,213.625656 392.287964,212.860657 393.657440,212.044708 
	C393.996643,211.993744 394.011780,212.012146 394.006653,212.196381 
	C394.001495,212.380600 393.992157,212.749069 393.992157,212.749069 
z"/>
<path fill="#5A7FF1" opacity="1.000000" stroke="none" 
	d="
M389.962036,214.294159 
	C389.321747,214.957855 388.331635,215.610184 387.084503,216.414398 
	C387.755737,215.805130 388.683960,215.043961 389.962036,214.294159 
z"/>
<path fill="#5572E0" opacity="1.000000" stroke="none" 
	d="
M636.791443,391.832672 
	C635.988342,391.659088 635.072632,391.168091 634.002991,390.402802 
	C634.792358,390.590759 635.735535,391.053009 636.791443,391.832672 
z"/>
<path fill="#5572E0" opacity="1.000000" stroke="none" 
	d="
M640.992493,396.000916 
	C640.293091,395.398865 639.593689,394.796844 638.726318,393.971741 
	C639.280823,393.962311 640.003296,394.175903 640.871460,394.927826 
	C641.008911,395.644379 641.000732,395.822632 640.992493,396.000916 
z"/>
<path fill="#5A7FF1" opacity="1.000000" stroke="none" 
	d="
M379.175354,506.124817 
	C379.815582,506.592010 380.448456,507.415039 381.158630,508.547913 
	C380.546631,508.065399 379.857300,507.273041 379.175354,506.124817 
z"/>
<path fill="#5A7FF1" opacity="1.000000" stroke="none" 
	d="
M384.150269,321.045837 
	C384.703217,321.260498 385.328003,321.794189 386.040466,322.632690 
	C385.492828,322.413269 384.857452,321.889069 384.150269,321.045837 
z"/>
<path fill="#5A7FF1" opacity="1.000000" stroke="none" 
	d="
M641.075195,396.237671 
	C641.000732,395.822632 641.008911,395.644379 641.020752,395.197632 
	C641.451355,395.587982 641.878357,396.246826 642.271973,397.208862 
	C641.878418,397.166138 641.518127,396.820282 641.075195,396.237671 
z"/>
<path fill="#5A7FF1" opacity="1.000000" stroke="none" 
	d="
M645.197388,401.140137 
	C644.739075,400.841187 644.312256,400.240082 643.813477,399.366669 
	C644.237366,399.675568 644.733154,400.256775 645.197388,401.140137 
z"/>
<path fill="#5A7FF1" opacity="1.000000" stroke="none" 
	d="
M396.663940,211.015747 
	C396.989227,211.006134 396.988068,211.414902 396.986938,211.619293 
	C396.592621,211.914368 396.199432,212.005035 395.206360,212.065186 
	C394.408234,212.027161 394.209991,212.019653 394.011780,212.012146 
	C394.011780,212.012146 393.996643,211.993744 393.989807,211.982147 
	C394.768188,211.655487 395.553406,211.340424 396.663940,211.015747 
z"/>
<path fill="#5A7FF1" opacity="1.000000" stroke="none" 
	d="
M382.159973,510.161163 
	C382.692474,510.367859 383.307953,510.886597 384.048492,511.684631 
	C383.530029,511.467010 382.886536,510.970093 382.159973,510.161163 
z"/>
<path fill="#5572E0" opacity="1.000000" stroke="none" 
	d="
M633.744019,389.972961 
	C633.354797,390.029816 632.746826,389.868439 631.969238,389.438751 
	C632.374817,389.365234 632.950073,389.559998 633.744019,389.972961 
z"/>
<path fill="#5572E0" opacity="1.000000" stroke="none" 
	d="
M638.215698,393.233704 
	C637.867981,393.189728 637.460449,392.884033 636.954224,392.340393 
	C637.289062,392.392334 637.722534,392.682190 638.215698,393.233704 
z"/>
<path fill="#5A7FF1" opacity="1.000000" stroke="none" 
	d="
M643.792114,398.943420 
	C643.483398,398.870667 643.110474,398.521851 642.594177,397.952576 
	C642.876465,398.043823 643.302246,398.355591 643.792114,398.943420 
z"/>
<path fill="#5A7FF1" opacity="1.000000" stroke="none" 
	d="
M397.906738,210.201233 
	C397.913330,210.335953 397.677277,210.549225 397.213257,210.860687 
	C397.191223,210.714951 397.417450,210.488586 397.906738,210.201233 
z"/>
<path fill="#5A7FF1" opacity="1.000000" stroke="none" 
	d="
M426.746063,513.131775 
	C426.659882,512.959778 426.796082,512.796082 427.129456,512.614014 
	C427.260071,512.802307 427.140717,512.983826 426.746063,513.131775 
z"/>
<path fill="#5A7FF1" opacity="1.000000" stroke="none" 
	d="
M381.213867,508.981262 
	C381.374084,508.970734 381.685547,509.195160 382.080322,509.705811 
	C381.897491,509.733429 381.631256,509.474854 381.213867,508.981262 
z"/>
<path fill="#5A7FF1" opacity="1.000000" stroke="none" 
	d="
M640.995972,511.774658 
	C640.980835,511.621918 641.196228,511.301788 641.676086,510.853180 
	C641.702576,511.018890 641.464600,511.313080 640.995972,511.774658 
z"/>
<path fill="#000000" opacity="1.000000" stroke="none" 
	d="
M516.475586,637.988281 
	C513.900513,638.006104 511.760376,638.006104 509.307007,638.006104 
	C509.307007,635.375488 509.307007,632.980530 509.307007,629.991516 
	C511.886292,629.991516 514.524658,629.716003 517.067688,630.089417 
	C518.732971,630.333923 521.315857,631.223267 521.627991,632.342529 
	C522.261658,634.614807 521.948547,637.444519 518.196167,637.324158 
	C517.774902,637.310608 517.339355,637.744202 516.475586,637.988281 
z"/>
<path fill="#000000" opacity="1.000000" stroke="none" 
	d="
M511.119385,616.636353 
	C515.010864,615.174927 518.479797,615.113464 521.121338,618.853210 
	C518.187195,624.172424 513.427917,621.187073 509.021912,622.141052 
	C509.504089,619.991638 507.322479,617.597473 511.119385,616.636353 
z"/>
<path fill="#000000" opacity="1.000000" stroke="none" 
	d="
M221.097855,638.020691 
	C219.770172,637.387634 218.378403,636.916626 218.117630,636.089172 
	C217.609039,634.475342 217.733383,632.662109 217.507324,629.822388 
	C221.431519,630.245239 225.225937,630.434814 228.897949,631.206665 
	C229.796951,631.395630 230.632126,633.437805 230.833954,634.731384 
	C230.932968,635.365967 229.630615,636.692749 228.761047,636.913635 
	C226.413391,637.510132 223.957718,637.681519 221.097855,638.020691 
z"/>
<path fill="#000000" opacity="1.000000" stroke="none" 
	d="
M217.483490,621.609741 
	C217.137024,619.686157 217.137024,618.065613 217.137024,616.174622 
	C220.159119,616.174622 222.974228,615.866821 225.664795,616.311829 
	C226.903717,616.516785 227.898788,618.195862 229.004456,619.206421 
	C227.766434,620.143860 226.627914,621.657104 225.268478,621.892090 
	C222.859741,622.308411 220.316772,621.948059 217.483490,621.609741 
z"/>
<path fill="#000000" opacity="1.000000" stroke="none" 
	d="
M569.203491,635.318542 
	C564.977051,639.032043 560.711121,638.335571 556.825073,635.867859 
	C553.789368,633.939941 552.930969,630.727417 552.881348,626.955383 
	C552.811646,621.654480 554.415405,617.775208 559.606995,616.182739 
	C564.038513,614.823364 569.590881,616.863647 571.602905,620.124756 
	C574.198975,624.332520 573.252869,630.943604 569.203491,635.318542 
z"/>
<path fill="#000000" opacity="1.000000" stroke="none" 
	d="
M453.230286,635.484497 
	C449.815643,636.322205 446.713379,636.898071 443.231506,637.544312 
	C443.231506,629.907043 443.231506,623.182800 443.231506,616.482422 
	C451.324585,615.350891 454.644623,616.779053 457.098602,622.345520 
	C459.116302,626.922302 457.762817,631.823730 453.230286,635.484497 
z"/>
<path fill="#000000" opacity="1.000000" stroke="none" 
	d="
M344.997101,626.879333 
	C345.163177,619.357239 348.653534,615.951111 355.709167,616.002319 
	C361.128906,616.041687 365.972839,620.951965 366.010040,626.444153 
	C366.049133,632.216492 360.891479,637.912292 355.551086,637.994324 
	C350.016296,638.079285 346.341125,634.356201 344.997101,626.879333 
z"/>
<path fill="#000000" opacity="1.000000" stroke="none" 
	d="
M624.054749,623.959351 
	C626.533447,628.917847 624.062805,632.453003 621.095764,635.211304 
	C617.824402,638.252563 613.346436,638.618591 609.401062,636.687439 
	C604.902588,634.485352 603.188538,626.537109 605.449280,621.025024 
	C607.060791,617.095764 612.915466,614.647583 618.041870,616.132202 
	C621.579468,617.156677 623.913696,619.562073 624.054749,623.959351 
z"/>
<path fill="#4F70FE" opacity="1.000000" stroke="none" 
	d="
M394.006653,212.196381 
	C394.209991,212.019653 394.408234,212.027161 394.902771,212.060181 
	C395.048950,212.401215 394.813141,212.627304 394.241852,212.756500 
	C393.992157,212.749069 394.001495,212.380600 394.006653,212.196381 
z"/>
</svg>