<?xml version="1.0" encoding="UTF-8"?>
<svg version="1.1" xmlns="http://www.w3.org/2000/svg" width="4267" height="4267">
<path d="M0 0 C1.37188477 0.82927002 1.37188477 0.82927002 2.77148438 1.67529297 C36.41511186 22.08296665 68.98173479 44.79788546 98.91015625 70.37890625 C101.77577694 72.82303334 104.69405522 75.19695734 107.625 77.5625 C112.38807218 81.43812933 116.93364249 85.51234289 121.453125 89.66796875 C123.58941749 91.62405252 125.74780657 93.54187697 127.9375 95.4375 C135.43691141 101.97270137 142.75948243 108.6726361 149.75 115.75 C153.38817533 119.42987362 157.10805832 122.89678207 161.03515625 126.26171875 C166.13167504 130.77056738 170.89226566 135.64125497 175.3125 140.8125 C178.37502996 144.389021 181.65303863 147.69362343 185 151 C188.90548494 154.86297544 192.6713064 158.76738422 196.234375 162.953125 C198.3943342 165.45714849 200.63487993 167.87997698 202.875 170.3125 C206.96880209 174.80148057 210.85469667 179.41243476 214.66796875 184.140625 C216.704559 186.63775073 218.78271765 189.09172254 220.88427734 191.53417969 C227.33787792 199.05145916 233.37960166 206.85050529 239.32617188 214.77294922 C240.41984687 216.22809847 241.51734685 217.68038287 242.61914062 219.12939453 C250.56628527 229.58224409 258.02042108 240.33470278 265.3125 251.25 C265.72879669 251.87135834 266.14509338 252.49271667 266.57400513 253.13290405 C272.67511557 262.25539331 278.43074091 271.54422118 284 281 C284.52408447 281.88494141 285.04816895 282.76988281 285.58813477 283.68164062 C305.2143879 317.00520318 321.42170673 351.79286921 335 388 C335.44553223 389.18158691 335.89106445 390.36317383 336.35009766 391.58056641 C366.68996757 472.66520614 386.17536826 562.4251375 394.76429749 783.60440063 C394.88079896 791.28006898 394.99828858 798.95569096 395.12730217 806.63116074 C396.25554646 874.56870056 396.13310928 942.5102831 396.10353819 1010.45471463 C396.09841142 1022.43437258 396.09581759 1034.41402922 396.09487724 1046.3936882 C396.0948085 1047.25451829 396.09473976 1048.11534838 396.09466894 1049.00226422 C396.09433044 1053.37695768 396.09402912 1057.75165114 396.09374207 1062.12634461 C396.09166173 1092.82251237 396.08498174 1123.51867748 396.07543945 1154.21484375 C396.0662011 1183.96842434 396.05914422 1213.72200419 396.05493164 1243.47558594 C396.05480011 1244.39858574 396.05466859 1245.32158554 396.05453308 1246.27255503 C396.05321415 1255.54475115 396.05193839 1264.81694728 396.05069422 1274.08914342 C396.04816046 1292.96457018 396.04533922 1311.83999689 396.04234314 1330.71542358 C396.04220585 1331.58259638 396.04206856 1332.44976918 396.04192711 1333.34321995 C396.03278264 1390.89548107 396.01692327 1448.4477407 396 1506 C455.36874682 1505.92090205 514.73749233 1505.84086619 574.10623169 1505.7563324 C574.99951334 1505.75506072 575.89279499 1505.75378904 576.81314578 1505.75247882 C596.27447915 1505.72476843 615.73581229 1505.69690396 635.19714522 1505.66888306 C644.75512802 1505.65512217 654.31311087 1505.64139496 663.87109375 1505.62768555 C664.82171024 1505.62632146 665.77232673 1505.62495738 666.75174978 1505.62355196 C694.21585244 1505.58415656 721.67995682 1505.54634928 749.14406374 1505.51004343 C882.13274839 1505.33509457 882.13274839 1505.33509457 1169.03123331 1504.55786014 C1173.44987276 1504.53773142 1177.86851359 1504.51797848 1182.28715658 1504.49864316 C1227.39705522 1504.30121957 1272.50428305 1504.00721761 1317.61181641 1503.49609375 C1318.54872091 1503.48550145 1319.48562542 1503.47490914 1320.45092097 1503.46399586 C1347.62826062 1503.15553293 1374.80362589 1502.7937751 1401.97607422 1502.17993164 C1405.57071971 1502.09889091 1409.16542038 1502.02266045 1412.76025391 1501.95043945 C1433.51105126 1501.53332735 1454.24782529 1500.94204264 1474.984375 1500.05859375 C1476.36112774 1500.00234675 1476.36112774 1500.00234675 1477.76569366 1499.94496346 C1487.4704553 1499.54307386 1497.1379707 1498.97996127 1506.80664062 1498.0378418 C1507.61164883 1497.96057326 1508.41665703 1497.88330473 1509.24605942 1497.80369473 C1516.92790073 1497.00802842 1524.2812057 1495.34695575 1531.75 1493.375 C1533.1314231 1493.01804344 1534.51285226 1492.66111033 1535.89428711 1492.30419922 C1581.68153871 1480.32976467 1624.75611947 1459.62933749 1661 1429 C1662.0765123 1428.11030111 1663.15335002 1427.22099587 1664.23046875 1426.33203125 C1676.45068543 1416.15521224 1688.11874004 1405.13886627 1697.94921875 1392.60546875 C1700.11746217 1389.85076711 1702.39674569 1387.21592624 1704.6875 1384.5625 C1717.17069453 1369.54788367 1727.45485117 1352.99301811 1737 1336 C1737.44827148 1335.20271484 1737.89654297 1334.40542969 1738.35839844 1333.58398438 C1750.67805363 1311.44404386 1760.01826939 1288.01070534 1768 1264 C1768.31340332 1263.0620459 1768.62680664 1262.1240918 1768.94970703 1261.15771484 C1787.51235879 1204.48672335 1784.37485679 1137.83818652 1786.625 1078.75 C1786.65653797 1077.92525806 1786.68807594 1077.10051613 1786.72056961 1076.25078201 C1787.65143524 1051.8604692 1788.37658542 1027.46863138 1788.95088196 1003.06739807 C1789.02192657 1000.07710173 1789.09666329 997.08689829 1789.17089844 994.09667969 C1790.02397347 958.88896564 1790.10738597 923.6793024 1790.12293625 888.46298218 C1790.12496206 884.87961589 1790.12870798 881.29625504 1790.13284302 877.71289062 C1790.15766649 853.00057609 1790.05660908 828.29751126 1789.546875 803.58984375 C1789.526926 802.61346262 1789.50697701 801.63708149 1789.48642349 800.63111305 C1787.70851969 715.8514074 1781.74844972 631.81316975 1703 500 C1701.82877852 498.64977087 1700.66192767 497.29573509 1699.5 495.9375 C1692.34285609 487.7625971 1684.50817047 480.73793994 1676 474 C1674.90442531 473.11392703 1673.80939135 472.22718515 1672.71484375 471.33984375 C1621.29564661 429.92737659 1556.92465523 409.80330207 1492 403 C1491.0318335 402.8961499 1490.06366699 402.7922998 1489.06616211 402.68530273 C1456.70438832 399.70083103 1423.08137239 400.86829972 1391 406 C1390.32874084 406.10654907 1389.65748169 406.21309814 1388.96588135 406.32287598 C1327.30515237 416.22308606 1267.58349189 440.34483047 1223 485 C1222.30519531 485.66 1221.61039063 486.32 1220.89453125 487 C1204.43164806 502.81425177 1192.91467678 523.17651226 1182 543 C1181.49146484 543.91845703 1180.98292969 544.83691406 1180.45898438 545.78320312 C1134.60040777 629.16773059 1144.88449217 731.84583616 1143.15379959 928.78080815 C1143.08230489 938.8196387 1143.00964226 948.85846032 1142.93634033 958.89727783 C1142.41362156 1030.52089066 1141.91988295 1102.14469374 1141.4428542 1173.76862481 C1141.42154054 1176.96874999 1141.4002152 1180.16887509 1141.37888943 1183.36900018 C1140.90922739 1253.91260136 1140.45680462 1324.45631445 1140 1395 C967.41 1395 794.82 1395 617 1395 C617 1284.09790092 617 1284.09790092 617.43174744 1232.6194458 C617.44705333 1230.7427396 617.46229786 1228.8660329 617.47748846 1226.98932576 C617.50119581 1224.06218835 617.52494507 1221.13505133 617.54889511 1218.20791589 C617.63255186 1207.98290613 617.71175424 1197.75786266 617.79099894 1187.53281793 C617.93329228 1169.18852112 618.07895777 1150.84425282 618.22680664 1132.5 C618.36778836 1115.00717912 618.50658214 1097.51434284 618.64282227 1080.02148438 C618.65122742 1078.94261229 618.65963258 1077.8637402 618.66829244 1076.75217502 C618.70215542 1072.40542586 618.736014 1068.05867667 618.76986634 1063.71192744 C620.50549324 840.9204015 620.50549324 840.9204015 621.87577438 758.14913559 C621.94025464 754.72888438 622.00352398 751.30861206 622.06668091 747.88833618 C623.34357472 679.12332264 623.34357472 679.12332264 625 645 C625.05113953 643.94417725 625.10227905 642.88835449 625.15496826 641.80053711 C629.53225014 552.7277478 645.98112644 470.89539314 755 231 C755.61343262 230.05527832 756.22686523 229.11055664 756.85888672 228.13720703 C765.01044436 215.62957915 773.4369876 203.4869463 782.65136719 191.74121094 C784.53624204 189.30766144 786.33326179 186.8151303 788.125 184.3125 C795.0093893 174.77249722 802.37656297 165.61836483 810.02148438 156.6796875 C812.84777786 153.37497449 815.59747941 150.02253963 818.3125 146.625 C822.597507 141.35173913 827.19304013 136.40618061 831.86450195 131.47705078 C834.71594051 128.46604267 837.50973903 125.42946207 840.21069336 122.28222656 C843.99220048 117.94951956 847.98748906 113.86799861 852.05859375 109.80859375 C852.8065773 109.05965347 853.55456085 108.3107132 854.32521057 107.53907776 C855.89632464 105.96728775 857.46868392 104.39674151 859.04223633 102.82739258 C861.43099846 100.44398696 863.81437446 98.05528932 866.19726562 95.66601562 C867.7340545 94.12988763 869.2711536 92.59406991 870.80859375 91.05859375 C871.51092636 90.35423691 872.21325897 89.64988007 872.93687439 88.92417908 C876.92824338 84.9513797 881.01793702 81.15078318 885.28582764 77.47605896 C887.50101406 75.56858114 889.65503886 73.59731999 891.8125 71.625 C896.07745308 67.78071755 900.4486085 64.10473095 904.9140625 60.49609375 C907.14939817 58.68801844 909.37188205 56.86887237 911.5859375 55.03515625 C945.30201461 27.19914242 982.05271311 4.72764749 1021 -15 C1021.78310547 -15.39912598 1022.56621094 -15.79825195 1023.37304688 -16.20947266 C1027.89557222 -18.51426198 1032.44015055 -20.77007829 1037 -23 C1037.79631836 -23.391875 1038.59263672 -23.78375 1039.41308594 -24.1875 C1115.12053594 -61.34731085 1196.03569572 -89.25591126 1393.79296875 -116.5546875 C1394.94304098 -116.57562344 1396.09311321 -116.59655937 1397.27803612 -116.61812973 C1422.54781975 -117.07003877 1447.81485875 -117.15445602 1473.08813477 -117.13037109 C1479.12130345 -117.12465835 1485.15442815 -117.12808475 1491.18759537 -117.13381004 C1515.37043024 -117.15324632 1539.54438866 -117.04320182 1563.72265625 -116.546875 C1564.70915979 -116.526926 1565.69566334 -116.50697701 1566.71206093 -116.48642349 C1596.87449481 -115.85978676 1627.03074384 -114.60599967 1657 -111 C1658.23476074 -110.85256348 1659.46952148 -110.70512695 1660.74169922 -110.55322266 C1714.73277902 -103.83306375 1768.29284535 -88.75774057 1819.85321045 -71.70843506 C1821.93340819 -71.02197513 1824.01544803 -70.34143359 1826.09814453 -69.66259766 C1881.4887552 -51.56491442 1935.76877888 -27.58070832 1986 2 C1986.94149902 2.54591797 1987.88299805 3.09183594 1988.85302734 3.65429688 C2014.09826468 18.29577981 2038.66267267 34.46797797 2062 52 C2062.82854492 52.62036133 2063.65708984 53.24072266 2064.51074219 53.87988281 C2075.63506295 62.22821134 2086.5821802 70.7645828 2097.31298828 79.61279297 C2098.83643159 80.8654999 2100.36886635 82.1072526 2101.90234375 83.34765625 C2113.67798749 92.87537974 2125.01646896 102.88307071 2136.08081055 113.22436523 C2137.58990974 114.62058434 2139.10914233 116.00585146 2140.63208008 117.38696289 C2147.52209041 123.63686543 2154.21066383 130.05306928 2160.7746582 136.64428711 C2162.32584727 138.20089389 2163.88239392 139.75200171 2165.43945312 141.30273438 C2170.28542001 146.14548125 2175.0302365 151.03164066 2179.48608398 156.2409668 C2181.86735977 159.00779344 2184.37826907 161.65030027 2186.875 164.3125 C2192.17369255 170.01479264 2197.12995843 175.92639661 2202 182 C2202.97110966 183.18096097 2203.94386799 184.36056749 2204.91796875 185.5390625 C2233.64604059 220.38564407 2258.66884244 258.20356308 2280 298 C2280.67313232 299.25369385 2280.67313232 299.25369385 2281.35986328 300.53271484 C2322.73644808 377.94194046 2350.09470984 461.23685319 2379 638 C2379.03933655 638.79954102 2379.0786731 639.59908203 2379.11920166 640.42285156 C2379.45622184 647.28094972 2379.76530399 654.14006857 2380.0625 661 C2380.10306519 661.91612061 2380.14363037 662.83224121 2380.1854248 663.77612305 C2382.19774873 710.21532603 2382.16311601 756.7027055 2382.1285693 803.1749903 C2382.12482222 808.79415657 2382.12614029 814.4133051 2382.13037109 820.0324707 C2382.16283316 864.36417527 2381.83442873 908.67585184 2381 953 C2380.97084126 954.56083502 2380.97084126 954.56083502 2380.94109344 956.15320206 C2380.70884132 968.49900253 2380.43469927 980.84341349 2380.125 993.1875 C2380.10461418 994.01014847 2380.08422836 994.83279694 2380.06322479 995.68037415 C2376.51382657 1138.88305552 2376.51382657 1138.88305552 2370 1209 C2369.8923381 1210.19070099 2369.8923381 1210.19070099 2369.78250122 1211.40545654 C2367.89168019 1231.88186397 2363.58753519 1251.83740013 2358.5625 1271.75 C2358.30533203 1272.77481476 2358.04816406 1273.79962952 2357.78320312 1274.85549927 C2342.70446751 1334.69519887 2321.65941797 1393.75370033 2292 1448 C2291.59571777 1448.74652832 2291.19143555 1449.49305664 2290.77490234 1450.26220703 C2272.9473789 1483.15444708 2252.02275866 1514.31051896 2228 1543 C2227.49227051 1543.60682617 2226.98454102 1544.21365234 2226.46142578 1544.83886719 C2215.31286819 1558.1111301 2203.48320684 1570.60770566 2191.25 1582.875 C2190.70638824 1583.42129059 2190.16277649 1583.96758118 2189.60269165 1584.53042603 C2183.58262681 1590.57295845 2177.5129281 1596.48374451 2171 1602 C2169.91652848 1602.94887878 2168.83444839 1603.89934921 2167.75390625 1604.8515625 C2137.66822922 1631.09462272 2104.10391645 1653.10731445 2069 1672 C2068.0709082 1672.50144531 2067.14181641 1673.00289062 2066.18457031 1673.51953125 C2031.59982612 1692.09428442 1995.05398671 1705.83024325 1958.1472168 1719.00146484 C1957.41247635 1719.2637941 1956.6777359 1719.52612335 1955.92073059 1719.79640198 C1954.54638337 1720.2863632 1953.17156158 1720.77499601 1951.79618835 1721.2620697 C1949.47349251 1722.08855766 1947.20749005 1722.89625497 1945 1724 C1946.2468457 1724.39678955 1947.49369141 1724.7935791 1948.77832031 1725.20239258 C1982.95287322 1736.10232748 2015.97388981 1747.72775773 2048 1764 C2048.98162109 1764.49580566 2049.96324219 1764.99161133 2050.97460938 1765.50244141 C2078.07958041 1779.32521792 2103.81289845 1797.34517184 2127 1817 C2128.51400391 1818.27230469 2128.51400391 1818.27230469 2130.05859375 1819.5703125 C2132.81856826 1821.89274028 2135.56710341 1824.22832519 2138.31298828 1826.56738281 C2139.98350403 1827.98599155 2141.66101042 1829.39593802 2143.33984375 1830.8046875 C2158.15298289 1843.28622785 2171.91909007 1856.82822518 2185.625 1870.5 C2186.2359552 1871.10827637 2186.8469104 1871.71655273 2187.47637939 1872.34326172 C2193.87235785 1878.71794821 2200.17282267 1885.09342867 2206 1892 C2207.02131908 1893.16852161 2208.04475253 1894.33519866 2209.0703125 1895.5 C2244.01379141 1935.45888255 2273.65593078 1979.17266181 2297.72607422 2026.49902344 C2298.82885013 2028.66399784 2299.9443508 2030.82154781 2301.06640625 2032.9765625 C2319.37632183 2068.44405438 2332.89710694 2106.0433718 2345 2144 C2345.36931641 2145.15387207 2345.73863281 2146.30774414 2346.11914062 2147.49658203 C2371.92540953 2228.998503 2376.62549771 2310.80859746 2287.625 3302.6875 C2260.73210675 3354.17054376 2226.53137907 3402.75527936 2187.25 3445.53515625 C2185.38233297 3447.58115954 2183.55630403 3449.65017157 2181.75 3451.75 C2171.35172579 3463.63038117 2160.27365158 3474.83033158 2149.125 3486 C2148.48971375 3486.63787445 2147.85442749 3487.2757489 2147.19989014 3487.93295288 C2134.87480654 3500.29756159 2134.87480654 3500.29756159 2128.67773438 3505.56738281 C2125.93080475 3507.9129857 2123.32149402 3510.40435767 2120.6875 3512.875 C2115.89485085 3517.3337948 2110.97810172 3521.56120791 2105.87109375 3525.66015625 C2103.17381864 3527.85834372 2100.53734457 3530.11011362 2097.90942383 3532.38989258 C2091.41364458 3538.02359687 2084.77271344 3543.4069054 2077.89648438 3548.57177734 C2075.77329744 3550.17072734 2073.66026003 3551.78265016 2071.546875 3553.39453125 C2051.40203917 3568.70175484 2030.65101964 3582.90654144 2009 3596 C2008.05108887 3596.57427734 2007.10217773 3597.14855469 2006.12451172 3597.74023438 C1934.03408269 3641.11070686 1855.06316712 3671.55005308 1587.9375 3716.75 C1587.05274994 3716.80916595 1586.16799988 3716.86833191 1585.25643921 3716.92929077 C1579.17307818 3717.32929122 1573.08781539 3717.67561286 1567 3718 C1566.1518573 3718.04805786 1565.3037146 3718.09611572 1564.42987061 3718.14562988 C1541.06445698 3719.43646437 1517.64274747 3719.24570779 1494.25 3719.25 C1493.14704842 3719.25044186 1492.04409683 3719.25088371 1490.90772247 3719.25133896 C1457.1792581 3719.2584189 1423.62069363 3718.96813149 1390 3716 C1388.98846863 3715.91278687 1387.97693726 3715.82557373 1386.93475342 3715.73571777 C1315.42865684 3709.5494397 1244.88801912 3697.28033514 1176 3677 C1175.32809631 3676.80317627 1174.65619263 3676.60635254 1173.96392822 3676.40356445 C1129.52235892 3663.36755087 1086.7134018 3646.03976187 1045 3626 C1044.05060547 3625.5452832 1043.10121094 3625.09056641 1042.12304688 3624.62207031 C1028.40518378 3618.01698523 1015.16792418 3610.63474837 1002 3603 C1000.92266602 3602.37818848 999.84533203 3601.75637695 998.73535156 3601.11572266 C982.40786731 3591.66784981 966.53831301 3581.69627329 951 3571 C949.77385986 3570.15646973 949.77385986 3570.15646973 948.52294922 3569.29589844 C939.69571901 3563.19735283 931.05513599 3556.89616281 922.61669922 3550.26953125 C920.90520807 3548.92556357 919.18913573 3547.58758947 917.47265625 3546.25 C900.34225351 3532.87646858 883.85609424 3518.86052892 868 3504 C867.3105127 3503.35562988 866.62102539 3502.71125977 865.91064453 3502.04736328 C863.66758081 3499.95038248 861.42703279 3497.85075103 859.1875 3495.75 C858.49414551 3495.1005542 857.80079102 3494.4511084 857.08642578 3493.78198242 C850.32576176 3487.42114262 843.76815548 3480.97520127 837.71484375 3473.93359375 C836.03995701 3472.04505403 834.30052413 3470.26844352 832.5 3468.5 C829.56505187 3465.60383973 826.82271401 3462.6007082 824.1328125 3459.4765625 C822.45090243 3457.52357535 820.75725094 3455.58331535 819.0546875 3453.6484375 C812.27410684 3445.92092248 805.75746743 3438.05091365 799.48046875 3429.91015625 C797.87365163 3427.8369806 796.25053809 3425.77727566 794.625 3423.71875 C786.73703591 3413.70647445 779.18579188 3403.52745752 772 3393 C770.99428955 3391.52829346 770.99428955 3391.52829346 769.96826172 3390.02685547 C725.05756527 3324.05707604 692.05934483 3252.93443901 668 3177 C667.6828302 3176.00235626 667.6828302 3176.00235626 667.35925293 3174.98455811 C655.07444701 3136.23859368 644.39746092 3096.15439008 638 3056 C637.89467957 3055.34257812 637.78935913 3054.68515625 637.68084717 3054.0078125 C624.68447373 2972.41666185 624.4800137 2889.10207268 623.00142288 2806.6811142 C622.9400626 2803.26756093 622.87778184 2799.85402544 622.81539917 2796.44049072 C622.23118296 2764.17930364 621.8471769 2731.91670723 621.51586914 2699.65209961 C621.50513811 2698.61239775 621.49440708 2697.5726959 621.48335087 2696.50148793 C621.00778331 2650.39291049 620.6584858 2604.28379917 620.34759343 2558.17385583 C620.27147595 2546.89431367 620.19337497 2535.61478541 620.11525899 2524.33525694 C619.97478509 2504.04407012 619.83578081 2483.75287353 619.69775391 2463.46166992 C619.56680009 2444.21068723 619.43504332 2424.9597103 619.30224609 2405.70874023 C619.2941048 2404.52835617 619.2859635 2403.3479721 619.27757549 2402.13181882 C619.23656543 2396.18615298 619.19554417 2390.24048722 619.15451813 2384.2948215 C618.94496683 2353.9239655 618.73596032 2323.55310623 618.53076172 2293.18222046 C618.52311389 2292.05060509 618.51546606 2290.91898972 618.50758648 2289.75308298 C618.43925961 2279.64275528 618.37096 2269.53242741 618.30275726 2259.42209888 C618.12155761 2232.57083249 617.93493312 2205.71961464 617.74013576 2178.8684435 C617.66029389 2167.84540434 617.58293253 2156.8223476 617.50588846 2145.79928857 C617.44456033 2137.04211986 617.38108681 2128.28497427 617.31331539 2119.52785289 C616.91880075 2066.34943172 617 2013.18347234 617 1960 C544.07 1960 471.14 1960 396 1960 C396.00523682 1983.53344727 396.01047363 2007.06689453 396.01586914 2031.31347656 C396.01921994 2047.04184976 396.02255347 2062.77022295 396.02565002 2078.49859619 C396.02584736 2079.49837843 396.02604469 2080.49816066 396.02624801 2081.52823933 C396.03288814 2115.26229531 396.03813245 2148.99635135 396.04234314 2182.73040771 C396.0424812 2183.83360804 396.04261925 2184.93680836 396.04276149 2186.07343899 C396.04575614 2210.06330213 396.04852607 2234.05316529 396.05106533 2258.04302849 C396.05231239 2269.81188879 396.05360899 2281.58074908 396.05493164 2293.34960938 C396.05512778 2295.10609143 396.05512778 2295.10609143 396.05532788 2296.89805798 C396.05957031 2334.68326495 396.06706725 2372.46847041 396.07629722 2410.25367646 C396.08578445 2449.16377756 396.09189798 2488.07387783 396.09391499 2526.98398006 C396.09420304 2532.51116809 396.09452867 2538.03835611 396.09487724 2543.56554413 C396.09494467 2544.65310886 396.09501209 2545.74067359 396.09508156 2546.86119483 C396.09625187 2564.19315343 396.10085848 2581.5251094 396.10683203 2598.85706694 C396.11279763 2616.38738861 396.11494883 2633.91770774 396.11350138 2651.44803038 C396.11281932 2660.90329253 396.11362 2670.35854773 396.11920547 2679.81380844 C396.15421221 2741.46706689 395.7722383 2803.12343397 394.1843338 2864.75918961 C394.12195313 2867.18077822 394.06082104 2869.60239675 393.99969482 2872.02401733 C391.7582864 2960.06948004 389.21917938 3049.0393056 321 3265 C320.52272461 3266.05993164 320.04544922 3267.11986328 319.55371094 3268.21191406 C307.47420239 3294.96875781 294.11467667 3320.82309645 279 3346 C277.84626378 3347.94265466 276.69261806 3349.88536306 275.5390625 3351.828125 C267.52483983 3365.23998014 258.95234823 3378.19806255 250 3391 C249.54705566 3391.65226562 249.09411133 3392.30453125 248.62744141 3392.9765625 C238.10043087 3408.11878121 226.88560029 3422.89807205 215 3437 C214.11058786 3438.06372749 213.22127059 3439.1275343 212.33203125 3440.19140625 C207.41492985 3446.05492391 202.42305375 3451.83338398 197.265625 3457.48828125 C195.37186693 3459.58774063 193.5083282 3461.70717322 191.65234375 3463.83984375 C182.36865557 3474.4662141 172.52222389 3484.57232952 162.5625 3494.5625 C161.73468018 3495.39491211 160.90686035 3496.22732422 160.05395508 3497.08496094 C155.77421087 3501.35393362 151.42140279 3505.4658175 146.83813477 3509.40698242 C144.05139159 3511.82211049 141.37688245 3514.35274952 138.6875 3516.875 C133.953292 3521.2745626 129.11575572 3525.47548811 124.07421875 3529.5234375 C121.68501418 3531.44815884 119.31614531 3533.39047024 116.95703125 3535.3515625 C108.7975299 3542.13204486 100.584598 3548.75949733 92 3555 C91.32324219 3555.4935498 90.64648438 3555.98709961 89.94921875 3556.49560547 C18.29358342 3608.71574776 -60.11268461 3648.30818278 -260 3704 C-261.087435 3704.19725677 -261.087435 3704.19725677 -262.19683838 3704.39849854 C-334.60651909 3717.50907366 -407.79843284 3718.37289093 -481.18187261 3718.25713766 C-486.56113369 3718.24954293 -491.94032157 3718.25237116 -497.31958008 3718.26074219 C-586.65097418 3718.39605156 -670.5813547 3708.13419541 -797 3674 C-797.89400513 3673.71876282 -798.78801025 3673.43752563 -799.70910645 3673.14776611 C-847.01174723 3658.24700404 -893.10465413 3641.12101396 -938 3620 C-938.98033203 3619.54334961 -939.96066406 3619.08669922 -940.97070312 3618.61621094 C-1003.13560988 3589.62875118 -1060.76347979 3551.52810102 -1111.48828125 3505.265625 C-1113.59179554 3503.36820931 -1115.71511357 3501.50059836 -1117.8515625 3499.640625 C-1129.0082886 3489.89260922 -1139.57743537 3479.52221157 -1150.0625 3469.0625 C-1150.55509308 3468.57249512 -1151.04768616 3468.08249023 -1151.5552063 3467.57763672 C-1156.70600626 3462.44822364 -1161.75871307 3457.27663636 -1166.4909668 3451.75415039 C-1168.717263 3449.16622963 -1171.04822369 3446.68546556 -1173.375 3444.1875 C-1177.66430703 3439.54442811 -1181.72678619 3434.76558383 -1185.69140625 3429.83984375 C-1187.77090653 3427.2818121 -1189.89052282 3424.76857206 -1192.03442383 3422.26489258 C-1197.93946851 3415.36317253 -1203.55779315 3408.2720284 -1209 3401 C-1209.77899658 3399.95996826 -1209.77899658 3399.95996826 -1210.57373047 3398.89892578 C-1263.58485045 3327.93367465 -1303.19161055 3249.73065071 -1362 3042 C-1362.16004517 3041.11658936 -1362.32009033 3040.23317871 -1362.48498535 3039.32299805 C-1367.19572072 3013.14387764 -1370.48234312 2987.12559105 -1371.86645508 2960.56085205 C-1371.99838158 2958.03103471 -1372.13659552 2955.50161664 -1372.27539062 2952.97216797 C-1376.8178076 2868.24377182 -1376.32436183 2783.25493889 -1376.25892257 2686.15935074 C-1376.25001623 2673.8854362 -1376.25161015 2661.61156032 -1376.26074219 2649.33764648 C-1376.3065999 2585.91012664 -1376.31540985 2522.49219564 -1375.07421875 2459.07421875 C-1375.05345811 2458.00906941 -1375.03269747 2456.94392007 -1375.01130772 2455.84649348 C-1371.34440914 2269.46671563 -1371.34440914 2269.46671563 -1300 2041 C-1299.55414551 2040.02708008 -1299.10829102 2039.05416016 -1298.64892578 2038.05175781 C-1292.35704449 2024.36492032 -1285.3621274 2011.13856583 -1278 1998 C-1277.26910156 1996.68515625 -1277.26910156 1996.68515625 -1276.5234375 1995.34375 C-1247.06784134 1942.41818684 -1209.75634849 1894.76253594 -1167.0625 1851.9375 C-1166.32667694 1851.19765869 -1166.32667694 1851.19765869 -1165.57598877 1850.44287109 C-1159.89796423 1844.74128827 -1154.13659001 1839.20889816 -1148 1834 C-1146.89371357 1833.03870062 -1145.78821559 1832.07649295 -1144.68359375 1831.11328125 C-1108.24868126 1799.59749882 -1068.24518111 1772.91532693 -1024.87158203 1751.90917969 C-1023.05352166 1751.02599983 -1021.2434102 1750.12651504 -1019.43359375 1749.2265625 C-1012.31642623 1745.74109713 -1005.08341718 1742.59325679 -997.75 1739.59375 C-997.00680511 1739.28966217 -996.26361023 1738.98557434 -995.49789429 1738.67227173 C-991.73464771 1737.13577504 -987.9672736 1735.6104421 -984.19384766 1734.09912109 C-970.3124403 1729.59809174 -970.3124403 1729.59809174 -960 1721 C-960.55042969 1720.8040625 -961.10085938 1720.608125 -961.66796875 1720.40625 C-964.7841044 1719.28540741 -967.89225918 1718.1439338 -971 1717 C-971.71913574 1716.73687012 -972.43827148 1716.47374023 -973.17919922 1716.20263672 C-995.93240822 1707.84228731 -1017.9136615 1697.72286209 -1039.86279297 1687.46435547 C-1041.90950433 1686.50901113 -1043.95793457 1685.55733814 -1046.00830078 1684.60986328 C-1074.37377035 1671.49667717 -1100.78262845 1655.81705018 -1125 1636 C-1125.9590625 1635.23300781 -1126.918125 1634.46601563 -1127.90625 1633.67578125 C-1133.51988863 1629.15806365 -1138.90650638 1624.4440672 -1144.19921875 1619.5546875 C-1146.41835195 1617.5305409 -1148.65774146 1615.54326963 -1150.921875 1613.5703125 C-1163.48336321 1602.60493797 -1175.26690027 1590.83736933 -1187.0625 1579.0625 C-1187.74643829 1578.3811499 -1188.43037659 1577.6997998 -1189.13504028 1576.99780273 C-1195.97681556 1570.17642436 -1202.75990213 1563.38398289 -1209 1556 C-1210.61967817 1554.22429779 -1212.24411718 1552.45291693 -1213.875 1550.6875 C-1218.7957178 1545.28508543 -1223.42792553 1539.69831141 -1228 1534 C-1228.91225289 1532.87979484 -1229.82503803 1531.76002295 -1230.73828125 1530.640625 C-1282.87655747 1466.47583314 -1320.55158927 1391.44969713 -1375.79589844 1039.9543457 C-1375.81140621 1039.13142532 -1375.82691399 1038.30850494 -1375.84289169 1037.46064758 C-1375.87714032 1035.63149256 -1375.91114163 1033.80233289 -1375.94493103 1031.97316933 C-1375.98269075 1029.93452502 -1376.02089079 1027.89588884 -1376.0594635 1025.85725975 C-1376.88112178 982.35300699 -1377.16085979 938.86328895 -1377.12856877 895.35192865 C-1377.12479992 889.68456422 -1377.1261632 884.0172173 -1377.13037109 878.34985352 C-1377.17082155 822.32783717 -1376.77406324 766.31382535 -1375.125 710.3125 C-1375.08350804 708.87078011 -1375.04207704 707.42905846 -1375.0007019 705.98733521 C-1373.7286997 661.98534214 -1372.40081751 617.81393975 -1368 574 C-1367.88640137 572.84000488 -1367.77280273 571.68000977 -1367.65576172 570.48486328 C-1360.12508971 497.68836718 -1337.61262782 423.19178813 -1309 356 C-1308.31067383 354.37795654 -1308.31067383 354.37795654 -1307.60742188 352.72314453 C-1289.93338848 311.42023129 -1268.49891687 272.01423569 -1243 235 C-1242.3188916 234.0102417 -1242.3188916 234.0102417 -1241.62402344 233.00048828 C-1234.55694558 222.77257742 -1227.1776528 212.81267537 -1219.55078125 202.99609375 C-1218.08152075 201.10492973 -1216.61858051 199.20902388 -1215.15625 197.3125 C-1209.17965963 189.59709071 -1202.93606976 182.1489485 -1196.53808594 174.78076172 C-1194.95463389 172.94747613 -1193.38573654 171.10260206 -1191.8203125 169.25390625 C-1182.66783821 158.45846227 -1182.66783821 158.45846227 -1177.68409729 153.68504333 C-1175.96239 151.96236887 -1174.38587409 150.16850771 -1172.80444336 148.31665039 C-1169.0217654 143.96739955 -1165.02183585 139.87729672 -1160.94140625 135.80859375 C-1160.1934227 135.05965347 -1159.44543915 134.3107132 -1158.67478943 133.53907776 C-1157.10367536 131.96728775 -1155.53131608 130.39674151 -1153.95776367 128.82739258 C-1151.56900154 126.44398696 -1149.18562554 124.05528932 -1146.80273438 121.66601562 C-1145.2659455 120.12988763 -1143.7288464 118.59406991 -1142.19140625 117.05859375 C-1141.48907364 116.35423691 -1140.78674103 115.64988007 -1140.06312561 114.92417908 C-1136.09290579 110.97243047 -1132.02708578 107.1913307 -1127.77825928 103.54014587 C-1125.01109158 101.14350891 -1122.35692592 98.62919381 -1119.6875 96.125 C-1114.81414451 91.58651476 -1109.79696023 87.30651203 -1104.6015625 83.13671875 C-1102.05013271 81.04117506 -1099.61673227 78.86036845 -1097.1875 76.625 C-1091.62793016 71.56605493 -1085.73373489 66.98998797 -1079.79248047 62.39404297 C-1078.07251723 61.0563979 -1076.36427159 59.70541078 -1074.66015625 58.34765625 C-1038.17219671 29.30829544 -998.90432556 3.21532774 -957.66552734 -18.58935547 C-954.96496746 -20.01853984 -952.2734727 -21.46388624 -949.58203125 -22.91015625 C-874.69300533 -62.87166982 -793.26157245 -87.8324535 -558.11328125 -118.91143799 C-556.10270639 -118.99569585 -554.09235978 -119.08534931 -552.08203125 -119.17529297 C-448.74038977 -123.68645012 -343.51782619 -117.53816965 0 0 Z M-682 471 C-682.57266602 471.47115234 -683.14533203 471.94230469 -683.73535156 472.42773438 C-696.40129763 482.88150143 -707.84258756 494.06883262 -718 507 C-718.6290625 507.75023437 -719.258125 508.50046875 -719.90625 509.2734375 C-767.53319388 566.46480864 -783.93076703 641.8340596 -788.6875 714.1875 C-788.74834778 715.10349976 -788.80919556 716.01949951 -788.87188721 716.96325684 C-790.80440051 746.58183184 -791.16219699 776.17207951 -791.16704226 805.84104633 C-791.16831216 809.88712893 -791.17282537 813.933206 -791.17713451 817.97928631 C-791.19083376 831.23161708 -791.19068385 844.48393254 -791.18797541 857.73626852 C-791.18749954 861.19081359 -791.18765081 864.64535804 -791.18803024 868.09990311 C-791.19561121 938.83927425 -790.85477692 1009.5702142 -790.09606981 1080.3055501 C-790.06265088 1083.42342332 -790.02950224 1086.54129933 -789.99639511 1089.65917587 C-789.93179307 1095.72681523 -789.86606461 1101.79444175 -789.79956055 1107.86206055 C-789.78889994 1108.83688279 -789.77823932 1109.81170503 -789.76725566 1110.81606734 C-789.65393594 1121.11035666 -789.53086533 1131.40437784 -789.38041687 1141.69819641 C-789.34252068 1144.31129246 -789.3046644 1146.92438907 -789.26687515 1149.53748667 C-789.24243109 1151.2246333 -789.21780045 1152.91177724 -789.19297612 1154.59891832 C-789.03918377 1165.20754453 -788.99673817 1175.80623616 -789.07080078 1186.41601562 C-789.17809555 1210.68050798 -787.19459343 1230.12715084 -777.75 1252.625 C-776.71864279 1255.2231026 -775.71120581 1257.83029343 -774.703125 1260.4375 C-772.30494155 1266.60095482 -769.81448606 1272.72134138 -767.29321289 1278.83557129 C-765.51461722 1283.18770792 -763.82194558 1287.57053153 -762.140625 1291.9609375 C-750.85101938 1321.20606912 -737.15741808 1350.35696558 -719 1376 C-718.06994141 1377.32257813 -718.06994141 1377.32257813 -717.12109375 1378.671875 C-708.18603089 1391.16291237 -698.65837048 1402.94330985 -688 1414 C-687.46584473 1414.55606934 -686.93168945 1415.11213867 -686.38134766 1415.68505859 C-679.31413521 1423.00429645 -672.03822061 1429.73924508 -664 1436 C-662.59621094 1437.14662109 -662.59621094 1437.14662109 -661.1640625 1438.31640625 C-561.61791094 1518.03009831 -410.85821828 1507.0342296 -294 1508 C-294 1657.16 -294 1806.32 -294 1960 C-327.99 1960 -361.98 1960 -397 1960 C-424.01825722 1961.39967356 -424.01825722 1961.39967356 -450.9375 1963.75 C-451.70175293 1963.83236908 -452.46600586 1963.91473816 -453.25341797 1963.99960327 C-530.32495566 1972.38150557 -608.18173372 1994.52192999 -666.62109375 2047.83984375 C-668.78271952 2049.80269933 -670.97526262 2051.7196626 -673.1875 2053.625 C-679.66798144 2059.2856615 -685.41165709 2065.46930907 -691 2072 C-691.80179688 2072.91265625 -692.60359375 2073.8253125 -693.4296875 2074.765625 C-752.62369775 2142.66914212 -781.57093507 2235.62510202 -786.02001953 2324.19677734 C-786.06255301 2325.03260495 -786.10508648 2325.86843256 -786.14890885 2326.72958827 C-787.04299835 2344.44726891 -787.5846909 2362.16691971 -787.99728632 2379.90156507 C-788.05628791 2382.41987137 -788.11712742 2384.93812772 -788.17843246 2387.45637894 C-789.04831089 2423.27360537 -789.65683134 2459.09284299 -790.09476423 2494.91777134 C-790.12540698 2497.40807513 -790.1566748 2499.89837039 -790.18811417 2502.38866425 C-790.99752538 2566.64767775 -791.18993879 2630.90435717 -791.18744946 2695.16803074 C-791.18749976 2698.60847812 -791.18809609 2702.04892497 -791.18888092 2705.48937225 C-791.32536027 2775.25319484 -791.32536027 2775.25319484 -790 2845 C-789.96935141 2846.01299164 -789.96935141 2846.01299164 -789.93808365 2847.04644775 C-789.73104338 2853.88938011 -789.48921137 2860.7295205 -789.17993164 2867.56860352 C-789.05763068 2870.29609302 -788.94752534 2873.02392745 -788.83789062 2875.75195312 C-788.07635862 2893.85100741 -786.81380789 2911.82784736 -783.3125 2929.625 C-783.18339233 2930.2925531 -783.05428467 2930.9601062 -782.92126465 2931.64788818 C-771.14077848 2992.44112453 -748.72691288 3052.47601677 -706.1640625 3098.6484375 C-704.72038883 3100.21719481 -703.29827663 3101.80606886 -701.8984375 3103.4140625 C-671.34822117 3138.40794666 -628.56024712 3161.57849957 -585 3176 C-584.24380371 3176.25861816 -583.48760742 3176.51723633 -582.70849609 3176.78369141 C-559.74248774 3184.59419107 -535.04164512 3186.99215109 -511 3189 C-509.7610498 3189.10803955 -509.7610498 3189.10803955 -508.49707031 3189.21826172 C-452.8653644 3193.85628762 -390.01780921 3190.20837882 -337 3172 C-336.30841797 3171.76313477 -335.61683594 3171.52626953 -334.90429688 3171.28222656 C-297.90563641 3158.40160408 -260.33056287 3138.50747706 -233 3110 C-230.6258767 3107.60282696 -228.24377619 3105.22832559 -225.78125 3102.921875 C-183.70615561 3062.86407966 -164.49407447 3002.52888594 -153.8125 2947.125 C-153.57442627 2945.90973633 -153.33635254 2944.69447266 -153.09106445 2943.44238281 C-148.90429707 2920.91924723 -147.46015095 2898.34004143 -146.92658615 2875.47062683 C-146.8557228 2872.50603091 -146.77649719 2869.54167657 -146.69765377 2866.57728386 C-145.91869819 2837.19587602 -145.42157733 2807.80932974 -145.05535889 2778.42010498 C-145.00813837 2774.6329038 -144.95938427 2770.84572391 -144.91025829 2767.05854702 C-144.05375714 2700.94789548 -143.50712981 2634.83389052 -143.046875 2568.71943599 C-143.01592096 2564.27328516 -142.98466337 2559.82713663 -142.95312506 2555.38098991 C-142.32760432 2467.1361378 -141.98100644 2378.88978431 -141.42195606 1379.48718929 C-141.43476597 1374.87114711 -141.44740668 1370.25510448 -141.4599833 1365.63906165 C-141.68703515 1282.32768744 -142.02406031 1199.017294 -142.48767343 1115.70688754 C-142.50371188 1112.82400026 -142.51970336 1109.94111273 -142.53568912 1107.05822515 C-142.88917743 1043.39486641 -143.31604212 979.73252556 -143.94073486 916.07116699 C-143.9890184 911.14521495 -144.03588761 906.21925083 -144.08227348 901.2932806 C-144.47362718 859.82971654 -145.09107997 818.37399577 -145.93437576 776.91704559 C-145.99901972 773.73574218 -146.0629872 770.55442563 -146.12692261 767.37310791 C-146.53351834 728.72786339 -146.53351834 728.72786339 -149.6875 690.25 C-149.81430145 689.23531647 -149.81430145 689.23531647 -149.94366455 688.20013428 C-157.97409572 624.19455532 -173.20180704 562.01310946 -214.58496094 510.75292969 C-215.84423307 509.19296179 -217.08372093 507.61706992 -218.3203125 506.0390625 C-226.26777462 496.03875039 -234.99461545 485.9388057 -244.859375 477.7734375 C-246.56817851 476.35774992 -248.23678072 474.89358265 -249.890625 473.4140625 C-297.4107908 431.0379422 -360.53174084 409.79965241 -423 403 C-423.88284668 402.89703613 -424.76569336 402.79407227 -425.67529297 402.68798828 C-515.04117513 392.5593216 -611.86996772 412.67651093 -682 471 Z M1148 1958 C1147.98277344 2021.81684809 1147.96688685 2085.63369646 1147.95765686 2149.45054626 C1147.9575188 2150.40260716 1147.95738075 2151.35466807 1147.95723851 2152.3355793 C1147.95424213 2173.05120133 1147.95147245 2193.76682339 1147.94893467 2214.48244548 C1147.94768788 2224.64869738 1147.94639125 2234.81494928 1147.94506836 2244.98120117 C1147.9449376 2245.99259777 1147.94480684 2247.00399438 1147.94467212 2248.04603936 C1147.94044858 2280.53499956 1147.93296654 2313.02395796 1147.92370278 2345.51291708 C1147.91416112 2379.03921699 1147.90808982 2412.56551591 1147.90608501 2446.09181715 C1147.90579706 2450.88140123 1147.90547143 2455.67098531 1147.90512276 2460.46056938 C1147.90505533 2461.40277042 1147.90498791 2462.34497147 1147.90491844 2463.31572405 C1147.90390124 2476.36232417 1147.9005893 2489.40892184 1147.89536357 2502.45552092 C1147.86745433 2572.20156405 1147.85556604 2641.94522579 1148.45141602 2711.68920898 C1148.46150788 2712.89085224 1148.47159974 2714.09249549 1148.48199742 2715.33055218 C1144.86045962 2857.89007648 1144.86045962 2857.89007648 1228.94921875 3096.765625 C1230.86385691 3098.85166886 1232.71822958 3100.97682046 1234.5625 3103.125 C1248.64035725 3119.24641718 1265.93121788 3132.64603019 1284 3144 C1284.6197168 3144.39364746 1285.23943359 3144.78729492 1285.87792969 3145.19287109 C1364.65153282 3194.80684834 1472.32713331 3202.32815054 1561.92529297 3182.34765625 C1603.90997956 3172.59690732 1642.18647944 3152.46528415 1676 3126 C1677.43859375 3124.88238281 1677.43859375 3124.88238281 1678.90625 3123.7421875 C1687.01234119 3117.28115599 1694.52380903 3110.16993736 1702 3103 C1702.55929199 3102.46407227 1703.11858398 3101.92814453 1703.69482422 3101.37597656 C1710.66407156 3094.6576643 1717.04307931 3087.64383628 1723 3080 C1723.80050781 3078.99324219 1724.60101562 3077.98648438 1725.42578125 3076.94921875 C1775.70720204 3013.25483346 1785.86469256 2931.59294074 1789 2853 C1789.04052962 2852.00129002 1789.08105925 2851.00258003 1789.12281704 2849.97360611 C1790.06790534 2825.89896434 1790.16345966 2801.84052661 1790.16702962 2777.75006366 C1790.16831184 2773.27534697 1790.17286397 2768.80063544 1790.17723483 2764.32592088 C1790.19100459 2749.8236671 1790.19112353 2735.32142767 1790.18809986 2720.81916904 C1790.18749908 2717.05673015 1790.18744969 2713.29429165 1790.18758392 2709.53185272 C1790.18994434 2621.3412662 1789.67231806 2533.17525609 1788 2445 C1787.97806076 2443.83764328 1787.95612152 2442.67528656 1787.93351746 2441.47770691 C1786.13680491 2346.71599051 1783.86119905 2256.72900559 1699 2093 C1698.37480469 2092.195625 1697.74960938 2091.39125 1697.10546875 2090.5625 C1695.1009879 2088.01505386 1693.0592404 2085.50339029 1691 2083 C1690.59507324 2082.50338867 1690.19014648 2082.00677734 1689.77294922 2081.49511719 C1677.9187069 2067.02577326 1664.81235493 2053.45068573 1650 2042 C1648.83986514 2041.05393966 1647.68249923 2040.1044776 1646.52734375 2039.15234375 C1567.63985231 1974.38917461 1470.49724496 1965.8085067 1244.98705024 1959.53055876 C1240.3050861 1959.42737189 1235.62313579 1959.32358514 1230.94119585 1959.21930629 C1223.4164126 1959.05174241 1215.89158985 1958.88619584 1208.36668336 1958.72425348 C1204.86832362 1958.64895805 1201.36998431 1958.57294469 1197.87168884 1958.49471474 C1193.99255274 1958.40850737 1190.11335699 1958.32569636 1186.23413086 1958.24365234 C1185.14454795 1958.2187375 1184.05496504 1958.19382265 1182.93236446 1958.16815281 C1175.12837563 1958.00793242 1167.32833553 1957.98764508 1159.52288151 1957.99372292 C1158.412636 1957.99417604 1157.30239049 1957.99462917 1156.15850118 1957.99509603 C1153.43900021 1957.99627145 1150.7195004 1957.99791818 1148 1958 Z " fill="#0332FF" transform="translate(1607,414)"/>
</svg>
