<svg xmlns="http://www.w3.org/2000/svg" width="1024" height="1024" viewBox="0 0 1024 1024">
<g>
<path d="M 404.94 697.88 C402.98,697.94 400.47,698.85 399.36,699.88 C397.87,701.27 396.88,701.51 395.60,700.80 C394.65,700.27 391.69,700.13 389.02,700.50 C385.85,700.93 383.37,700.73 381.84,699.91 C380.55,699.23 375.86,698.58 371.40,698.49 C366.95,698.39 362.75,697.96 362.07,697.54 C360.02,696.28 348.81,694.24 346.80,694.76 C345.78,695.03 344.16,694.59 343.22,693.79 C342.27,692.98 338.58,691.26 335.00,689.96 C331.42,688.66 327.85,686.96 327.06,686.18 C326.27,685.40 323.80,683.94 321.56,682.93 C319.33,681.91 315.70,679.72 313.50,678.04 C311.30,676.37 308.09,674.09 306.36,672.97 C304.63,671.85 303.00,670.09 302.73,669.07 C302.46,668.05 300.61,666.44 298.62,665.49 C296.63,664.55 295.00,663.09 295.00,662.26 C295.00,661.42 293.42,659.00 291.50,656.87 C289.58,654.74 288.00,652.38 288.00,651.62 C288.00,650.86 287.35,649.70 286.55,649.04 C284.74,647.54 281.00,639.92 281.00,637.74 C281.00,636.84 279.86,633.96 278.47,631.34 C276.68,627.98 276.12,625.75 276.55,623.77 C276.97,621.88 276.54,619.88 275.25,617.70 C272.40,612.86 271.86,603.76 271.85,560.50 C271.85,517.38 272.40,507.60 275.14,502.22 C276.17,500.21 277.00,497.06 277.00,495.20 C277.00,493.33 277.90,490.68 279.00,489.27 C280.10,487.87 281.00,485.69 281.00,484.41 C281.00,481.92 282.76,477.42 284.69,475.00 C285.35,474.17 287.69,471.28 289.90,468.58 C292.10,465.87 293.68,463.29 293.40,462.84 C292.75,461.79 301.93,452.84 302.99,453.49 C303.43,453.77 306.04,451.97 308.79,449.50 C312.72,445.97 314.55,445.00 317.31,445.00 C320.00,445.00 321.42,444.28 323.41,441.92 C324.83,440.23 326.00,438.49 326.00,438.05 C326.00,436.47 323.29,435.04 318.26,433.96 C315.05,433.27 312.03,431.79 310.12,429.96 C308.45,428.37 305.49,426.40 303.54,425.58 C301.59,424.77 300.00,423.68 300.00,423.17 C300.00,422.65 299.13,422.00 298.06,421.73 C296.99,421.45 295.40,419.48 294.51,417.36 C293.63,415.24 290.90,411.56 288.43,409.19 C285.97,406.82 284.22,404.45 284.56,403.91 C285.16,402.93 279.28,390.29 277.80,389.37 C277.36,389.10 277.00,386.94 277.00,384.58 C277.00,381.91 276.29,379.36 275.15,377.88 C272.54,374.52 271.87,364.04 272.02,329.00 C272.17,295.22 272.81,286.89 275.90,278.50 C277.12,275.20 278.47,271.14 278.90,269.48 C280.60,262.95 284.25,254.41 286.08,252.71 C287.14,251.73 288.00,250.53 288.00,250.05 C288.00,249.57 289.74,246.98 291.87,244.28 C294.00,241.59 296.04,238.44 296.41,237.28 C296.78,236.12 298.17,234.46 299.50,233.59 C300.83,232.72 305.18,228.88 309.15,225.06 C313.12,221.24 316.73,218.33 317.16,218.60 C317.58,218.86 318.51,218.16 319.21,217.04 C319.91,215.92 321.31,215.00 322.33,215.00 C323.35,215.00 325.33,214.10 326.73,213.00 C328.13,211.90 330.56,211.00 332.13,211.00 C333.98,211.00 335.00,210.48 335.00,209.54 C335.00,208.69 336.56,207.68 338.75,207.12 C340.81,206.59 346.33,205.17 351.00,203.96 C369.97,199.05 371.97,198.78 386.00,199.33 C399.30,199.85 422.02,204.05 422.83,206.15 C423.02,206.62 424.27,207.00 425.61,207.00 C427.92,207.00 438.92,211.96 441.85,214.32 C442.59,214.92 443.80,215.50 444.53,215.61 C446.86,215.95 454.95,222.01 457.26,225.16 C458.49,226.83 461.14,229.04 463.15,230.07 C465.45,231.25 468.53,234.46 471.46,238.72 C478.27,248.63 480.86,252.22 483.13,254.84 C484.24,256.13 485.33,258.09 485.54,259.20 C485.75,260.30 486.32,261.72 486.81,262.35 C488.44,264.48 490.23,272.87 489.82,276.44 C489.49,279.21 489.80,280.12 491.20,280.56 C492.44,280.96 493.00,282.13 493.00,284.37 C493.00,286.15 493.56,288.16 494.25,288.85 C495.21,289.81 495.58,303.84 495.84,350.30 C496.12,401.62 496.39,410.74 497.65,412.15 C498.99,413.65 505.24,413.77 569.81,413.53 C608.69,413.38 642.97,412.85 646.00,412.34 C649.03,411.83 652.62,410.69 654.00,409.81 C655.38,408.92 657.88,407.91 659.56,407.56 C663.23,406.80 672.28,399.12 675.42,394.10 C678.06,389.89 681.00,381.61 681.00,378.41 C681.00,377.17 681.44,376.02 681.99,375.83 C683.12,375.45 683.56,299.73 682.45,296.50 C677.33,281.60 673.32,275.38 665.31,269.98 C650.98,260.30 625.87,260.69 613.04,270.78 C606.78,275.71 604.19,278.75 601.79,284.00 C597.87,292.61 595.81,305.63 598.14,307.11 C599.14,307.74 599.17,307.97 598.25,307.98 C597.27,308.00 597.00,316.87 597.00,348.98 L 597.00 389.95 L 594.74 391.43 C592.89,392.65 587.41,392.93 564.49,393.00 C549.10,393.05 536.01,393.07 535.41,393.04 C534.81,393.02 533.69,391.76 532.91,390.25 C531.07,386.66 530.22,313.33 531.93,305.50 C532.53,302.75 533.41,296.35 533.87,291.27 C534.34,286.19 535.19,281.47 535.75,280.77 C536.32,280.07 537.02,277.48 537.31,275.00 C537.96,269.48 544.16,254.09 546.38,252.46 C547.27,251.81 548.00,250.61 548.00,249.79 C548.00,248.98 548.90,247.50 550.00,246.50 C551.10,245.50 552.00,244.03 552.00,243.23 C552.00,241.95 556.05,236.41 559.11,233.50 C559.69,232.95 562.59,230.14 565.56,227.25 C568.53,224.36 571.36,222.00 571.85,222.00 C572.34,222.00 575.00,220.20 577.76,218.00 C580.53,215.80 583.31,214.00 583.95,214.00 C584.58,214.00 586.76,212.88 588.79,211.50 C590.81,210.12 593.02,209.00 593.71,209.00 C594.79,209.00 596.90,208.14 606.68,203.72 C607.89,203.18 609.87,202.99 611.09,203.31 C612.31,203.63 615.83,203.20 618.91,202.35 C632.38,198.63 640.40,198.36 663.50,200.87 C673.09,201.91 674.43,202.30 683.72,206.63 C687.69,208.48 691.57,210.00 692.34,210.00 C693.10,210.00 694.90,210.92 696.34,212.05 C697.77,213.18 699.81,214.27 700.86,214.47 C704.32,215.14 710.45,218.76 713.44,221.91 C715.05,223.61 716.75,225.00 717.21,225.00 C718.00,225.00 725.20,232.06 731.37,238.90 C737.21,245.36 744.00,257.20 744.00,260.91 C744.00,261.99 744.45,263.16 745.00,263.50 C747.47,265.03 750.84,274.87 751.49,282.50 C751.87,286.90 752.58,292.63 753.06,295.24 C753.55,297.85 753.98,314.95 754.02,333.24 C754.08,360.27 753.80,367.59 752.55,372.30 C751.70,375.49 751.00,379.40 751.00,380.99 C751.00,382.58 750.55,384.16 750.00,384.50 C749.45,384.84 749.00,386.38 749.00,387.92 C749.00,389.47 748.19,391.80 747.21,393.12 C746.22,394.43 744.62,398.08 743.66,401.24 C742.69,404.40 741.11,407.40 740.15,407.92 C739.18,408.44 737.52,410.47 736.46,412.44 C735.41,414.40 733.71,416.28 732.69,416.60 C731.68,416.92 731.11,417.45 731.44,417.77 C732.40,418.74 726.76,424.06 723.16,425.57 C721.32,426.34 719.60,427.81 719.33,428.83 C719.03,429.99 716.92,431.34 713.67,432.43 C702.79,436.12 699.50,437.60 699.60,438.78 C699.66,439.45 699.77,440.62 699.85,441.37 C699.94,442.16 701.63,442.96 703.86,443.25 C708.95,443.94 713.47,446.16 719.53,450.95 C725.18,455.41 730.98,461.13 730.99,462.25 C731.00,462.67 732.80,464.63 735.00,466.62 C737.20,468.61 739.00,470.64 739.00,471.14 C739.00,471.63 740.20,473.94 741.67,476.27 C744.56,480.83 748.00,489.45 748.00,492.11 C748.00,493.02 748.67,494.32 749.50,495.00 C750.33,495.68 751.00,497.67 751.00,499.41 C751.00,501.15 751.67,505.14 752.48,508.28 C753.68,512.87 754.00,522.98 754.14,560.24 C754.29,600.30 754.07,607.97 752.54,617.47 C751.56,623.50 750.19,629.35 749.50,630.47 C748.81,631.58 747.93,633.85 747.55,635.50 C746.68,639.33 741.83,649.00 740.79,649.00 C740.36,649.00 740.00,649.87 740.00,650.93 C740.00,651.99 738.65,653.83 737.00,655.00 C735.35,656.17 734.00,657.60 734.00,658.17 C734.00,659.29 728.01,667.28 726.76,667.83 C726.34,668.02 726.00,668.80 726.00,669.58 C726.00,670.36 725.53,671.00 724.95,671.00 C724.38,671.00 721.79,673.09 719.20,675.65 C716.62,678.21 712.25,681.36 709.50,682.65 C706.75,683.94 703.83,685.42 703.00,685.94 C699.87,687.90 690.36,691.80 687.00,692.51 C685.08,692.91 680.63,694.31 677.13,695.62 C672.94,697.18 668.64,698.00 664.57,698.00 C659.77,698.00 657.90,698.45 656.24,699.99 C654.57,701.55 653.56,701.78 651.69,701.07 C650.36,700.57 647.42,700.40 645.15,700.71 C642.57,701.05 640.46,700.80 639.53,700.02 C638.64,699.28 634.12,698.66 628.27,698.48 C622.90,698.31 616.25,697.66 613.50,697.03 C610.75,696.40 606.92,695.63 605.00,695.31 C603.08,694.99 600.47,693.92 599.20,692.94 C597.94,691.95 595.46,690.83 593.70,690.45 C589.19,689.47 583.35,686.36 582.66,684.57 C582.34,683.73 579.97,682.52 577.40,681.87 C574.18,681.06 571.26,679.30 568.11,676.26 C565.57,673.82 561.81,670.29 559.75,668.41 C557.68,666.53 556.32,665.00 556.72,665.00 C557.12,665.00 556.51,664.34 555.36,663.54 C554.22,662.74 552.32,659.84 551.14,657.10 C549.96,654.36 548.54,651.83 547.98,651.49 C547.43,651.14 546.32,649.30 545.52,647.40 C544.72,645.49 543.38,643.24 542.54,642.39 C541.69,641.55 541.00,639.64 541.00,638.15 C541.00,636.66 540.26,634.39 539.35,633.09 C538.44,631.80 537.75,629.33 537.80,627.62 C537.85,625.90 537.22,623.47 536.40,622.22 C535.59,620.97 535.12,619.62 535.37,619.21 C535.94,618.29 533.39,597.96 531.97,592.11 C531.26,589.22 530.95,567.91 531.06,529.80 C531.14,497.94 530.92,471.59 530.57,471.23 C530.21,470.88 524.07,470.72 516.92,470.88 C508.05,471.08 503.47,470.80 502.51,470.01 C501.41,469.09 500.55,469.24 498.63,470.67 L 496.16 472.50 L 495.83 545.00 L 495.50 617.50 L 493.19 621.18 C491.92,623.21 491.00,625.46 491.14,626.18 C491.59,628.46 489.90,635.36 488.00,639.00 C487.00,640.92 484.54,645.99 482.53,650.25 C480.52,654.51 478.46,658.00 477.95,658.00 C477.44,658.00 475.89,659.80 474.50,662.00 C473.11,664.20 471.32,666.00 470.52,666.00 C468.90,666.00 466.72,669.38 467.70,670.37 C468.05,670.72 467.83,671.00 467.21,671.00 C466.59,671.00 464.46,672.75 462.48,674.89 C460.50,677.04 456.32,680.20 453.19,681.93 C450.06,683.66 445.05,686.45 442.05,688.13 C439.05,689.82 435.72,691.36 434.66,691.57 C430.08,692.45 421.39,695.28 420.17,696.28 C419.44,696.89 416.51,697.46 413.67,697.57 C410.83,697.67 406.90,697.81 404.94,697.88 ZM 372.50 633.89 C375.71,635.36 378.57,635.67 387.00,635.48 C397.82,635.24 401.53,634.22 411.50,628.78 C416.06,626.30 422.93,619.24 422.98,617.00 C423.00,616.17 423.91,614.15 425.00,612.50 C426.09,610.85 426.99,608.54 426.99,607.36 C427.00,606.19 427.67,603.94 428.49,602.37 C429.78,599.87 429.97,580.04 429.96,447.57 C429.94,301.17 429.87,295.53 428.08,292.57 C427.05,290.88 425.91,288.04 425.53,286.26 C425.15,284.48 424.42,282.76 423.91,282.44 C423.39,282.12 422.32,280.32 421.54,278.43 C420.75,276.54 419.68,275.00 419.17,275.00 C418.65,275.00 416.71,273.49 414.86,271.65 C409.82,266.63 392.17,261.12 385.78,262.57 C383.97,262.98 380.82,263.23 378.78,263.12 C376.73,263.01 373.71,263.61 372.08,264.46 C370.44,265.31 367.95,266.00 366.55,266.00 C365.15,266.00 363.21,266.91 362.25,268.02 C361.29,269.13 358.70,271.95 356.50,274.30 C343.23,288.42 342.84,290.18 343.05,334.50 C343.26,376.83 343.27,377.10 344.75,379.68 C345.44,380.89 346.00,382.83 346.00,384.00 C346.00,386.72 347.39,389.30 350.58,392.49 C351.97,393.88 352.84,395.44 352.52,395.96 C352.20,396.49 353.08,397.66 354.47,398.57 C355.86,399.48 357.00,400.88 357.00,401.67 C357.00,402.46 358.31,403.56 359.92,404.12 C361.53,404.68 363.09,405.78 363.39,406.57 C363.69,407.36 364.87,408.00 366.02,408.00 C367.16,408.00 369.54,408.75 371.30,409.67 C376.74,412.51 382.05,413.38 394.36,413.48 L 406.22 413.57 L 407.69 416.37 C408.89,418.67 409.10,423.60 408.83,443.67 C408.52,466.55 408.37,468.26 406.56,469.58 C405.15,470.61 401.48,471.00 393.21,471.00 C386.49,471.00 379.69,471.58 376.65,472.41 C373.82,473.19 370.15,474.12 368.50,474.49 C364.92,475.28 352.22,488.22 351.32,492.00 C350.99,493.38 350.38,494.95 349.97,495.50 C348.18,497.87 344.66,504.74 343.82,507.50 C342.62,511.47 342.78,599.62 344.00,603.50 C344.52,605.15 345.66,608.83 346.53,611.67 C347.67,615.41 349.58,618.32 353.41,622.17 C360.03,628.83 364.28,631.99 366.66,632.03 C367.67,632.04 370.30,632.88 372.50,633.89 ZM 626.38 633.81 C631.41,636.50 649.26,636.57 653.62,633.91 C655.33,632.86 657.90,632.00 659.32,632.00 C666.06,632.00 680.00,617.58 680.00,610.60 C680.00,609.13 680.66,606.37 681.46,604.45 C682.65,601.60 682.93,593.33 683.01,559.23 C683.08,533.57 682.72,516.21 682.10,514.16 C681.54,512.32 681.35,509.50 681.67,507.88 C682.06,505.95 681.73,504.35 680.72,503.22 C679.88,502.28 678.70,499.70 678.11,497.50 C677.32,494.58 674.67,491.08 668.28,484.50 C656.26,472.12 655.75,471.97 623.50,471.09 C609.75,470.71 598.13,470.71 597.67,471.08 C597.21,471.46 596.88,500.73 596.94,536.13 C597.03,589.30 597.29,601.20 598.48,604.50 C599.27,606.70 599.94,609.62 599.97,611.00 C600.01,612.38 601.28,615.30 602.79,617.50 C606.07,622.27 612.99,629.84 613.00,628.68 C613.00,628.22 614.19,628.79 615.63,629.93 C617.08,631.07 619.34,632.00 620.64,632.00 C621.94,632.00 624.52,632.81 626.38,633.81 ZM 440.00 768.11 C440.00,769.46 439.29,770.00 437.50,770.00 C436.12,770.00 434.97,769.89 434.94,769.75 C434.77,769.03 433.97,761.32 433.95,760.25 C433.83,752.00 434.38,743.16 435.11,741.79 C436.37,739.45 442.43,738.50 447.93,739.78 C450.44,740.37 453.74,741.12 455.25,741.45 C459.79,742.42 462.87,748.27 462.77,755.73 C462.69,760.81 462.27,762.34 460.44,764.05 C457.48,766.84 456.87,765.47 458.68,760.11 C460.59,754.49 459.74,750.00 456.02,746.02 C453.24,743.05 452.80,742.92 446.30,743.20 L 439.50 743.50 L 438.89 751.00 C438.55,755.12 437.95,759.96 437.56,761.75 C437.01,764.25 437.21,765.14 438.42,765.61 C439.29,765.94 440.00,767.07 440.00,768.11 ZM 275.00 770.00 C275.00,770.58 271.73,771.00 267.18,771.00 L 259.37 771.00 L 257.37 767.25 C255.70,764.12 255.41,761.87 255.60,753.62 C255.76,746.93 256.27,743.34 257.17,742.50 C259.35,740.47 267.15,739.04 271.00,739.96 C272.92,740.42 274.05,740.88 273.50,740.97 C272.95,741.07 271.60,741.36 270.50,741.62 C269.40,741.87 266.70,742.35 264.50,742.67 C259.89,743.36 258.42,744.30 257.71,746.99 C256.75,750.66 259.21,752.25 266.59,752.75 C270.39,753.01 273.62,753.33 273.77,753.46 C273.92,753.60 273.81,754.34 273.51,755.11 C273.13,756.10 271.12,756.50 266.54,756.50 C263.00,756.50 259.67,756.95 259.14,757.50 C258.61,758.05 258.02,760.30 257.84,762.50 L 257.50 766.50 L 266.26 767.00 C271.08,767.28 275.02,767.84 275.01,768.25 C275.00,768.66 275.00,769.45 275.00,770.00 ZM 650.35 765.47 C650.46,767.58 649.99,768.55 648.75,768.80 C647.32,769.08 646.97,768.36 646.82,764.82 C646.52,757.61 646.88,746.79 647.43,746.24 C648.20,745.47 651.00,748.04 651.00,749.50 C651.00,750.85 654.56,752.49 659.70,753.51 C662.33,754.02 663.30,753.68 665.20,751.54 C666.46,750.12 668.24,747.05 669.13,744.73 C671.01,739.88 672.36,739.31 672.81,743.18 C673.03,745.10 672.51,746.19 670.98,747.01 C669.81,747.64 669.08,748.76 669.36,749.50 C669.65,750.25 669.23,751.39 668.44,752.05 C666.58,753.59 666.62,755.49 668.55,758.44 C670.71,761.73 668.80,762.48 665.97,759.47 C664.70,758.11 663.17,757.00 662.58,756.99 C661.98,756.99 660.35,756.39 658.94,755.65 C653.89,753.02 649.96,757.52 650.35,765.47 ZM 513.81 769.25 C514.09,770.72 513.37,771.00 509.27,771.00 C504.24,771.00 502.00,769.77 502.00,767.00 C502.00,766.12 501.57,764.97 501.06,764.45 C500.52,763.91 500.36,760.16 500.70,755.80 L 501.28 748.09 L 503.95 750.94 C505.92,753.05 507.27,753.67 509.14,753.31 C510.98,752.96 511.67,753.26 511.67,754.42 C511.67,756.19 510.44,756.52 509.51,755.01 C509.15,754.44 507.82,755.01 506.38,756.35 C504.36,758.22 503.92,759.46 504.18,762.59 C504.49,766.42 504.59,766.51 508.99,767.00 C512.23,767.36 513.58,767.99 513.81,769.25 ZM 741.80 767.80 C740.44,769.16 739.05,769.37 738.90,768.25 C738.85,767.84 738.89,763.56 738.99,758.75 C739.10,753.44 738.77,750.00 738.16,750.00 C737.61,750.00 736.87,748.67 736.51,747.05 C736.11,745.20 735.04,743.85 733.68,743.46 C729.77,742.32 726.00,740.53 726.00,739.81 C726.00,739.42 726.75,738.68 727.67,738.17 C729.34,737.23 729.94,737.51 733.97,741.15 C734.98,742.06 736.75,743.10 737.90,743.47 C739.06,743.84 740.03,744.89 740.08,745.82 C740.23,749.26 740.92,751.47 741.95,751.82 C743.43,752.31 743.31,766.29 741.80,767.80 ZM 693.80 767.80 C690.72,770.88 690.20,769.36 690.25,757.50 C690.27,752.00 689.99,746.55 689.62,745.39 C688.73,742.57 691.35,740.22 693.45,741.96 C694.52,742.85 694.65,743.79 693.95,745.64 C693.34,747.24 693.36,748.80 694.00,750.00 C695.42,752.66 695.27,766.33 693.80,767.80 ZM 715.42 768.39 C712.39,769.56 712.13,768.95 712.24,761.01 C712.30,756.61 712.06,752.73 711.71,752.38 C710.91,751.57 716.75,743.00 718.11,743.00 C718.66,743.00 718.84,742.55 718.50,742.00 C718.16,741.45 718.32,741.00 718.86,741.00 C719.40,741.00 720.55,740.73 721.42,740.39 C722.29,740.06 723.00,740.25 723.00,740.83 C723.00,741.40 722.10,742.15 721.00,742.50 C717.89,743.49 716.92,746.36 716.70,755.27 C716.59,759.80 716.05,763.83 715.50,764.23 C714.88,764.69 714.98,764.98 715.75,764.98 C717.55,765.01 717.29,767.67 715.42,768.39 ZM 361.23 768.88 C356.94,771.07 354.81,771.48 353.68,770.34 C352.46,769.13 355.22,767.00 358.00,767.00 C359.52,767.00 361.32,766.33 362.00,765.50 C362.68,764.67 363.86,764.00 364.60,764.00 C367.53,764.00 368.44,752.47 365.90,747.50 C365.06,745.85 363.91,744.59 363.35,744.69 C362.79,744.80 362.33,744.24 362.33,743.44 C362.33,742.65 363.13,742.00 364.10,742.00 C368.69,742.00 372.17,754.24 369.44,760.79 C367.71,764.94 366.37,766.26 361.23,768.88 ZM 390.51 759.41 C390.50,765.76 390.13,768.45 389.22,768.76 C388.22,769.09 387.97,766.81 388.08,758.53 C388.22,747.52 389.72,742.00 392.57,742.00 C393.36,742.00 394.00,741.55 394.00,741.00 C394.00,740.45 395.38,740.00 397.07,740.00 C398.75,740.00 400.95,739.56 401.96,739.02 C403.27,738.32 404.12,738.44 404.95,739.44 C406.23,740.98 405.54,741.31 398.81,742.45 C395.96,742.93 394.60,743.91 392.82,746.78 C390.88,749.93 390.52,751.87 390.51,759.41 ZM 763.21 760.75 C763.48,763.64 763.62,766.00 763.51,766.00 C763.40,766.00 762.46,765.06 761.42,763.91 C759.98,762.32 759.49,760.14 759.38,754.91 C759.31,751.11 759.63,748.00 760.10,748.00 C760.57,748.00 761.59,746.75 762.38,745.23 C764.52,741.10 776.73,737.13 778.50,740.00 C778.84,740.55 778.64,741.06 778.06,741.12 C775.28,741.45 769.77,743.00 766.79,744.28 C764.89,745.10 763.65,746.78 762.61,749.95 C761.79,752.43 761.48,754.69 761.92,754.98 C762.36,755.27 762.94,757.86 763.21,760.75 ZM 600.22 750.07 C598.49,756.96 597.43,758.05 595.85,754.58 C594.89,752.46 594.88,751.43 595.81,749.94 C596.46,748.89 597.00,747.36 597.00,746.55 C597.00,745.74 598.00,744.53 599.23,743.88 C600.46,743.22 602.06,742.08 602.80,741.34 C603.54,740.60 605.15,740.00 606.37,740.00 C607.60,740.00 609.11,739.49 609.73,738.87 C611.23,737.38 616.00,738.63 616.00,740.52 C616.00,741.55 614.86,742.02 612.25,742.08 C610.19,742.12 606.94,742.71 605.04,743.40 C601.99,744.50 601.43,745.28 600.22,750.07 ZM 218.45 769.27 C217.69,771.26 214.48,771.58 213.36,769.78 C212.47,768.34 212.08,748.00 212.94,748.00 C213.26,748.00 214.74,749.13 216.23,750.51 C218.98,753.06 219.03,754.87 216.47,758.00 C213.41,761.73 214.12,765.87 218.04,767.18 C218.63,767.38 218.82,768.32 218.45,769.27 ZM 567.45 769.41 C565.72,771.14 562.00,771.58 562.00,770.06 C562.00,768.82 563.08,768.21 566.23,767.63 C567.66,767.38 570.19,765.74 571.86,763.99 C574.60,761.12 574.85,760.32 574.50,755.49 C574.21,751.46 574.47,750.03 575.59,749.60 C576.55,749.24 577.40,749.93 578.03,751.58 C579.47,755.37 579.22,757.45 577.00,760.27 C575.90,761.67 575.00,763.25 575.00,763.79 C575.00,765.02 572.22,767.35 570.42,767.61 C569.66,767.73 568.32,768.53 567.45,769.41 ZM 344.24 767.34 C344.93,767.61 345.05,767.87 344.50,767.91 C343.95,767.94 342.83,767.53 342.00,767.00 C341.17,766.47 340.89,766.02 341.36,766.02 C341.83,766.01 341.30,765.21 340.17,764.25 C338.63,762.94 338.00,760.95 337.66,756.31 C337.24,750.65 337.46,749.77 340.19,746.06 C343.09,742.12 345.00,740.92 345.00,743.04 C345.00,743.61 344.09,745.32 342.97,746.83 C341.68,748.57 340.91,751.21 340.87,754.04 C340.78,759.59 341.92,765.00 343.17,765.00 C343.69,765.00 343.86,765.41 343.55,765.91 C343.24,766.42 343.55,767.06 344.24,767.34 ZM 523.00 754.15 C523.00,755.26 518.28,755.26 517.59,754.15 C517.30,753.68 518.18,752.71 519.53,751.98 C522.76,750.25 523.08,744.48 520.00,743.50 C517.87,742.82 517.32,740.54 519.03,739.48 C520.56,738.53 526.84,744.19 526.93,746.60 C526.97,747.75 526.10,749.73 525.00,751.00 C523.90,752.27 523.00,753.69 523.00,754.15 ZM 551.00 766.21 C551.00,767.54 549.42,767.09 547.15,765.13 C545.86,764.01 545.00,762.09 545.00,760.33 C545.00,758.72 544.49,756.89 543.86,756.26 C543.00,755.40 543.03,754.35 543.98,752.06 C545.87,747.50 547.51,748.25 547.42,753.62 C547.37,756.27 548.12,759.77 549.17,761.83 C550.18,763.81 551.00,765.78 551.00,766.21 ZM 625.94 763.21 C622.83,766.33 621.78,766.74 622.64,764.50 C622.95,763.67 623.62,763.00 624.11,763.00 C624.60,763.00 625.00,761.23 625.00,759.07 C625.00,756.90 625.42,754.02 625.93,752.67 C626.68,750.70 626.38,749.55 624.43,746.91 C624.22,746.61 624.01,746.34 623.83,746.09 C622.53,744.33 622.05,743.69 622.20,743.45 C622.29,743.32 622.59,743.32 623.07,743.33 C623.19,743.33 623.32,743.33 623.46,743.33 C624.26,743.33 624.68,743.71 624.40,744.17 C624.11,744.62 624.28,745.00 624.76,745.00 C625.24,745.00 626.65,747.46 627.90,750.46 C630.48,756.70 630.12,759.03 625.94,763.21 ZM 618.30 768.66 C617.53,770.66 605.14,770.52 604.36,768.51 C604.05,767.68 603.50,767.19 603.13,767.42 C602.31,767.93 599.56,765.82 599.32,764.50 C599.23,763.95 598.84,762.71 598.47,761.75 C597.32,758.80 599.84,759.79 601.46,762.93 C603.25,766.39 604.51,766.86 612.66,767.12 C617.34,767.27 618.69,767.64 618.30,768.66 ZM 309.00 766.95 C309.00,768.11 308.35,769.00 307.50,769.00 C306.67,769.00 306.00,768.15 306.00,767.11 C306.00,765.20 303.11,757.71 303.04,759.44 C302.99,760.54 300.08,756.89 300.03,755.68 C300.01,755.22 301.22,755.81 302.70,756.98 C304.19,758.15 306.55,759.04 307.95,758.95 C312.01,758.69 312.13,758.84 310.53,761.95 C309.69,763.57 309.00,765.82 309.00,766.95 ZM 526.23 765.50 C524.30,768.14 521.37,769.84 520.11,769.07 C519.04,768.41 519.20,767.80 520.88,766.12 C522.11,764.89 523.00,762.72 523.00,760.96 C523.00,758.24 523.20,758.04 525.00,759.00 C526.98,760.06 527.65,763.57 526.23,765.50 ZM 299.00 752.01 C299.00,753.17 297.91,753.27 296.50,752.23 C294.93,751.08 291.90,743.97 292.54,742.93 C292.86,742.42 293.90,742.00 294.85,742.00 C296.06,742.00 296.95,743.36 297.79,746.51 C298.46,749.00 299.00,751.47 299.00,752.01 ZM 234.98 744.75 C235.01,746.48 234.14,746.29 229.22,743.46 C226.87,742.11 223.72,740.95 222.22,740.88 C220.73,740.81 222.20,740.36 225.50,739.88 C231.07,739.07 231.62,739.17 233.23,741.25 C234.18,742.49 234.97,744.06 234.98,744.75 ZM 559.93 741.40 C557.62,741.76 554.92,743.05 553.68,744.37 C551.43,746.77 549.00,746.84 549.00,744.50 C549.00,743.76 550.31,742.87 551.92,742.52 C553.52,742.17 555.08,741.23 555.39,740.44 C555.74,739.52 557.38,739.00 559.97,739.00 C565.20,739.00 565.17,740.56 559.93,741.40 ZM 319.48 749.43 C318.53,752.70 317.40,754.67 316.48,754.67 C314.54,754.67 314.61,753.01 316.65,750.09 C317.56,748.79 318.35,746.37 318.40,744.70 C318.45,743.03 319.06,741.48 319.75,741.25 C321.41,740.70 321.33,743.07 319.48,749.43 ZM 416.00 759.00 C416.00,763.44 415.54,767.17 414.95,767.53 C414.24,767.97 413.95,765.25 414.08,759.11 C414.30,748.06 416.00,747.96 416.00,759.00 ZM 507.27 742.59 C504.77,745.09 500.60,744.20 501.68,741.40 C502.06,740.40 503.84,740.04 507.86,740.14 C510.96,740.21 512.41,740.48 511.09,740.73 C509.76,740.98 508.04,741.82 507.27,742.59 ZM 786.80 762.12 C787.02,765.57 786.71,766.90 785.55,767.34 C784.09,767.90 783.47,766.78 783.99,764.50 C784.11,763.95 784.29,762.26 784.38,760.74 C784.64,756.13 786.48,757.18 786.80,762.12 ZM 233.84 753.88 C232.40,756.19 230.51,756.63 229.44,754.90 C228.41,753.23 232.71,749.31 234.07,750.67 C234.86,751.46 234.80,752.35 233.84,753.88 ZM 414.32 746.61 C413.66,748.32 412.77,748.37 411.20,746.80 C409.77,745.37 409.62,742.35 410.93,741.54 C412.21,740.75 414.98,744.90 414.32,746.61 ZM 235.80 765.80 C235.14,766.46 234.26,767.00 233.85,767.00 C232.90,767.00 234.89,761.18 236.10,760.44 C237.45,759.60 237.18,764.42 235.80,765.80 ZM 218.00 740.96 C218.00,742.22 214.45,744.12 213.63,743.30 C212.14,741.81 213.17,740.00 215.50,740.00 C216.88,740.00 218.00,740.43 218.00,740.96 ZM 571.98 744.25 C572.01,745.56 569.29,745.06 568.01,743.51 C567.01,742.30 567.10,741.90 568.49,741.37 C570.06,740.76 571.95,742.32 571.98,744.25 ZM 454.00 768.03 C454.00,768.56 452.31,768.95 450.25,768.90 L 446.50 768.80 L 449.50 767.97 C451.15,767.52 453.51,766.84 454.75,766.46 C456.23,766.00 457.00,766.18 457.00,766.99 C457.00,767.67 456.33,767.96 455.50,767.64 C454.67,767.32 454.00,767.50 454.00,768.03 ZM 779.00 769.06 C779.00,770.25 776.41,770.87 775.02,770.01 C774.04,769.41 774.21,768.96 775.73,768.14 C777.65,767.12 779.00,767.50 779.00,769.06 ZM 557.45 769.09 C556.72,770.26 554.28,770.27 553.56,769.10 C553.26,768.61 553.57,768.00 554.26,767.75 C556.01,767.11 558.12,767.99 557.45,769.09 ZM 649.00 742.50 C649.00,745.12 648.77,745.44 647.67,744.33 C646.63,743.30 646.88,740.00 648.00,740.00 C648.55,740.00 649.00,741.12 649.00,742.50 ZM 225.00 754.00 C223.08,755.24 222.27,755.24 221.50,754.00 C221.14,753.42 222.07,753.01 223.69,753.02 C225.87,753.03 226.16,753.25 225.00,754.00 ZM 784.50 742.00 C784.84,742.55 784.42,743.00 783.56,743.00 C782.70,743.00 782.00,742.55 782.00,742.00 C782.00,741.45 782.42,741.00 782.94,741.00 C783.46,741.00 784.16,741.45 784.50,742.00 ZM 673.00 767.00 C673.00,767.55 672.58,768.00 672.06,768.00 C671.54,768.00 670.84,767.55 670.50,767.00 C670.16,766.45 670.58,766.00 671.44,766.00 C672.30,766.00 673.00,766.45 673.00,767.00 Z" fill="rgb(78,108,254)"/>
<path d="M 372.50 633.89 C370.30,632.88 367.67,632.04 366.66,632.03 C364.28,631.99 360.03,628.83 353.41,622.17 C349.58,618.32 347.67,615.41 346.53,611.67 C345.66,608.83 344.52,605.15 344.00,603.50 C342.78,599.62 342.62,511.47 343.82,507.50 C344.66,504.74 348.18,497.87 349.97,495.50 C350.38,494.95 350.99,493.38 351.32,492.00 C352.22,488.22 364.92,475.28 368.50,474.49 C370.15,474.12 373.82,473.19 376.65,472.41 C379.69,471.58 386.49,471.00 393.21,471.00 C401.48,471.00 405.15,470.61 406.56,469.58 C408.37,468.26 408.52,466.55 408.83,443.67 C409.10,423.60 408.89,418.67 407.69,416.37 L 406.22 413.57 L 394.36 413.48 C382.05,413.38 376.74,412.51 371.30,409.67 C369.54,408.75 367.16,408.00 366.02,408.00 C364.87,408.00 363.69,407.36 363.39,406.57 C363.09,405.78 361.53,404.68 359.92,404.12 C358.31,403.56 357.00,402.46 357.00,401.67 C357.00,400.88 355.86,399.48 354.47,398.57 C353.08,397.66 352.20,396.49 352.52,395.96 C352.84,395.44 351.97,393.88 350.58,392.49 C347.39,389.30 346.00,386.72 346.00,384.00 C346.00,382.83 345.44,380.89 344.75,379.68 C343.27,377.10 343.26,376.83 343.05,334.50 C342.84,290.18 343.23,288.42 356.50,274.30 C358.70,271.95 361.29,269.13 362.25,268.02 C363.21,266.91 365.15,266.00 366.55,266.00 C367.95,266.00 370.44,265.31 372.08,264.46 C373.71,263.61 376.73,263.01 378.78,263.12 C380.82,263.23 383.97,262.98 385.78,262.57 C392.17,261.12 409.82,266.63 414.86,271.65 C416.71,273.49 418.65,275.00 419.17,275.00 C419.68,275.00 420.75,276.54 421.54,278.43 C422.32,280.32 423.39,282.12 423.91,282.44 C424.42,282.76 425.15,284.48 425.53,286.26 C425.91,288.04 427.05,290.88 428.08,292.57 C429.87,295.53 429.94,301.17 429.96,447.57 C429.97,580.04 429.78,599.87 428.49,602.37 C427.67,603.94 427.00,606.19 426.99,607.36 C426.99,608.54 426.09,610.85 425.00,612.50 C423.91,614.15 423.00,616.17 422.98,617.00 C422.93,619.24 416.06,626.30 411.50,628.78 C401.53,634.22 397.82,635.24 387.00,635.48 C378.57,635.67 375.71,635.36 372.50,633.89 ZM 373.00 631.62 C380.22,633.72 397.18,632.85 404.50,630.00 C413.42,626.54 421.81,617.77 425.05,608.50 L 427.50 601.50 L 427.79 453.50 C427.98,351.73 427.74,303.47 427.00,299.00 C424.73,285.17 416.79,274.21 405.00,268.59 C398.88,265.68 397.84,265.50 387.00,265.55 C377.48,265.58 374.52,265.98 369.80,267.85 C357.06,272.89 348.33,285.29 345.35,302.54 C343.21,314.96 343.92,367.33 346.36,376.77 C350.93,394.43 362.95,406.34 379.80,409.89 C382.71,410.50 390.93,411.00 398.05,411.00 L 411.00 411.00 L 411.00 472.00 L 399.75 472.02 C379.92,472.05 367.84,476.19 358.36,486.21 C352.39,492.52 350.10,496.67 346.85,507.01 C344.54,514.37 344.50,515.22 344.50,556.00 C344.50,593.48 344.68,598.08 346.34,603.47 C351.16,619.10 359.24,627.63 373.00,631.62 ZM 626.38 633.81 C624.52,632.81 621.94,632.00 620.64,632.00 C619.34,632.00 617.08,631.07 615.63,629.93 C614.19,628.79 613.00,628.22 613.00,628.68 C612.99,629.84 606.07,622.27 602.79,617.50 C601.28,615.30 600.01,612.38 599.97,611.00 C599.94,609.62 599.27,606.70 598.48,604.50 C597.29,601.20 597.03,589.30 596.94,536.13 C596.88,500.73 597.21,471.46 597.67,471.08 C598.13,470.71 609.75,470.71 623.50,471.09 C655.75,471.97 656.26,472.12 668.28,484.50 C674.67,491.08 677.32,494.58 678.11,497.50 C678.70,499.70 679.88,502.28 680.72,503.22 C681.73,504.35 682.06,505.95 681.67,507.88 C681.35,509.50 681.54,512.32 682.10,514.16 C682.72,516.21 683.08,533.57 683.01,559.23 C682.93,593.33 682.65,601.60 681.46,604.45 C680.66,606.37 680.00,609.13 680.00,610.60 C680.00,617.58 666.06,632.00 659.32,632.00 C657.90,632.00 655.33,632.86 653.62,633.91 C649.26,636.57 631.41,636.50 626.38,633.81 ZM 627.25 631.52 C630.80,632.51 635.90,632.89 643.00,632.67 C652.37,632.39 654.21,632.02 660.13,629.19 C670.78,624.09 677.38,615.09 680.58,601.30 C681.89,595.65 682.08,588.24 681.75,554.54 C681.39,516.48 681.26,514.13 679.11,507.00 C676.18,497.25 672.18,490.38 666.17,484.75 C660.85,479.78 657.54,477.83 649.09,474.72 C644.22,472.93 640.56,472.61 620.75,472.24 L 598.00 471.81 L 598.01 531.66 C598.01,567.53 598.42,594.02 599.04,597.79 C600.70,608.02 603.79,614.89 609.40,620.83 C614.96,626.71 619.22,629.26 627.25,631.52 ZM 404.94 697.88 C406.90,697.81 410.83,697.67 413.67,697.57 C416.51,697.46 419.44,696.89 420.17,696.28 C421.39,695.28 430.08,692.45 434.66,691.57 C435.72,691.36 439.05,689.82 442.05,688.13 C445.05,686.45 450.06,683.66 453.19,681.93 C456.32,680.20 460.50,677.04 462.48,674.89 C464.46,672.75 466.59,671.00 467.21,671.00 C467.83,671.00 468.05,670.72 467.70,670.37 C466.72,669.38 468.90,666.00 470.52,666.00 C471.32,666.00 473.11,664.20 474.50,662.00 C475.89,659.80 477.44,658.00 477.95,658.00 C478.46,658.00 480.52,654.51 482.53,650.25 C484.54,645.99 487.00,640.92 488.00,639.00 C489.90,635.36 491.59,628.46 491.14,626.18 C491.00,625.46 491.92,623.21 493.19,621.18 L 495.50 617.50 L 495.83 545.00 L 496.16 472.50 L 498.63 470.67 C500.55,469.24 501.41,469.09 502.51,470.01 C503.47,470.80 508.05,471.08 516.92,470.88 C524.07,470.72 530.21,470.88 530.57,471.23 C530.92,471.59 531.14,497.94 531.06,529.80 C531.04,535.17 531.04,540.21 531.04,544.91 L 531.03 543.50 L 530.50 472.50 L 498.11 471.95 L 497.77 543.73 L 497.43 615.50 L 494.82 625.07 C485.97,657.50 469.94,677.23 441.62,690.53 C430.85,695.59 421.12,698.43 407.46,700.49 C382.30,704.28 353.56,700.58 330.10,690.54 C295.67,675.81 274.32,644.66 270.04,602.92 C268.71,589.97 268.69,531.80 270.01,517.88 C272.36,493.10 281.18,472.20 295.50,457.45 C303.38,449.33 309.84,444.90 318.23,441.84 C324.40,439.58 324.80,438.61 319.95,437.64 C315.18,436.69 304.51,430.31 298.53,424.85 C283.49,411.11 274.07,391.67 270.43,366.84 C268.22,351.73 268.86,301.26 271.44,287.50 C273.48,276.60 277.83,263.26 282.10,254.78 C297.06,225.07 325.42,205.16 361.00,199.39 C372.44,197.53 396.49,197.61 407.56,199.54 C430.38,203.52 451.76,214.52 467.53,230.41 C484.24,247.24 494.25,269.84 496.96,296.86 C497.53,302.56 498.00,330.51 498.00,359.11 L 498.00 411.00 L 569.82 411.00 C636.77,411.00 642.12,410.87 648.76,409.13 C666.36,404.51 676.52,393.03 680.51,373.28 C682.89,361.51 682.19,304.58 679.56,295.54 C677.13,287.18 674.53,282.48 669.18,276.76 C661.02,268.04 650.57,264.37 636.40,265.25 C617.99,266.40 604.92,277.45 599.89,296.11 C599.09,299.08 598.57,315.82 598.28,347.75 L 597.85 395.00 L 531.00 395.00 L 531.00 344.13 C531.00,288.99 531.36,284.13 536.60,268.45 C547.90,234.61 573.01,211.45 609.00,201.66 C629.79,196.00 662.67,196.86 682.92,203.58 C725.21,217.62 751.14,250.49 756.13,296.35 C757.75,311.19 756.66,366.51 754.58,375.50 C746.97,408.40 730.30,429.73 706.07,437.59 L 700.64 439.35 L 704.33 440.63 C724.56,447.63 742.01,466.09 750.15,489.10 C756.00,505.61 756.23,507.96 756.72,554.88 C757.03,583.66 756.80,601.53 756.05,607.99 C751.49,647.21 733.35,673.87 700.50,689.62 C659.78,709.16 603.88,704.96 569.79,679.82 C552.92,667.38 540.86,648.52 534.20,624.17 L 531.55 614.50 L 531.29 578.80 C531.44,586.42 531.67,590.89 531.97,592.11 C533.39,597.96 535.94,618.29 535.37,619.21 C535.12,619.62 535.59,620.97 536.40,622.22 C537.22,623.47 537.85,625.90 537.80,627.62 C537.75,629.33 538.44,631.80 539.35,633.09 C540.26,634.39 541.00,636.66 541.00,638.15 C541.00,639.64 541.69,641.55 542.54,642.39 C543.38,643.24 544.72,645.49 545.52,647.40 C546.32,649.30 547.43,651.14 547.98,651.49 C548.54,651.83 549.96,654.36 551.14,657.10 C552.32,659.84 554.22,662.74 555.36,663.54 C556.51,664.34 557.12,665.00 556.72,665.00 C556.32,665.00 557.68,666.53 559.75,668.41 C561.81,670.29 565.57,673.82 568.11,676.26 C571.26,679.30 574.18,681.06 577.40,681.87 C579.97,682.52 582.34,683.73 582.66,684.57 C583.35,686.36 589.19,689.47 593.70,690.45 C595.46,690.83 597.94,691.95 599.20,692.94 C600.47,693.92 603.08,694.99 605.00,695.31 C606.92,695.63 610.75,696.40 613.50,697.03 C616.25,697.66 622.90,698.31 628.27,698.48 C634.12,698.66 638.64,699.28 639.53,700.02 C640.46,700.80 642.57,701.05 645.15,700.71 C647.42,700.40 650.36,700.57 651.69,701.07 C653.56,701.78 654.57,701.55 656.24,699.99 C657.90,698.45 659.77,698.00 664.57,698.00 C668.64,698.00 672.94,697.18 677.13,695.62 C680.63,694.31 685.08,692.91 687.00,692.51 C690.36,691.80 699.87,687.90 703.00,685.94 C703.83,685.42 706.75,683.94 709.50,682.65 C712.25,681.36 716.62,678.21 719.20,675.65 C721.79,673.09 724.38,671.00 724.95,671.00 C725.53,671.00 726.00,670.36 726.00,669.58 C726.00,668.80 726.34,668.02 726.76,667.83 C728.01,667.28 734.00,659.29 734.00,658.17 C734.00,657.60 735.35,656.17 737.00,655.00 C738.65,653.83 740.00,651.99 740.00,650.93 C740.00,649.87 740.36,649.00 740.79,649.00 C741.83,649.00 746.68,639.33 747.55,635.50 C747.93,633.85 748.81,631.58 749.50,630.47 C750.19,629.35 751.56,623.50 752.54,617.47 C754.07,607.97 754.29,600.30 754.14,560.24 C754.00,522.98 753.68,512.87 752.48,508.28 C751.67,505.14 751.00,501.15 751.00,499.41 C751.00,497.67 750.33,495.68 749.50,495.00 C748.67,494.32 748.00,493.02 748.00,492.11 C748.00,489.45 744.56,480.83 741.67,476.27 C740.20,473.94 739.00,471.63 739.00,471.14 C739.00,470.64 737.20,468.61 735.00,466.62 C732.80,464.63 731.00,462.67 730.99,462.25 C730.98,461.13 725.18,455.41 719.53,450.95 C713.47,446.16 708.95,443.94 703.86,443.25 C701.63,442.96 699.94,442.16 699.85,441.37 C699.77,440.62 699.66,439.45 699.60,438.78 C699.50,437.60 702.79,436.12 713.67,432.43 C716.92,431.34 719.03,429.99 719.33,428.83 C719.60,427.81 721.32,426.34 723.16,425.57 C726.76,424.06 732.40,418.74 731.44,417.77 C731.11,417.45 731.68,416.92 732.69,416.60 C733.71,416.28 735.41,414.40 736.46,412.44 C737.52,410.47 739.18,408.44 740.15,407.92 C741.11,407.40 742.69,404.40 743.66,401.24 C744.62,398.08 746.22,394.43 747.21,393.12 C748.19,391.80 749.00,389.47 749.00,387.92 C749.00,386.38 749.45,384.84 750.00,384.50 C750.55,384.16 751.00,382.58 751.00,380.99 C751.00,379.40 751.70,375.49 752.55,372.30 C753.80,367.59 754.08,360.27 754.02,333.24 C753.98,314.95 753.55,297.85 753.06,295.24 C752.58,292.63 751.87,286.90 751.49,282.50 C750.84,274.87 747.47,265.03 745.00,263.50 C744.45,263.16 744.00,261.99 744.00,260.91 C744.00,257.20 737.21,245.36 731.37,238.90 C725.20,232.06 718.00,225.00 717.21,225.00 C716.75,225.00 715.05,223.61 713.44,221.91 C710.45,218.76 704.32,215.14 700.86,214.47 C699.81,214.27 697.77,213.18 696.34,212.05 C694.90,210.92 693.10,210.00 692.34,210.00 C691.57,210.00 687.69,208.48 683.72,206.63 C674.43,202.30 673.09,201.91 663.50,200.87 C640.40,198.36 632.38,198.63 618.91,202.35 C615.83,203.20 612.31,203.63 611.09,203.31 C609.87,202.99 607.89,203.18 606.68,203.72 C596.90,208.14 594.79,209.00 593.71,209.00 C593.02,209.00 590.81,210.12 588.79,211.50 C586.76,212.88 584.58,214.00 583.95,214.00 C583.31,214.00 580.53,215.80 577.76,218.00 C575.00,220.20 572.34,222.00 571.85,222.00 C571.36,222.00 568.53,224.36 565.56,227.25 C562.59,230.14 559.69,232.95 559.11,233.50 C556.05,236.41 552.00,241.95 552.00,243.23 C552.00,244.03 551.10,245.50 550.00,246.50 C548.90,247.50 548.00,248.98 548.00,249.79 C548.00,250.61 547.27,251.81 546.38,252.46 C544.16,254.09 537.96,269.48 537.31,275.00 C537.02,277.48 536.32,280.07 535.75,280.77 C535.19,281.47 534.34,286.19 533.87,291.27 C533.41,296.35 532.53,302.75 531.93,305.50 C530.22,313.33 531.07,386.66 532.91,390.25 C533.69,391.76 534.81,393.02 535.41,393.04 C536.01,393.07 549.10,393.05 564.49,393.00 C587.41,392.93 592.89,392.65 594.74,391.43 L 597.00 389.95 L 597.00 348.98 C597.00,316.87 597.27,308.00 598.25,307.98 C599.17,307.97 599.14,307.74 598.14,307.11 C595.81,305.63 597.87,292.61 601.79,284.00 C604.19,278.75 606.78,275.71 613.04,270.78 C625.87,260.69 650.98,260.30 665.31,269.98 C673.32,275.38 677.33,281.60 682.45,296.50 C683.56,299.73 683.12,375.45 681.99,375.83 C681.44,376.02 681.00,377.17 681.00,378.41 C681.00,381.61 678.06,389.89 675.42,394.10 C672.28,399.12 663.23,406.80 659.56,407.56 C657.88,407.91 655.38,408.92 654.00,409.81 C652.62,410.69 649.03,411.83 646.00,412.34 C642.97,412.85 608.69,413.38 569.81,413.53 C505.24,413.77 498.99,413.65 497.65,412.15 C496.39,410.74 496.12,401.62 495.84,350.30 C495.58,303.84 495.21,289.81 494.25,288.85 C493.56,288.16 493.00,286.15 493.00,284.37 C493.00,282.13 492.44,280.96 491.20,280.56 C489.80,280.12 489.49,279.21 489.82,276.44 C490.23,272.87 488.44,264.48 486.81,262.35 C486.32,261.72 485.75,260.30 485.54,259.20 C485.33,258.09 484.24,256.13 483.13,254.84 C480.86,252.22 478.27,248.63 471.46,238.72 C468.53,234.46 465.45,231.25 463.15,230.07 C461.14,229.04 458.49,226.83 457.26,225.16 C454.95,222.01 446.86,215.95 444.53,215.61 C443.80,215.50 442.59,214.92 441.85,214.32 C438.92,211.96 427.92,207.00 425.61,207.00 C424.27,207.00 423.02,206.62 422.83,206.15 C422.02,204.05 399.30,199.85 386.00,199.33 C371.97,198.78 369.97,199.05 351.00,203.96 C346.33,205.17 340.81,206.59 338.75,207.12 C336.56,207.68 335.00,208.69 335.00,209.54 C335.00,210.48 333.98,211.00 332.13,211.00 C330.56,211.00 328.13,211.90 326.73,213.00 C325.33,214.10 323.35,215.00 322.33,215.00 C321.31,215.00 319.91,215.92 319.21,217.04 C318.51,218.16 317.58,218.86 317.16,218.60 C316.73,218.33 313.12,221.24 309.15,225.06 C305.18,228.88 300.83,232.72 299.50,233.59 C298.17,234.46 296.78,236.12 296.41,237.28 C296.04,238.44 294.00,241.59 291.87,244.28 C289.74,246.98 288.00,249.57 288.00,250.05 C288.00,250.53 287.14,251.73 286.08,252.71 C284.25,254.41 280.60,262.95 278.90,269.48 C278.47,271.14 277.12,275.20 275.90,278.50 C272.81,286.89 272.17,295.22 272.02,329.00 C271.87,364.04 272.54,374.52 275.15,377.88 C276.29,379.36 277.00,381.91 277.00,384.58 C277.00,386.94 277.36,389.10 277.80,389.37 C279.28,390.29 285.16,402.93 284.56,403.91 C284.22,404.45 285.97,406.82 288.43,409.19 C290.90,411.56 293.63,415.24 294.51,417.36 C295.40,419.48 296.99,421.45 298.06,421.73 C299.13,422.00 300.00,422.65 300.00,423.17 C300.00,423.68 301.59,424.77 303.54,425.58 C305.49,426.40 308.45,428.37 310.12,429.96 C312.03,431.79 315.05,433.27 318.26,433.96 C323.29,435.04 326.00,436.47 326.00,438.05 C326.00,438.49 324.83,440.23 323.41,441.92 C321.42,444.28 320.00,445.00 317.31,445.00 C314.55,445.00 312.72,445.97 308.79,449.50 C306.04,451.97 303.43,453.77 302.99,453.49 C301.93,452.84 292.75,461.79 293.40,462.84 C293.68,463.29 292.10,465.87 289.90,468.58 C287.69,471.28 285.35,474.17 284.69,475.00 C282.76,477.42 281.00,481.92 281.00,484.41 C281.00,485.69 280.10,487.87 279.00,489.27 C277.90,490.68 277.00,493.33 277.00,495.20 C277.00,497.06 276.17,500.21 275.14,502.22 C272.40,507.60 271.85,517.38 271.85,560.50 C271.86,603.76 272.40,612.86 275.25,617.70 C276.54,619.88 276.97,621.88 276.55,623.77 C276.12,625.75 276.68,627.98 278.47,631.34 C279.86,633.96 281.00,636.84 281.00,637.74 C281.00,639.92 284.74,647.54 286.55,649.04 C287.35,649.70 288.00,650.86 288.00,651.62 C288.00,652.38 289.58,654.74 291.50,656.87 C293.42,659.00 295.00,661.42 295.00,662.26 C295.00,663.09 296.63,664.55 298.62,665.49 C300.61,666.44 302.46,668.05 302.73,669.07 C303.00,670.09 304.63,671.85 306.36,672.97 C308.09,674.09 311.30,676.37 313.50,678.04 C315.70,679.72 319.33,681.91 321.56,682.93 C323.80,683.94 326.27,685.40 327.06,686.18 C327.85,686.96 331.42,688.66 335.00,689.96 C338.58,691.26 342.27,692.98 343.22,693.79 C344.16,694.59 345.78,695.03 346.80,694.76 C348.81,694.24 360.02,696.28 362.07,697.54 C362.75,697.96 366.95,698.39 371.40,698.49 C375.86,698.58 380.55,699.23 381.84,699.91 C383.37,700.73 385.85,700.93 389.02,700.50 C391.69,700.13 394.65,700.27 395.60,700.80 C396.88,701.51 397.87,701.27 399.36,699.88 C400.47,698.85 402.98,697.94 404.94,697.88 ZM 621.79 771.11 C616.60,773.75 608.62,773.60 602.97,770.75 C597.74,768.11 594.53,763.73 593.61,757.99 C591.31,743.56 606.23,731.89 619.77,737.55 C634.90,743.87 636.10,763.80 621.79,771.11 ZM 571.66 770.46 C564.36,774.74 553.38,773.50 547.16,767.70 C538.75,759.84 540.80,744.78 551.07,739.02 C557.76,735.26 566.35,735.47 572.16,739.52 C583.28,747.26 583.01,763.81 571.66,770.46 ZM 364.04 770.75 C359.26,773.16 351.51,773.68 347.03,771.89 C331.92,765.86 330.92,745.14 345.40,738.39 C353.47,734.64 361.86,735.72 367.83,741.30 C376.61,749.50 374.56,765.45 364.04,770.75 ZM 457.68 769.41 C455.29,771.18 453.14,771.55 443.43,771.84 L 432.00 772.17 L 432.00 736.78 L 443.33 737.14 C453.93,737.48 454.90,737.69 458.33,740.30 C463.31,744.10 465.00,747.78 465.00,754.80 C465.00,761.30 462.86,765.56 457.68,769.41 ZM 237.59 768.69 C235.21,771.47 235.02,771.50 222.09,771.83 L 209.00 772.16 L 209.00 737.00 L 221.08 737.00 C233.09,737.00 233.17,737.02 236.08,739.92 C239.54,743.38 240.01,748.54 237.18,752.02 C235.41,754.22 235.42,754.33 237.68,756.59 C240.82,759.73 240.78,764.98 237.59,768.69 ZM 525.99 769.25 C523.05,771.93 522.66,772.00 510.98,772.00 L 499.00 772.00 L 499.00 736.83 L 510.98 737.17 C522.48,737.49 523.07,737.61 525.68,740.22 C528.94,743.49 529.35,748.85 526.58,751.91 C524.81,753.87 524.83,754.01 527.47,757.14 C530.86,761.17 530.36,765.27 525.99,769.25 ZM 784.10 771.87 C777.08,774.21 766.45,772.52 761.83,768.35 C756.44,763.47 754.66,755.14 757.55,748.23 C760.82,740.40 766.53,736.70 775.50,736.59 C783.76,736.49 788.00,738.37 788.00,742.13 L 788.00 745.01 L 779.67 744.37 C771.40,743.74 771.30,743.76 767.92,746.78 C764.86,749.51 764.50,750.38 764.50,755.00 C764.50,759.57 764.88,760.50 767.77,763.08 C770.41,765.44 771.94,766.00 775.77,765.98 C781.58,765.97 783.28,764.98 782.84,761.89 C782.55,759.86 781.86,759.45 778.25,759.19 C774.28,758.91 774.00,758.69 774.00,755.94 L 774.00 753.00 L 791.26 753.00 L 790.78 760.57 C790.25,768.80 789.50,770.07 784.10,771.87 ZM 393.00 760.63 L 393.00 772.00 L 385.00 772.00 L 385.00 760.71 C385.00,750.99 385.31,748.80 387.25,744.96 C389.84,739.82 396.15,735.99 401.96,736.02 C407.02,736.05 413.31,739.22 416.10,743.13 C418.28,746.19 418.53,747.68 418.83,759.25 L 419.16 772.00 L 411.00 772.00 L 411.00 760.17 C411.00,749.11 410.85,748.21 408.69,746.17 C405.17,742.87 397.84,743.12 395.07,746.63 C393.25,748.95 393.00,750.65 393.00,760.63 ZM 280.00 766.00 L 280.00 772.00 L 253.00 772.00 L 253.01 761.25 C253.01,755.34 253.30,747.46 253.65,743.75 L 254.29 737.00 L 279.00 737.00 L 279.00 744.00 L 260.88 744.00 L 261.50 751.50 L 277.00 751.50 L 277.00 758.00 L 261.00 758.00 L 261.00 766.00 ZM 718.17 759.91 L 717.83 772.00 L 711.00 772.00 L 711.00 759.25 C711.01,744.86 712.14,741.58 718.21,738.34 C723.04,735.76 733.03,735.88 736.61,738.56 C742.82,743.20 743.47,745.04 743.83,759.07 L 744.16 772.00 L 736.00 772.00 L 736.00 760.63 C736.00,750.65 735.75,748.95 733.93,746.63 C732.26,744.52 731.01,744.00 727.54,744.00 C724.78,744.00 722.37,744.69 720.86,745.91 C718.65,747.69 718.48,748.61 718.17,759.91 ZM 312.00 767.48 L 312.00 772.00 L 304.00 772.00 L 304.00 767.94 C304.00,764.44 303.31,763.15 299.02,758.62 C293.53,752.81 291.55,748.89 290.48,741.75 L 289.77 737.00 L 297.74 737.00 L 298.87 742.75 C299.71,746.97 301.01,749.66 303.78,752.87 L 307.55 757.24 L 311.22 753.18 C313.52,750.63 315.12,747.70 315.50,745.31 C316.35,740.02 316.63,738.10 317.70,737.40 C318.32,737.00 319.19,737.00 320.59,737.00 L 320.85 737.00 L 324.67 737.00 L 323.94 742.34 C323.05,748.88 320.93,753.20 315.87,758.73 C312.57,762.33 312.00,763.62 312.00,767.48 ZM 650.35 765.47 C649.96,757.52 653.89,753.02 658.94,755.65 C660.35,756.39 661.98,756.99 662.58,756.99 C663.17,757.00 664.70,758.11 665.97,759.47 C668.80,762.48 670.71,761.73 668.55,758.44 C666.62,755.49 666.58,753.59 668.44,752.05 C669.23,751.39 669.65,750.25 669.36,749.50 C669.08,748.76 669.81,747.64 670.98,747.01 C672.51,746.19 673.03,745.10 672.81,743.18 C672.36,739.31 671.01,739.88 669.13,744.73 C668.24,747.05 666.46,750.12 665.20,751.54 C663.30,753.68 662.33,754.02 659.70,753.51 C656.92,752.96 654.60,752.23 653.06,751.46 L 656.99 751.16 C659.46,750.97 662.27,750.39 663.23,749.88 C665.64,748.59 668.00,743.72 668.00,740.05 C668.00,737.16 668.21,737.00 672.00,737.00 C675.85,737.00 676.00,737.12 675.98,740.25 C675.95,744.58 672.69,751.56 670.04,752.98 C667.93,754.11 667.93,754.14 670.86,756.87 C673.72,759.54 675.98,765.21 675.99,769.75 C676.00,771.70 675.48,772.00 672.13,772.00 C668.39,772.00 668.23,771.86 667.62,768.05 C666.63,761.83 663.47,758.90 657.49,758.68 L 652.50 758.50 L 652.20 765.25 L 651.91 772.00 L 644.00 772.00 L 644.00 737.00 L 651.91 737.00 L 652.21 744.25 L 652.49 751.15 C651.53,750.59 651.00,750.02 651.00,749.50 C651.00,748.04 648.20,745.47 647.43,746.24 C646.88,746.79 646.52,757.61 646.82,764.82 C646.97,768.36 647.32,769.08 648.75,768.80 C649.99,768.55 650.46,767.58 650.35,765.47 ZM 605.11 763.44 C608.68,766.45 615.24,766.92 618.78,764.44 C623.64,761.04 625.25,754.32 622.49,748.98 C620.49,745.11 618.16,744.00 612.02,744.00 C607.95,744.00 606.42,744.49 604.50,746.41 C599.71,751.20 600.00,759.14 605.11,763.44 ZM 348.11 764.66 C351.27,766.49 359.44,765.82 361.97,763.52 C365.07,760.72 366.36,755.62 365.01,751.52 C363.32,746.41 359.72,744.00 353.79,744.00 C349.66,744.00 348.37,744.48 345.92,746.92 C343.57,749.27 343.01,750.70 343.04,754.17 C343.08,759.23 344.77,762.73 348.11,764.66 ZM 553.40 762.60 C556.09,765.29 557.60,766.00 560.65,766.00 C569.29,765.99 574.82,758.28 571.63,750.67 C569.66,745.94 566.48,744.00 560.70,744.00 C556.67,744.00 555.35,744.50 552.92,746.92 C550.53,749.32 550.00,750.69 550.00,754.52 C550.00,758.51 550.50,759.70 553.40,762.60 ZM 440.00 744.00 L 440.00 766.28 L 445.38 765.72 C454.08,764.83 457.00,761.85 457.00,753.88 C457.00,750.76 456.34,749.19 454.08,746.92 C451.55,744.39 450.41,744.00 445.58,744.00 ZM 696.00 737.00 L 696.00 772.00 L 688.00 772.00 L 688.00 737.00 ZM 440.00 768.11 C440.00,767.07 439.29,765.94 438.42,765.61 C437.21,765.14 437.01,764.25 437.56,761.75 C437.95,759.96 438.55,755.12 438.89,751.00 L 439.50 743.50 L 446.30 743.20 C452.80,742.92 453.24,743.05 456.02,746.02 C459.74,750.00 460.59,754.49 458.68,760.11 C456.87,765.47 457.48,766.84 460.44,764.05 C462.27,762.34 462.69,760.81 462.77,755.73 C462.87,748.27 459.79,742.42 455.25,741.45 C453.74,741.12 450.44,740.37 447.93,739.78 C442.43,738.50 436.37,739.45 435.11,741.79 C434.38,743.16 433.83,752.00 433.95,760.25 C433.97,761.32 434.77,769.03 434.94,769.75 C434.97,769.89 436.12,770.00 437.50,770.00 C439.29,770.00 440.00,769.46 440.00,768.11 ZM 275.00 770.00 C275.00,769.45 275.00,768.66 275.01,768.25 C275.02,767.84 271.08,767.28 266.26,767.00 L 257.50 766.50 L 257.84 762.50 C258.02,760.30 258.61,758.05 259.14,757.50 C259.67,756.95 263.00,756.50 266.54,756.50 C271.12,756.50 273.13,756.10 273.51,755.11 C273.81,754.34 273.92,753.60 273.77,753.46 C273.62,753.33 270.39,753.01 266.59,752.75 C259.21,752.25 256.75,750.66 257.71,746.99 C258.42,744.30 259.89,743.36 264.50,742.67 C266.70,742.35 269.40,741.87 270.50,741.62 C271.60,741.36 272.95,741.07 273.50,740.97 C274.05,740.88 272.92,740.42 271.00,739.96 C267.15,739.04 259.35,740.47 257.17,742.50 C256.27,743.34 255.76,746.93 255.60,753.62 C255.41,761.87 255.70,764.12 257.37,767.25 L 259.37 771.00 L 267.18 771.00 C271.73,771.00 275.00,770.58 275.00,770.00 ZM 513.81 769.25 C513.58,767.99 512.23,767.36 508.99,767.00 C504.59,766.51 504.49,766.42 504.18,762.59 C503.92,759.46 504.36,758.22 506.38,756.35 C507.82,755.01 509.15,754.44 509.51,755.01 C510.44,756.52 511.67,756.19 511.67,754.42 C511.67,753.26 510.98,752.96 509.14,753.31 C507.27,753.67 505.92,753.05 503.95,750.94 L 501.28 748.09 L 500.70 755.80 C500.36,760.16 500.52,763.91 501.06,764.45 C501.57,764.97 502.00,766.12 502.00,767.00 C502.00,769.77 504.24,771.00 509.27,771.00 C513.37,771.00 514.09,770.72 513.81,769.25 ZM 741.80 767.80 C743.31,766.29 743.43,752.31 741.95,751.82 C740.92,751.47 740.23,749.26 740.08,745.82 C740.03,744.89 739.06,743.84 737.90,743.47 C736.75,743.10 734.98,742.06 733.97,741.15 C729.94,737.51 729.34,737.23 727.67,738.17 C726.75,738.68 726.00,739.42 726.00,739.81 C726.00,740.53 729.77,742.32 733.68,743.46 C735.04,743.85 736.11,745.20 736.51,747.05 C736.87,748.67 737.61,750.00 738.16,750.00 C738.77,750.00 739.10,753.44 738.99,758.75 C738.89,763.56 738.85,767.84 738.90,768.25 C739.05,769.37 740.44,769.16 741.80,767.80 ZM 693.80 767.80 C695.27,766.33 695.42,752.66 694.00,750.00 C693.36,748.80 693.34,747.24 693.95,745.64 C694.65,743.79 694.52,742.85 693.45,741.96 C691.35,740.22 688.73,742.57 689.62,745.39 C689.99,746.55 690.27,752.00 690.25,757.50 C690.20,769.36 690.72,770.88 693.80,767.80 ZM 715.42 768.39 C717.29,767.67 717.55,765.01 715.75,764.98 C714.98,764.98 714.88,764.69 715.50,764.23 C716.05,763.83 716.59,759.80 716.70,755.27 C716.92,746.36 717.89,743.49 721.00,742.50 C722.10,742.15 723.00,741.40 723.00,740.83 C723.00,740.25 722.29,740.06 721.42,740.39 C720.55,740.73 719.40,741.00 718.86,741.00 C718.32,741.00 718.16,741.45 718.50,742.00 C718.84,742.55 718.66,743.00 718.11,743.00 C716.75,743.00 710.91,751.57 711.71,752.38 C712.06,752.73 712.30,756.61 712.24,761.01 C712.13,768.95 712.39,769.56 715.42,768.39 ZM 217.00 758.00 L 217.00 766.00 L 222.57 766.00 C228.89,766.00 232.00,764.73 232.00,762.16 C232.00,759.05 229.80,758.00 223.30,758.00 ZM 361.23 768.88 C366.37,766.26 367.71,764.94 369.44,760.79 C372.17,754.24 368.69,742.00 364.10,742.00 C363.13,742.00 362.33,742.65 362.33,743.44 C362.33,744.24 362.79,744.80 363.35,744.69 C363.91,744.59 365.06,745.85 365.90,747.50 C368.44,752.47 367.53,764.00 364.60,764.00 C363.86,764.00 362.68,764.67 362.00,765.50 C361.32,766.33 359.52,767.00 358.00,767.00 C355.22,767.00 352.46,769.13 353.68,770.34 C354.81,771.48 356.94,771.07 361.23,768.88 ZM 390.51 759.41 C390.52,751.87 390.88,749.93 392.82,746.78 C394.60,743.91 395.96,742.93 398.81,742.45 C405.54,741.31 406.23,740.98 404.95,739.44 C404.12,738.44 403.27,738.32 401.96,739.02 C400.95,739.56 398.75,740.00 397.07,740.00 C395.38,740.00 394.00,740.45 394.00,741.00 C394.00,741.55 393.36,742.00 392.57,742.00 C389.72,742.00 388.22,747.52 388.08,758.53 C387.97,766.81 388.22,769.09 389.22,768.76 C390.13,768.45 390.50,765.76 390.51,759.41 ZM 507.00 757.91 L 507.00 766.00 L 512.88 766.00 C519.33,766.00 521.37,764.67 520.83,760.81 C520.53,758.69 519.93,758.48 513.75,758.20 ZM 217.67 751.33 C219.02,752.69 227.85,752.01 229.43,750.43 C233.17,746.68 230.40,744.00 222.80,744.00 L 217.00 744.00 L 217.00 747.33 C217.00,749.17 217.30,750.97 217.67,751.33 ZM 763.21 760.75 C762.94,757.86 762.36,755.27 761.92,754.98 C761.48,754.69 761.79,752.43 762.61,749.95 C763.65,746.78 764.89,745.10 766.79,744.28 C769.77,743.00 775.28,741.45 778.06,741.12 C778.64,741.06 778.84,740.55 778.50,740.00 C776.73,737.13 764.52,741.10 762.38,745.23 C761.59,746.75 760.57,748.00 760.10,748.00 C759.63,748.00 759.31,751.11 759.38,754.91 C759.49,760.14 759.98,762.32 761.42,763.91 C762.46,765.06 763.40,766.00 763.51,766.00 C763.62,766.00 763.48,763.64 763.21,760.75 ZM 600.22 750.07 C601.43,745.28 601.99,744.50 605.04,743.40 C606.94,742.71 610.19,742.12 612.25,742.08 C614.86,742.02 616.00,741.55 616.00,740.52 C616.00,738.63 611.23,737.38 609.73,738.87 C609.11,739.49 607.60,740.00 606.37,740.00 C605.15,740.00 603.54,740.60 602.80,741.34 C602.06,742.08 600.46,743.22 599.23,743.88 C598.00,744.53 597.00,745.74 597.00,746.55 C597.00,747.36 596.46,748.89 595.81,749.94 C594.88,751.43 594.89,752.46 595.85,754.58 C597.43,758.05 598.49,756.96 600.22,750.07 ZM 507.67 751.33 C508.03,751.70 510.28,752.00 512.67,752.00 C518.10,752.00 521.65,749.08 519.99,745.98 C519.12,744.35 517.88,744.00 512.96,744.00 L 507.00 744.00 L 507.00 747.33 C507.00,749.17 507.30,750.97 507.67,751.33 ZM 218.45 769.27 C218.82,768.32 218.63,767.38 218.04,767.18 C214.12,765.87 213.41,761.73 216.47,758.00 C219.03,754.87 218.98,753.06 216.23,750.51 C214.74,749.13 213.26,748.00 212.94,748.00 C212.08,748.00 212.47,768.34 213.36,769.78 C214.48,771.58 217.69,771.26 218.45,769.27 ZM 567.45 769.41 C568.32,768.53 569.66,767.73 570.42,767.61 C572.22,767.35 575.00,765.02 575.00,763.79 C575.00,763.25 575.90,761.67 577.00,760.27 C579.22,757.45 579.47,755.37 578.03,751.58 C577.40,749.93 576.55,749.24 575.59,749.60 C574.47,750.03 574.21,751.46 574.50,755.49 C574.85,760.32 574.60,761.12 571.86,763.99 C570.19,765.74 567.66,767.38 566.23,767.63 C563.08,768.21 562.00,768.82 562.00,770.06 C562.00,771.58 565.72,771.14 567.45,769.41 ZM 344.24 767.34 C343.55,767.06 343.24,766.42 343.55,765.91 C343.86,765.41 343.69,765.00 343.17,765.00 C341.92,765.00 340.78,759.59 340.87,754.04 C340.91,751.21 341.68,748.57 342.97,746.83 C344.09,745.32 345.00,743.61 345.00,743.04 C345.00,740.92 343.09,742.12 340.19,746.06 C337.46,749.77 337.24,750.65 337.66,756.31 C338.00,760.95 338.63,762.94 340.17,764.25 C341.30,765.21 341.83,766.01 341.36,766.02 C340.89,766.02 341.17,766.47 342.00,767.00 C342.83,767.53 343.95,767.94 344.50,767.91 C345.05,767.87 344.93,767.61 344.24,767.34 ZM 523.00 754.15 C523.00,753.69 523.90,752.27 525.00,751.00 C526.10,749.73 526.97,747.75 526.93,746.60 C526.84,744.19 520.56,738.53 519.03,739.48 C517.32,740.54 517.87,742.82 520.00,743.50 C523.08,744.48 522.76,750.25 519.53,751.98 C518.18,752.71 517.30,753.68 517.59,754.15 C518.28,755.26 523.00,755.26 523.00,754.15 ZM 551.00 766.21 C551.00,765.78 550.18,763.81 549.17,761.83 C548.12,759.77 547.37,756.27 547.42,753.62 C547.51,748.25 545.87,747.50 543.98,752.06 C543.03,754.35 543.00,755.40 543.86,756.26 C544.49,756.89 545.00,758.72 545.00,760.33 C545.00,762.09 545.86,764.01 547.15,765.13 C549.42,767.09 551.00,767.54 551.00,766.21 ZM 625.94 763.21 C630.12,759.03 630.48,756.70 627.90,750.46 C626.65,747.46 625.24,745.00 624.76,745.00 C624.28,745.00 624.11,744.62 624.40,744.17 C624.68,743.71 624.26,743.33 623.46,743.33 C623.32,743.33 623.19,743.33 623.07,743.33 C622.59,743.32 622.29,743.32 622.20,743.45 C622.05,743.69 622.53,744.33 623.83,746.09 C624.01,746.34 624.22,746.61 624.43,746.91 C626.38,749.55 626.68,750.70 625.93,752.67 C625.42,754.02 625.00,756.90 625.00,759.07 C625.00,761.23 624.60,763.00 624.11,763.00 C623.62,763.00 622.95,763.67 622.64,764.50 C621.78,766.74 622.83,766.33 625.94,763.21 ZM 618.30 768.66 C618.69,767.64 617.34,767.27 612.66,767.12 C604.51,766.86 603.25,766.39 601.46,762.93 C599.84,759.79 597.32,758.80 598.47,761.75 C598.84,762.71 599.23,763.95 599.32,764.50 C599.56,765.82 602.31,767.93 603.13,767.42 C603.50,767.19 604.05,767.68 604.36,768.51 C605.14,770.52 617.53,770.66 618.30,768.66 ZM 309.00 766.95 C309.00,765.82 309.69,763.57 310.53,761.95 C312.13,758.84 312.01,758.69 307.95,758.95 C306.55,759.04 304.19,758.15 302.70,756.98 C301.22,755.81 300.01,755.22 300.03,755.68 C300.08,756.89 302.99,760.54 303.04,759.44 C303.11,757.71 306.00,765.20 306.00,767.11 C306.00,768.15 306.67,769.00 307.50,769.00 C308.35,769.00 309.00,768.11 309.00,766.95 ZM 526.23 765.50 C527.65,763.57 526.98,760.06 525.00,759.00 C523.20,758.04 523.00,758.24 523.00,760.96 C523.00,762.72 522.11,764.89 520.88,766.12 C519.20,767.80 519.04,768.41 520.11,769.07 C521.37,769.84 524.30,768.14 526.23,765.50 ZM 299.00 752.01 C299.00,751.47 298.46,749.00 297.79,746.51 C296.95,743.36 296.06,742.00 294.85,742.00 C293.90,742.00 292.86,742.42 292.54,742.93 C291.90,743.97 294.93,751.08 296.50,752.23 C297.91,753.27 299.00,753.17 299.00,752.01 ZM 234.98 744.75 C234.97,744.06 234.18,742.49 233.23,741.25 C231.62,739.17 231.07,739.07 225.50,739.88 C222.20,740.36 220.73,740.81 222.22,740.88 C223.72,740.95 226.87,742.11 229.22,743.46 C234.14,746.29 235.01,746.48 234.98,744.75 ZM 559.93 741.40 C565.17,740.56 565.20,739.00 559.97,739.00 C557.38,739.00 555.74,739.52 555.39,740.44 C555.08,741.23 553.52,742.17 551.92,742.52 C550.31,742.87 549.00,743.76 549.00,744.50 C549.00,746.84 551.43,746.77 553.68,744.37 C554.92,743.05 557.62,741.76 559.93,741.40 ZM 319.48 749.43 C321.33,743.07 321.41,740.70 319.75,741.25 C319.06,741.48 318.45,743.03 318.40,744.70 C318.35,746.37 317.56,748.79 316.65,750.09 C314.61,753.01 314.54,754.67 316.48,754.67 C317.40,754.67 318.53,752.70 319.48,749.43 ZM 416.00 759.00 C416.00,747.96 414.30,748.06 414.08,759.11 C413.95,765.25 414.24,767.97 414.95,767.53 C415.54,767.17 416.00,763.44 416.00,759.00 ZM 507.27 742.59 C508.04,741.82 509.76,740.98 511.09,740.73 C512.41,740.48 510.96,740.21 507.86,740.14 C503.84,740.04 502.06,740.40 501.68,741.40 C500.60,744.20 504.77,745.09 507.27,742.59 ZM 786.80 762.12 C786.48,757.18 784.64,756.13 784.38,760.74 C784.29,762.26 784.11,763.95 783.99,764.50 C783.47,766.78 784.09,767.90 785.55,767.34 C786.71,766.90 787.02,765.57 786.80,762.12 ZM 233.84 753.88 C234.80,752.35 234.86,751.46 234.07,750.67 C232.71,749.31 228.41,753.23 229.44,754.90 C230.51,756.63 232.40,756.19 233.84,753.88 ZM 414.32 746.61 C414.98,744.90 412.21,740.75 410.93,741.54 C409.62,742.35 409.77,745.37 411.20,746.80 C412.77,748.37 413.66,748.32 414.32,746.61 ZM 235.80 765.80 C237.18,764.42 237.45,759.60 236.10,760.44 C234.89,761.18 232.90,767.00 233.85,767.00 C234.26,767.00 235.14,766.46 235.80,765.80 ZM 218.00 740.96 C218.00,740.43 216.88,740.00 215.50,740.00 C213.17,740.00 212.14,741.81 213.63,743.30 C214.45,744.12 218.00,742.22 218.00,740.96 ZM 571.98 744.25 C571.95,742.32 570.06,740.76 568.49,741.37 C567.10,741.90 567.01,742.30 568.01,743.51 C569.29,745.06 572.01,745.56 571.98,744.25 ZM 454.00 768.03 C454.00,767.50 454.67,767.32 455.50,767.64 C456.33,767.96 457.00,767.67 457.00,766.99 C457.00,766.18 456.23,766.00 454.75,766.46 C453.51,766.84 451.15,767.52 449.50,767.97 L 446.50 768.80 L 450.25 768.90 C452.31,768.95 454.00,768.56 454.00,768.03 ZM 779.00 769.06 C779.00,767.50 777.65,767.12 775.73,768.14 C774.21,768.96 774.04,769.41 775.02,770.01 C776.41,770.87 779.00,770.25 779.00,769.06 ZM 557.45 769.09 C558.12,767.99 556.01,767.11 554.26,767.75 C553.57,768.00 553.26,768.61 553.56,769.10 C554.28,770.27 556.72,770.26 557.45,769.09 ZM 649.00 742.50 C649.00,741.12 648.55,740.00 648.00,740.00 C646.88,740.00 646.63,743.30 647.67,744.33 C648.77,745.44 649.00,745.12 649.00,742.50 ZM 225.00 754.00 C226.16,753.25 225.87,753.03 223.69,753.02 C222.07,753.01 221.14,753.42 221.50,754.00 C222.27,755.24 223.08,755.24 225.00,754.00 ZM 673.00 767.00 C673.00,766.45 672.30,766.00 671.44,766.00 C670.58,766.00 670.16,766.45 670.50,767.00 C670.84,767.55 671.54,768.00 672.06,768.00 C672.58,768.00 673.00,767.55 673.00,767.00 ZM 784.50 742.00 C784.16,741.45 783.46,741.00 782.94,741.00 C782.42,741.00 782.00,741.45 782.00,742.00 C782.00,742.55 782.70,743.00 783.56,743.00 C784.42,743.00 784.84,742.55 784.50,742.00 Z" fill="rgb(87,111,239)"/>
<path d="M 0.00 512.00 L 0.00 0.00 L 512.00 0.00 L 1024.00 0.00 L 1024.00 512.00 L 1024.00 1024.00 L 512.00 1024.00 L 0.00 1024.00 L 0.00 512.00 ZM 364.04 770.75 C374.56,765.45 376.61,749.50 367.83,741.30 C361.86,735.72 353.47,734.64 345.40,738.39 C330.92,745.14 331.92,765.86 347.03,771.89 C351.51,773.68 359.26,773.16 364.04,770.75 ZM 571.66 770.46 C583.01,763.81 583.28,747.26 572.16,739.52 C566.35,735.47 557.76,735.26 551.07,739.02 C540.80,744.78 538.75,759.84 547.16,767.70 C553.38,773.50 564.36,774.74 571.66,770.46 ZM 621.79 771.11 C636.10,763.80 634.90,743.87 619.77,737.55 C606.23,731.89 591.31,743.56 593.61,757.99 C594.53,763.73 597.74,768.11 602.97,770.75 C608.62,773.60 616.60,773.75 621.79,771.11 ZM 784.10 771.87 C789.50,770.07 790.25,768.80 790.78,760.57 L 791.26 753.00 L 782.63 753.00 L 774.00 753.00 L 774.00 755.94 C774.00,758.69 774.28,758.91 778.25,759.19 C781.86,759.45 782.55,759.86 782.84,761.89 C783.28,764.98 781.58,765.97 775.77,765.98 C771.94,766.00 770.41,765.44 767.77,763.08 C764.88,760.50 764.50,759.57 764.50,755.00 C764.50,750.38 764.86,749.51 767.92,746.78 C771.30,743.76 771.40,743.74 779.67,744.37 L 788.00 745.01 L 788.00 742.13 C788.00,738.37 783.76,736.49 775.50,736.59 C766.53,736.70 760.82,740.40 757.55,748.23 C754.66,755.14 756.44,763.47 761.83,768.35 C766.45,772.52 777.08,774.21 784.10,771.87 ZM 237.59 768.69 C240.78,764.98 240.82,759.73 237.68,756.59 C235.42,754.33 235.41,754.22 237.18,752.02 C240.01,748.54 239.54,743.38 236.08,739.92 C233.17,737.02 233.09,737.00 221.08,737.00 L 209.00 737.00 L 209.00 754.58 L 209.00 772.16 L 222.09 771.83 C235.02,771.50 235.21,771.47 237.59,768.69 ZM 280.00 769.00 L 280.00 766.00 L 270.50 766.00 L 261.00 766.00 L 261.00 762.00 L 261.00 758.00 L 269.00 758.00 L 277.00 758.00 L 277.00 754.75 L 277.00 751.50 L 269.25 751.50 L 261.50 751.50 L 261.19 747.75 L 260.88 744.00 L 269.94 744.00 L 279.00 744.00 L 279.00 740.50 L 279.00 737.00 L 266.64 737.00 L 254.29 737.00 L 253.65 743.75 C253.30,747.46 253.01,755.34 253.01,761.25 L 253.00 772.00 L 266.50 772.00 L 280.00 772.00 L 280.00 769.00 ZM 312.00 767.48 C312.00,763.62 312.57,762.33 315.87,758.73 C320.93,753.20 323.05,748.88 323.94,742.34 L 324.67 737.00 L 320.85 737.00 C316.75,737.00 316.87,736.81 315.50,745.31 C315.12,747.70 313.52,750.63 311.22,753.18 L 307.55 757.24 L 303.78 752.87 C301.01,749.66 299.71,746.97 298.87,742.75 L 297.74 737.00 L 293.76 737.00 L 289.77 737.00 L 290.48 741.75 C291.55,748.89 293.53,752.81 299.02,758.62 C303.31,763.15 304.00,764.44 304.00,767.94 L 304.00 772.00 L 308.00 772.00 L 312.00 772.00 L 312.00 767.48 ZM 393.00 760.63 C393.00,750.65 393.25,748.95 395.07,746.63 C397.84,743.12 405.17,742.87 408.69,746.17 C410.85,748.21 411.00,749.11 411.00,760.17 L 411.00 772.00 L 415.08 772.00 L 419.16 772.00 L 418.83 759.25 C418.53,747.68 418.28,746.19 416.10,743.13 C413.31,739.22 407.02,736.05 401.96,736.02 C396.15,735.99 389.84,739.82 387.25,744.96 C385.31,748.80 385.00,750.99 385.00,760.71 L 385.00 772.00 L 389.00 772.00 L 393.00 772.00 L 393.00 760.63 ZM 457.68 769.41 C462.86,765.56 465.00,761.30 465.00,754.80 C465.00,747.78 463.31,744.10 458.33,740.30 C454.90,737.69 453.93,737.48 443.33,737.14 L 432.00 736.78 L 432.00 754.48 L 432.00 772.17 L 443.43 771.84 C453.14,771.55 455.29,771.18 457.68,769.41 ZM 525.99 769.25 C530.36,765.27 530.86,761.17 527.47,757.14 C524.83,754.01 524.81,753.87 526.58,751.91 C529.35,748.85 528.94,743.49 525.68,740.22 C523.07,737.61 522.48,737.49 510.98,737.17 L 499.00 736.83 L 499.00 754.42 L 499.00 772.00 L 510.98 772.00 C522.66,772.00 523.05,771.93 525.99,769.25 ZM 652.20 765.25 L 652.50 758.50 L 657.49 758.68 C663.47,758.90 666.63,761.83 667.62,768.05 C668.23,771.86 668.39,772.00 672.13,772.00 C675.48,772.00 676.00,771.70 675.99,769.75 C675.98,765.21 673.72,759.54 670.86,756.87 C667.93,754.14 667.93,754.11 670.04,752.98 C672.69,751.56 675.95,744.58 675.98,740.25 C676.00,737.12 675.85,737.00 672.00,737.00 C668.21,737.00 668.00,737.16 668.00,740.05 C668.00,743.72 665.64,748.59 663.23,749.88 C662.27,750.39 659.46,750.97 656.99,751.16 L 652.50 751.50 L 652.21 744.25 L 651.91 737.00 L 647.96 737.00 L 644.00 737.00 L 644.00 754.50 L 644.00 772.00 L 647.95 772.00 L 651.91 772.00 L 652.20 765.25 ZM 696.00 754.50 L 696.00 737.00 L 692.00 737.00 L 688.00 737.00 L 688.00 754.50 L 688.00 772.00 L 692.00 772.00 L 696.00 772.00 L 696.00 754.50 ZM 718.17 759.91 C718.48,748.61 718.65,747.69 720.86,745.91 C722.37,744.69 724.78,744.00 727.54,744.00 C731.01,744.00 732.26,744.52 733.93,746.63 C735.75,748.95 736.00,750.65 736.00,760.63 L 736.00 772.00 L 740.08 772.00 L 744.16 772.00 L 743.83 759.07 C743.47,745.04 742.82,743.20 736.61,738.56 C733.03,735.88 723.04,735.76 718.21,738.34 C712.14,741.58 711.01,744.86 711.00,759.25 L 711.00 772.00 L 714.42 772.00 L 717.83 772.00 L 718.17 759.91 ZM 407.46 700.49 C421.12,698.43 430.85,695.59 441.62,690.53 C469.94,677.23 485.97,657.50 494.82,625.07 L 497.43 615.50 L 497.77 543.73 L 498.11 471.95 L 514.30 472.23 L 530.50 472.50 L 531.03 543.50 L 531.55 614.50 L 534.20 624.17 C540.86,648.52 552.92,667.38 569.79,679.82 C603.88,704.96 659.78,709.16 700.50,689.62 C733.35,673.87 751.49,647.21 756.05,607.99 C756.80,601.53 757.03,583.66 756.72,554.88 C756.23,507.96 756.00,505.61 750.15,489.10 C742.01,466.09 724.56,447.63 704.33,440.63 L 700.64 439.35 L 706.07 437.59 C730.30,429.73 746.97,408.40 754.58,375.50 C756.66,366.51 757.75,311.19 756.13,296.35 C751.14,250.49 725.21,217.62 682.92,203.58 C662.67,196.86 629.79,196.00 609.00,201.66 C573.01,211.45 547.90,234.61 536.60,268.45 C531.36,284.13 531.00,288.99 531.00,344.13 L 531.00 395.00 L 564.42 395.00 L 597.85 395.00 L 598.28 347.75 C598.57,315.82 599.09,299.08 599.89,296.11 C604.92,277.45 617.99,266.40 636.40,265.25 C650.57,264.37 661.02,268.04 669.18,276.76 C674.53,282.48 677.13,287.18 679.56,295.54 C682.19,304.58 682.89,361.51 680.51,373.28 C676.52,393.03 666.36,404.51 648.76,409.13 C642.12,410.87 636.77,411.00 569.82,411.00 L 498.00 411.00 L 498.00 359.11 C498.00,330.51 497.53,302.56 496.96,296.86 C494.25,269.84 484.24,247.24 467.53,230.41 C451.76,214.52 430.38,203.52 407.56,199.54 C396.49,197.61 372.44,197.53 361.00,199.39 C325.42,205.16 297.06,225.07 282.10,254.78 C277.83,263.26 273.48,276.60 271.44,287.50 C268.86,301.26 268.22,351.73 270.43,366.84 C274.07,391.67 283.49,411.11 298.53,424.85 C304.51,430.31 315.18,436.69 319.95,437.64 C324.80,438.61 324.40,439.58 318.23,441.84 C309.84,444.90 303.38,449.33 295.50,457.45 C281.18,472.20 272.36,493.10 270.01,517.88 C268.69,531.80 268.71,589.97 270.04,602.92 C274.32,644.66 295.67,675.81 330.10,690.54 C353.56,700.58 382.30,704.28 407.46,700.49 ZM 348.11 764.66 C344.77,762.73 343.08,759.23 343.04,754.17 C343.01,750.70 343.57,749.27 345.92,746.92 C348.37,744.48 349.66,744.00 353.79,744.00 C359.72,744.00 363.32,746.41 365.01,751.52 C366.36,755.62 365.07,760.72 361.97,763.52 C359.44,765.82 351.27,766.49 348.11,764.66 ZM 553.40 762.60 C550.50,759.70 550.00,758.51 550.00,754.52 C550.00,750.69 550.53,749.32 552.92,746.92 C555.35,744.50 556.67,744.00 560.70,744.00 C566.48,744.00 569.66,745.94 571.63,750.67 C574.82,758.28 569.29,765.99 560.65,766.00 C557.60,766.00 556.09,765.29 553.40,762.60 ZM 605.11 763.44 C600.00,759.14 599.71,751.20 604.50,746.41 C606.42,744.49 607.95,744.00 612.02,744.00 C618.16,744.00 620.49,745.11 622.49,748.98 C625.25,754.32 623.64,761.04 618.78,764.44 C615.24,766.92 608.68,766.45 605.11,763.44 ZM 217.00 762.00 L 217.00 758.00 L 223.30 758.00 C229.80,758.00 232.00,759.05 232.00,762.16 C232.00,764.73 228.89,766.00 222.57,766.00 L 217.00 766.00 L 217.00 762.00 ZM 217.67 751.33 C217.30,750.97 217.00,749.17 217.00,747.33 L 217.00 744.00 L 222.80 744.00 C230.40,744.00 233.17,746.68 229.43,750.43 C227.85,752.01 219.02,752.69 217.67,751.33 ZM 440.00 755.14 L 440.00 744.00 L 445.58 744.00 C450.41,744.00 451.55,744.39 454.08,746.92 C456.34,749.19 457.00,750.76 457.00,753.88 C457.00,761.85 454.08,764.83 445.38,765.72 L 440.00 766.28 L 440.00 755.14 ZM 507.00 761.95 L 507.00 757.91 L 513.75 758.20 C519.93,758.48 520.53,758.69 520.83,760.81 C521.37,764.67 519.33,766.00 512.88,766.00 L 507.00 766.00 L 507.00 761.95 ZM 507.67 751.33 C507.30,750.97 507.00,749.17 507.00,747.33 L 507.00 744.00 L 512.96 744.00 C517.88,744.00 519.12,744.35 519.99,745.98 C521.65,749.08 518.10,752.00 512.67,752.00 C510.28,752.00 508.03,751.70 507.67,751.33 ZM 373.00 631.62 C359.24,627.63 351.16,619.10 346.34,603.47 C344.68,598.08 344.50,593.48 344.50,556.00 C344.50,515.22 344.54,514.37 346.85,507.01 C350.10,496.67 352.39,492.52 358.36,486.21 C367.84,476.19 379.92,472.05 399.75,472.02 L 411.00 472.00 L 411.00 441.50 L 411.00 411.00 L 398.05 411.00 C390.93,411.00 382.71,410.50 379.80,409.89 C362.95,406.34 350.93,394.43 346.36,376.77 C343.92,367.33 343.21,314.96 345.35,302.54 C348.33,285.29 357.06,272.89 369.80,267.85 C374.52,265.98 377.48,265.58 387.00,265.55 C397.84,265.50 398.88,265.68 405.00,268.59 C416.79,274.21 424.73,285.17 427.00,299.00 C427.74,303.47 427.98,351.73 427.79,453.50 L 427.50 601.50 L 425.05 608.50 C421.81,617.77 413.42,626.54 404.50,630.00 C397.18,632.85 380.22,633.72 373.00,631.62 ZM 627.25 631.52 C619.22,629.26 614.96,626.71 609.40,620.83 C603.79,614.89 600.70,608.02 599.04,597.79 C598.42,594.02 598.01,567.53 598.01,531.66 L 598.00 471.81 L 620.75 472.24 C640.56,472.61 644.22,472.93 649.09,474.72 C657.54,477.83 660.85,479.78 666.17,484.75 C672.18,490.38 676.18,497.25 679.11,507.00 C681.26,514.13 681.39,516.48 681.75,554.54 C682.08,588.24 681.89,595.65 680.58,601.30 C677.38,615.09 670.78,624.09 660.13,629.19 C654.21,632.02 652.37,632.39 643.00,632.67 C635.90,632.89 630.80,632.51 627.25,631.52 Z" fill="rgb(254,254,254)"/>
</g>
</svg>